<?xml version="1.0" encoding="utf-8"?>
<!DOCTYPE svg PUBLIC "-//W3C//DTD SVG 1.0//EN" "http://www.w3.org/TR/2001/REC-SVG-20010904/DTD/svg10.dtd">
<svg version="1.0" xmlns="http://www.w3.org/2000/svg" width="447px" height="559px" viewBox="0 0 447 559" preserveAspectRatio="xMidYMid meet">
 <g fill="#050307">
  <path d="M88.4 496.4 c2.5 -22.6 2.8 -23.6 6.5 -27.9 6.9 -7.7 12.1 -14.4 12.1 -15.4 0 -0.7 -2.2 -1.1 -5.4 -1.1 l-5.5 0 0.4 -3.2 c0.2 -1.8 0.9 -6.7 1.4 -10.8 0.5 -4.1 1.3 -10 1.6 -13.1 0.4 -3.8 1.3 -6.3 2.6 -7.5 2.2 -2 2.5 -4.4 0.7 -6.2 -0.9 -0.9 -0.5 -1.2 2 -1.2 3 0 3.2 0.2 3.2 3.4 0 2.4 -0.5 3.6 -1.7 3.9 -1.5 0.4 -1.6 0.5 -0.2 0.6 1.8 0.1 2.9 2.9 2.9 7.4 0 2.2 0.4 2.7 2.6 2.7 2.4 0 2.6 0.3 2.2 4 l-0.4 4 5.6 0 c3 0 7.2 0.3 9.3 0.6 3.5 0.6 3.7 0.9 3.7 4.2 l0 3.5 -9 -0.7 c-7.5 -0.6 -9 -0.4 -9 0.8 0 1.6 2.1 2.6 5.6 2.6 2 0 2.4 0.5 2.4 3.1 0 4 -2 5.9 -6.4 5.9 l-3.6 0 0 4.6 c0 3.7 -0.5 4.9 -2.8 6.9 -1.5 1.3 -3.4 3.5 -4.1 4.9 -0.8 1.4 -2.3 2.6 -3.3 2.6 -1 0 -1.8 0.6 -1.8 1.4 0 0.8 -1.3 1.7 -3 2.1 -2.9 0.6 -3 0.9 -3 6 l0 5.3 4.4 1.1 c2.5 0.6 7.2 1.1 10.5 1.1 l6.1 0 0 -3.1 0 -3.2 8 0.7 c5.2 0.4 8 0.3 8 -0.4 0 -0.5 1.8 -1 4 -1 3.7 0 4 0.2 4 2.9 0 2.6 0.4 2.9 3.8 3.2 l3.7 0.4 -0.4 -3.7 -0.3 -3.8 5.2 0 c5.8 0 8 1.5 8 5.4 0 2.5 0.3 2.6 5.4 2.6 3 0 5.8 -0.4 6.1 -1 0.4 -0.6 -0.7 -1 -2.4 -1 -3 0 -3.1 -0.1 -3.1 -4.5 0 -4.1 0.2 -4.5 2.5 -4.5 1.8 0 2.5 -0.5 2.5 -2 0 -1.6 0.7 -2 3.5 -2 2.8 0 3.5 0.4 3.5 2 0 1.1 0.7 2 1.5 2 0.8 0 1.5 0.5 1.5 1 0 0.6 1.1 1 2.5 1 1.4 0 2.8 0.7 3.1 1.5 0.5 1.2 2.5 1.5 9.5 1.5 7.2 0 8.9 0.3 8.9 1.5 0 0.8 0.9 1.5 2 1.5 1.1 0 2 -0.4 2 -0.9 0 -0.5 0.8 -1.2 1.8 -1.4 1.3 -0.4 1.1 -0.5 -0.5 -0.6 -1.9 -0.1 -2.3 -0.7 -2.3 -3.6 0 -3.3 0.2 -3.5 3.5 -3.5 2.4 0 3.5 0.5 3.5 1.5 0 0.8 0.7 1.5 1.5 1.5 0.8 0 1.5 -0.4 1.5 -1 0 -0.5 0.7 -1 1.5 -1 1.1 0 1.5 -1.1 1.5 -3.6 0 -2 0.7 -5.1 1.6 -7 1.4 -2.9 2.1 -3.4 5 -3.4 3.1 0 3.4 0.3 3.4 3 0 2.8 0.2 3 3.9 3 l3.9 0 0.7 7.9 0.7 8 3.1 0.3 c2.4 0.2 3.3 0.9 3.5 2.4 0.4 2.6 -1.9 3.4 -10.3 3.4 -5.9 0 -43.7 2.1 -73 4 -8.2 0.6 -23.8 1.5 -34.5 2 -10.7 0.5 -24.2 1.3 -29.9 1.6 l-10.4 0.7 0.7 -5.9z"/>
  <path d="M249 490.4 c0 -1.7 0.6 -2.8 2 -3.1 1.5 -0.4 2 -1.4 2 -3.9 0 -1.8 0.4 -3.5 0.9 -3.8 0.5 -0.3 1.2 -2.6 1.5 -5.1 0.4 -2.5 1.1 -4.5 1.6 -4.5 0.4 0 1 -2.3 1.2 -5 0.2 -3.5 -0.1 -5 -0.9 -5 -0.8 0 -1.3 -1.4 -1.3 -3.5 0 -3.3 0.2 -3.5 3.5 -3.5 2.8 0 3.5 0.4 3.5 2 0 1.3 0.7 2 2 2 1.1 0 2.3 0.8 2.6 1.8 0.3 0.9 1 2.5 1.5 3.4 0.5 1 0.9 2.7 0.9 3.8 0 1.4 0.7 2 2.1 2 2.2 0 4.9 2.2 4.9 3.9 0 0.6 0.9 1.1 1.9 1.1 1.1 0 2.6 0.7 3.5 1.5 1 1 3.5 1.5 7.5 1.5 6.2 0 11 1.3 12.3 3.3 0.5 0.8 0.8 0.5 0.8 -0.7 0 -1.7 0.5 -1.8 5.8 -1.2 3.1 0.4 7.3 0.9 9.3 1.2 2.5 0.4 4 0.1 5.2 -1 0.8 -0.9 2.9 -1.6 4.6 -1.6 2.4 0 3.1 0.4 3.1 2 0 1.1 0.5 2 1 2 0.6 0 1 -1.1 1 -2.5 0 -2.5 0 -2.5 9.4 -2.5 l9.4 0 0.7 3.1 c0.6 2.6 1 3 2.8 2.4 1.2 -0.3 5 -0.9 8.5 -1.2 4.9 -0.5 6.2 -0.9 5.8 -2 -0.4 -0.8 -0.6 -2.6 -0.6 -3.9 0 -1.3 -0.9 -3.3 -2 -4.4 -1.3 -1.3 -2 -3.3 -2 -6 0 -2.3 -0.5 -4 -1.1 -4 -0.7 0 -1 -1.5 -0.7 -4 0.2 -2.6 -0.1 -4 -0.8 -4 -0.7 0 -1.5 -0.7 -1.8 -1.6 -0.9 -2.3 -0.7 -9.4 0.2 -9.4 0.4 0 0.6 -1.8 0.4 -4 -0.4 -4 -0.4 -4 3.2 -4 2.5 0 3.6 -0.4 3.6 -1.5 0 -0.8 -0.4 -1.5 -1 -1.5 -0.5 0 -1 -2 -1 -4.5 0 -4.3 0.1 -4.5 3 -4.5 2.7 0 3 -0.3 3 -3 0 -2 -0.5 -3 -1.5 -3 -0.8 0 -1.5 -0.9 -1.5 -2 0 -1.1 -0.6 -2 -1.4 -2 -1.6 0 -3.1 -10.3 -2 -14.4 0.5 -2 0.2 -2.6 -1 -2.6 -1.2 0 -1.6 -1 -1.6 -3.5 0 -2.4 0.5 -3.5 1.5 -3.5 0.8 0 1.5 -0.7 1.5 -1.5 0 -0.8 0.5 -1.5 1 -1.5 0.6 0 1 -0.8 1 -1.8 0 -1 0.9 -2.5 2 -3.5 1.3 -1.1 2 -2.9 2 -5.2 0 -3 0.3 -3.5 2.4 -3.5 4.1 0 5.6 -1.1 5.6 -4 0 -1.6 0.5 -3.2 1 -3.5 1.5 -0.9 1.2 -2.5 -0.5 -2.5 -1 0 -1.5 -1.1 -1.5 -3.5 0 -2.4 0.5 -3.5 1.5 -3.5 1.7 0 1.9 -3.1 0.9 -11.7 -0.5 -3.5 -1.1 -5.3 -2 -5.3 -0.9 0 -1.4 -1.1 -1.4 -2.8 0 -1.9 -0.7 -3 -2.2 -3.7 -1.7 -0.7 -2.4 -2.1 -2.8 -5 -0.5 -3.9 -0.6 -4 -4.5 -4.3 -2.2 -0.2 -4.5 -1 -5.1 -1.8 -0.6 -0.8 -3.7 -1.7 -7.3 -2 -5.2 -0.6 -6.1 -1 -6.1 -2.7 0 -1.9 -0.5 -1.9 -11 -1.2 -8.8 0.5 -11 0.4 -11.1 -0.7 -0.1 -0.7 -0.4 -0.2 -0.8 1.2 -0.6 2.1 -1.4 2.6 -4.9 2.8 -3.1 0.2 -4.2 -0.1 -4.2 -1.1 0 -1.2 -4.9 -3.1 -5.7 -2.3 -0.2 0.1 -0.6 3.4 -1 7.2 l-0.8 6.9 -4.3 0 c-2.7 0 -4.2 0.4 -4.2 1.3 0 0.7 -1.5 1.2 -4 1.2 -2.9 0 -4 0.4 -4 1.5 0 1.1 -1.1 1.5 -3.6 1.5 -2.7 0 -3.7 -0.5 -4.1 -2 -0.3 -1.1 -1.2 -2 -2 -2 -1.7 0 -3.6 -1.8 -4.6 -4.2 -0.3 -1 -1.3 -1.8 -2.2 -1.8 -0.8 0 -1.5 -0.4 -1.5 -1 0 -0.5 -0.7 -1 -1.5 -1 -0.8 0 -1.9 -0.9 -2.5 -2 -0.6 -1.1 -1.7 -2 -2.5 -2 -1.1 0 -1.5 -1.1 -1.5 -3.6 l0 -3.7 4.5 0.5 c4.9 0.6 13.4 5.9 15 9.5 0.9 2.1 3.3 3.3 6.8 3.3 1.2 0 1.7 -0.8 1.7 -2.5 0 -1.8 0.5 -2.5 2 -2.5 1.4 0 2 -0.7 2 -2.3 0 -3 1.8 -4.7 5.1 -4.7 2.4 0 2.7 -0.4 3.3 -5.2 0.3 -2.9 0.6 -7 0.6 -9 0 -3.2 0.3 -3.8 2.1 -3.8 2 0 2.1 -0.3 1.4 -7.5 -0.6 -7.2 -0.6 -7.5 1.4 -7.5 1.2 0 2.1 -0.4 2.1 -1 0 -0.5 1.3 -1 2.9 -1 4.2 0 6.1 -1 6.1 -3.1 0 -2.7 2.6 -2.4 3.4 0.4 1 3.8 0.7 8.5 -0.6 9 -1 0.4 -1 0.8 0.1 1.5 1.5 1.1 1.8 11.5 0.5 17.4 -0.7 3.5 0.4 4 6.1 2.3 6.9 -2.1 14.2 -2 14.8 0.3 0.4 1.6 0.5 1.6 0.6 0 0.1 -1.5 1.1 -1.8 6.1 -1.8 15.8 0 30.9 10.9 37.9 27.3 2.7 6.3 3.1 26.6 0.6 28.7 -1.7 1.4 -2 3.7 -0.5 4.2 1.5 0.5 -1.1 7.8 -2.8 7.8 -1 0 -1.2 0.7 -0.8 2.3 0.4 1.6 -0.7 4.4 -3.4 9.1 -2.2 3.8 -4 7.1 -4 7.3 0 0.3 1.8 2.5 4 4.9 3.4 3.7 3.9 4.9 3.4 7.1 -0.4 1.6 -1.1 3 -1.6 3.1 -1.2 0.5 -1 3.2 0.3 3.2 0.5 0 0.8 0.4 0.5 0.9 -0.3 0.4 -1 4.6 -1.6 9.2 -0.6 4.6 -1.7 12.9 -2.4 18.4 -4.8 33.3 -6.4 45.4 -6.6 48.5 -0.1 3.9 -0.6 4 -46.6 6.5 -24.7 1.4 -51.9 3 -60.4 3.5 -23.6 1.4 -23 1.5 -23 -1.6z"/>
  <path d="M196 445.1 c0 -1.5 -1 -2.1 -4 -2.6 -3.8 -0.6 -4 -0.9 -4 -4.1 0 -3.1 0.3 -3.4 2.9 -3.4 2.3 0 3 -0.5 3.3 -2.2 0.2 -1.9 1 -2.4 4.6 -2.6 3.9 -0.3 4.2 -0.1 4.2 2.2 0 1.4 0.5 2.8 1 3.1 0.6 0.4 1 -0.7 1 -2.5 0 -3 0.1 -3.1 4.3 -2.8 4 0.3 4.2 0.5 4.5 3.7 0.4 3.8 -0.9 5.1 -5 5.1 -2.6 0 -2.8 0.3 -2.8 4 l0 4 -5 0 c-4.3 0 -5 -0.3 -5 -1.9z"/>
  <path d="M240 439 c0 -1.1 -0.7 -2 -1.5 -2 -0.9 0 -1.5 -0.9 -1.5 -2.5 0 -2.2 -0.4 -2.5 -4 -2.5 -3.9 0 -4 -0.1 -4 -3.5 0 -3.4 0.1 -3.5 3.9 -3.5 4.3 0 5.1 -1 5.1 -6.5 0 -2.8 0.4 -3.3 3.1 -3.9 6.8 -1.3 7.9 -0.9 7.9 2.9 0 2.9 -0.4 3.5 -2.2 3.6 -1.9 0.1 -2 0.2 -0.4 0.6 1.7 0.4 1.8 1.2 1.2 6.5 -0.3 3.4 -0.6 7.6 -0.6 9.4 0 3.2 -0.2 3.4 -3.5 3.4 -2.8 0 -3.5 -0.4 -3.5 -2z"/>
  <path d="M138.4 390.2 c-2.5 -1.6 -3.4 -5.6 -3.4 -14.6 l0 -9.6 4.5 0 4.5 0 0 4 c0 2.2 -0.4 4 -1 4 -0.5 0 -1 0.7 -1 1.5 0 0.9 0.6 1.2 1.5 0.9 0.8 -0.4 1.5 -1.2 1.5 -2 0 -0.7 1 -1.8 2.1 -2.5 2.1 -1.1 5.2 -0.9 14.7 1 l4.2 0.8 0 -3.8 c0 -3.2 -0.4 -3.9 -1.9 -3.9 -4 0 -5.1 -1.1 -5.1 -5.2 l0 -4 4.5 0.4 c3.7 0.2 4.5 0 4.5 -1.3 0 -2 2 -2.9 6.1 -2.9 1.9 0 2.9 0.5 2.9 1.5 0 1.2 1.5 1.5 7.5 1.5 l7.5 0 0 3 c0 1.7 0.5 3 1 3 0.6 0 1 1.4 1 3 0 2 0.5 3 1.5 3 1.1 0 1.5 1.2 1.5 4.5 0 4.5 0 4.5 -3.4 4.5 -1.9 0 -3.7 -0.6 -3.9 -1.2 -0.3 -0.7 -0.6 -0.5 -0.6 0.6 -0.1 2.9 -3.1 4.5 -8.3 4.6 -3.4 0 -5 -0.5 -5.8 -1.7 -0.8 -1.3 -1.3 -1.4 -1.6 -0.5 -0.3 0.6 -1.8 1.2 -3.2 1.2 -3.1 0.1 -7.2 3.1 -7.2 5.3 0 1.6 -2.9 2.7 -7.2 2.7 -2.3 0 -2.8 -0.4 -2.8 -2.5 0 -1.6 -0.6 -2.5 -1.6 -2.5 -2.3 0 -4.4 2.5 -4.4 5.4 0 2.3 -0.4 2.6 -3.7 2.6 -2.1 0 -4.3 -0.4 -4.9 -0.8z"/>
  <path d="M93.6 386.8 c-0.8 -3 -0.8 -13.2 0 -15.2 0.3 -0.9 1.2 -1.6 2 -1.6 1.1 0 1.4 2 1.4 9.5 0 7.4 -0.3 9.5 -1.4 9.5 -0.7 0 -1.6 -1 -2 -2.2z"/>
  <path d="M234.3 383.3 c-1.8 -0.4 -2.3 -1.1 -2.3 -3.8 0 -1.8 0.6 -3.6 1.3 -3.8 1 -0.4 1 -0.6 0 -0.6 -0.9 -0.1 -1.3 -1.7 -1.3 -4.6 0 -4.3 -0.1 -4.5 -3 -4.5 -2.8 0 -3 -0.2 -3 -4 l0 -4 7 0 7 0 0 3 c0 3 1.3 3.7 3.8 2.1 0.9 -0.5 1.2 -2.5 1 -6.2 -0.3 -4.8 -0.6 -5.4 -2.6 -5.7 -2 -0.3 -2.3 -0.8 -2 -4.5 l0.3 -4.2 6.8 -0.3 c5.5 -0.2 6.7 0 6.7 1.3 0 0.8 0.5 1.5 1 1.5 0.6 0 1 1.6 1 3.5 0 1.9 -0.4 3.5 -1 3.5 -0.5 0 -1 0.7 -1 1.5 0 0.8 0.5 1.5 1 1.5 0.6 0 1 1.6 1 3.5 0 2.4 -0.6 3.9 -2 4.7 -1.5 1 -2 2.4 -2 5.5 0 3.5 -0.3 4.3 -1.9 4.3 -1.4 0 -2.1 1 -2.6 3.6 -0.4 2.4 -1.3 3.8 -2.6 4.1 -1 0.3 -1.9 1.2 -1.9 1.9 0 1.4 -3.7 1.7 -8.7 0.7z"/>
  <path d="M94.6 363.3 c0.4 -1.6 1.2 -3.2 1.9 -3.8 0.6 -0.5 1.5 -3.1 1.8 -5.8 0.7 -5.2 3.2 -9.7 5.3 -9.7 0.9 0 1.4 -1.1 1.4 -2.9 0 -2.5 0.4 -2.9 3.8 -3.5 7.3 -1.2 8.2 -0.9 8.2 2.5 0 1.7 -0.7 3.7 -1.5 4.5 -0.8 0.9 -1.5 3.1 -1.5 5 0 2.2 -0.6 3.7 -1.5 4 -0.8 0.4 -1.5 1.5 -1.5 2.5 0 1.4 -0.7 1.9 -2.5 1.9 -1.8 0 -2.5 0.5 -2.5 2 0 1.5 -0.7 2 -2.5 2 -1.8 0 -2.5 0.5 -2.5 2 0 1.6 -0.7 2 -3.5 2 -3.3 0 -3.5 -0.1 -2.9 -2.7z"/>
  <path d="M319 355.5 c0 -3.3 0.2 -3.5 3.5 -3.5 3.3 0 3.5 0.2 3.5 3.5 0 3.3 -0.2 3.5 -3.5 3.5 -3.3 0 -3.5 -0.2 -3.5 -3.5z"/>
  <path d="M198 335.5 c0 -2.4 0.5 -3.5 1.4 -3.5 1 0 1.6 -1.4 1.8 -4.2 0.3 -4.2 0.4 -4.3 4.1 -4.6 3.5 -0.3 3.7 -0.2 3.7 2.7 0 3.9 -0.9 6.1 -2.6 6.1 -0.9 0 -1.4 1.2 -1.4 3.5 0 3.3 -0.2 3.5 -3.5 3.5 -3.3 0 -3.5 -0.2 -3.5 -3.5z"/>
  <path d="M111.2 332.8 c0.3 -2.9 0.7 -3.3 3.6 -3.6 3.1 -0.3 3.2 -0.2 3.2 3.2 0 3.5 -0.1 3.6 -3.6 3.6 -3.4 0 -3.5 -0.1 -3.2 -3.2z"/>
  <path d="M122.4 329.5 c-0.3 -0.8 -2 -1.7 -3.8 -2 -1.9 -0.4 -3.6 -1.5 -4.1 -2.7 -0.6 -1.3 -3 -2.8 -6 -3.8 -6.2 -2 -16.3 -6.8 -17 -8.1 -0.4 -0.5 2.5 -4.9 6.4 -9.7 3.9 -4.8 7.1 -9.5 7.1 -10.5 0 -1.9 -6.3 -5.1 -13.2 -6.6 -4.6 -1.1 -13.4 1.4 -19.9 5.5 -3.3 2.1 -10.4 9.8 -12.7 14 -0.4 0.8 -1.6 1.1 -3 0.7 -1.7 -0.4 -2.2 -1.3 -2.2 -3.9 0 -2.8 0.4 -3.4 2.3 -3.5 1.6 -0.1 1.8 -0.2 0.5 -0.6 -1.3 -0.3 -1.8 -1.5 -1.8 -3.9 0 -1.9 0.5 -3.4 1 -3.4 0.6 0 1 -0.7 1 -1.6 0 -0.9 1.3 -2.1 3 -2.7 3.6 -1.4 3.9 -2.7 0.5 -2.7 -2.2 0 -2.5 -0.4 -2.5 -3.5 0 -1.9 0.5 -3.5 1 -3.5 0.6 0 1 -1.1 1 -2.5 0 -1.6 0.6 -2.5 1.5 -2.5 0.8 0 1.5 -0.9 1.5 -2 0 -1.5 0.7 -2 2.5 -2 3.1 0 3.3 -1.7 0.4 -2.2 -3.5 -0.5 -9.9 6.6 -9.9 10.9 0 2.3 -0.8 4.1 -2.5 5.7 -2.9 2.7 -3.1 3.6 -0.9 3.6 1.2 0 1.4 0.9 1.2 3.8 -0.2 3 -0.7 3.8 -2.6 4 -1.9 0.3 -2.2 0.9 -2.2 5.3 0 3.6 -0.4 5.1 -1.5 5.6 -2.2 0.8 -2.7 0 -3.2 -5.1 -1.3 -11.5 4.4 -26.3 13.4 -34.6 7.6 -7 12 -9.3 22.7 -12 3.9 -0.9 7.2 -2.2 7.4 -2.8 0.6 -2 -7.9 -3.5 -16.8 -2.9 -9.5 0.6 -16 2.6 -23.8 7.4 -5.9 3.7 -6.9 3.1 -5.9 -3.2 0.5 -2.8 0.2 -3.5 -1 -3.5 -1.3 0 -1.5 -0.9 -1.1 -5 0.4 -4.4 0.3 -5 -1.3 -5 -1.1 0 -1.9 0.5 -1.9 1 0 0.6 -0.7 1 -1.6 1 -3.2 0 -4.8 2.8 -4.5 8.3 0.1 2.2 0.6 2.7 2.5 2.7 2.6 0 3.6 1.6 3.6 6.1 0 2 0.5 2.9 1.6 2.9 1.1 0 0 1.9 -3.4 5.8 -5.3 6.1 -9.5 13 -10.6 17.5 -1.8 7.4 -4.6 -0.8 -4.6 -13.9 0 -9.8 1.5 -16.2 6 -26 9.2 -19.6 33.9 -32.5 57.4 -29.9 5.6 0.6 6.6 1 6.6 2.6 0 1 0.7 1.9 1.5 1.9 0.8 0 1.5 0.9 1.5 1.9 0 1.1 0.5 2.3 1 2.6 0.6 0.3 1 2.2 1 4.1 0 1.9 -0.4 3.4 -1 3.4 -0.5 0 -1 0.5 -1 1 0 0.6 0.7 1 1.5 1 0.8 0 1.5 -0.4 1.5 -1 0 -0.5 1 -1 2.3 -1 1.5 0 1.8 -0.3 0.9 -0.9 -0.9 -0.5 -1.2 -2.5 -1 -6.2 0.3 -4.5 0.6 -5.4 2.2 -5.4 3.6 0 2.7 -2.2 -3.4 -7.9 -10.3 -9.4 -21 -13.8 -34.5 -14 -9.5 -0.1 -19 1.8 -26.3 5.1 -2.9 1.4 -5.5 2.3 -5.7 2.1 -1.1 -1.1 6.7 -14.9 11.2 -19.8 4.9 -5.4 15 -12.1 22.2 -14.8 2 -0.8 7.6 -2.1 12.4 -2.9 7.8 -1.3 9.8 -1.3 17.7 0 12.6 2.2 20.5 6.4 30.2 15.9 4.3 4.2 7.8 8.1 7.8 8.7 0 0.6 1.1 2.8 2.3 4.9 2.5 3.9 4.8 10 5.4 14.2 0.1 1.4 0.9 6.3 1.7 11 0.8 4.7 1.5 10.6 1.5 13.2 0.1 5.5 1.1 6.4 5.2 4.8 1.6 -0.7 3.2 -1 3.5 -0.8 0.2 0.3 0.7 2.8 1.1 5.6 l0.6 5 -4.4 0.8 c-2.4 0.4 -3.6 0.9 -2.6 1.2 3.1 0.6 1.2 11.2 -2 11.2 -0.7 0 -2 1.4 -2.9 3.2 -1.8 3.4 -8.9 10.8 -10.5 10.8 -0.5 0 -0.9 0.5 -0.9 1 0 0.6 0.7 1 1.5 1 1 0 1.5 1 1.5 3.4 0 3.3 -0.2 3.5 -3.6 3.8 -2.4 0.2 -4.1 1 -4.8 2.3 -1.6 2.8 -4.9 5.4 -6.8 5.5 -1.3 0 -1.8 0.8 -1.8 2.9 0 1.9 -0.8 3.5 -2.1 4.5 -4.2 2.9 -0.2 13.6 5.1 13.6 1 0 2.3 0.7 3 1.5 0.7 0.8 2.3 1.5 3.6 1.5 2.1 0 2.4 0.5 2.4 3.4 0 2.1 0.6 3.6 1.5 4 0.9 0.3 1.5 1.9 1.5 4.1 0 3.3 -0.2 3.5 -3.5 3.5 -2.2 0 -3.8 -0.6 -4.1 -1.5z m-45.4 -49.5 c0 -1.7 -0.7 -2 -4 -2 -5 0 -5.2 1.3 -0.2 2.7 2 0.6 3.8 1.1 4 1.2 0.1 0 0.2 -0.8 0.2 -1.9z m22 -14 c0 -1.7 0.7 -2 5 -2 4.3 0 5 -0.3 5 -2 0 -1.1 -0.4 -2 -0.9 -2 -0.5 0 -1.4 -1.4 -2 -3 -1 -3 -1.1 -3 -3.4 -1.6 -1.3 0.9 -3.3 2.7 -4.5 4.1 -2.6 2.9 -3 8.5 -0.7 8.5 0.8 0 1.5 -0.9 1.5 -2z"/>
  <path d="M182 325.5 c0 -3.3 0.2 -3.5 3.5 -3.5 2.8 0 3.5 -0.4 3.5 -1.9 0 -2.1 1.9 -3.1 6.1 -3.1 2.6 0 2.9 0.3 2.9 3.3 0 4.8 -1.2 6 -5.4 5.5 -3 -0.3 -3.6 -0.1 -3.6 1.4 0 1.4 -0.8 1.8 -3.5 1.8 -3.3 0 -3.5 -0.2 -3.5 -3.5z"/>
  <path d="M52.6 322.2 c-3.6 -5.3 -3.5 -8.2 0.4 -8.2 l3 0 0 6 c0 3.3 -0.2 6 -0.4 6 -0.2 0 -1.5 -1.7 -3 -3.8z"/>
  <path d="M174 312 c0 -1.5 -0.6 -2 -2.5 -2 -2.2 0 -2.5 -0.4 -2.5 -3.5 0 -3.3 0.2 -3.5 4 -4.1 2.2 -0.4 4 -1 4 -1.5 0 -0.5 1.6 -0.9 3.5 -0.9 3.2 0 3.5 0.2 3.5 3 0 1.7 0.5 3 1.1 3 0.6 0 0.9 1.6 0.7 3.8 l-0.3 3.7 -5.7 0.3 c-5.3 0.3 -5.8 0.1 -5.8 -1.8z"/>
  <path d="M201 310.6 c0 -1 -1.2 -1.2 -5 -0.8 l-5 0.5 0 -4.2 c0 -2.2 -0.4 -4.1 -1 -4.1 -0.5 0 -1 -1.6 -1 -3.5 0 -1.9 0.5 -3.5 1 -3.5 0.6 0 1 -0.6 1 -1.4 0 -0.8 0.7 -1.6 1.5 -2 0.8 -0.3 1.5 -1.5 1.5 -2.6 0 -1.6 0.7 -2 3 -2 1.7 0 3 -0.4 3 -0.9 0 -1.5 11.3 -2.6 11.8 -1.2 0.2 0.6 1.2 1.1 2.3 1.1 1.5 0 1.9 0.7 1.9 3.5 0 3.3 -0.2 3.5 -3.5 3.5 -1.9 0 -3.5 -0.4 -3.5 -0.9 0 -0.7 -6.9 -0.4 -7.6 0.3 -0.8 0.8 -1.1 6.6 -0.4 6.6 0.6 0 1 -1.1 1 -2.5 0 -2.2 0.4 -2.5 3.5 -2.5 3.3 0 3.5 0.2 3.5 3.4 0 2.4 -0.5 3.6 -1.7 3.9 -1.4 0.4 -1.2 0.5 0.5 0.6 1.8 0.1 2.2 0.7 2.2 3.6 0 1.9 -0.4 3.5 -1 3.5 -0.5 0 -1 0.7 -1 1.5 0 1 -1.1 1.5 -3.5 1.5 -2.3 0 -3.5 -0.5 -3.5 -1.4z"/>
  <path d="M304.2 264.3 c-0.6 -1.6 -1.4 -4.3 -1.7 -6 -0.6 -2.8 -1.1 -3.3 -3.6 -3.3 -1.6 0 -2.9 -0.4 -2.9 -0.9 0 -0.5 -1.3 -1.4 -3 -2.1 -2.5 -1 -3.2 -1 -4.5 0.4 -1 0.9 -3.3 1.6 -5.6 1.6 -3.2 0 -3.9 0.3 -3.9 2 0 1.6 -0.7 2 -3.6 2 -3.6 0 -3.6 0 -3.2 -4 0.4 -4.4 0.7 -4.2 -8.2 -6 -3.9 -0.7 -6.1 -1.8 -7.4 -3.5 -1 -1.4 -2.4 -2.5 -3.1 -2.5 -0.7 0 -1.8 -0.7 -2.5 -1.5 -0.7 -0.9 -2.9 -1.5 -5.1 -1.5 -3.2 0 -3.9 -0.3 -3.9 -2 0 -1.3 -0.9 -2.2 -2.5 -2.6 -2.9 -0.7 -2.9 -0.9 -2.8 -22.7 0 -11.8 0.2 -12.9 2.2 -14.6 2 -1.7 2.1 -2.5 1.5 -8 l-0.7 -6.1 3.7 0 c3.5 0 3.6 0.1 3.6 3.5 0 1.9 0.5 3.5 1 3.5 0.6 0 1 0.8 1 1.8 0.1 2.2 2.3 5.2 3.9 5.2 1.9 0 4.1 2.6 4.1 4.8 0 2.2 2.6 3 12.3 3.9 4 0.3 5.7 0.9 5.7 1.9 0 0.8 1 1.4 2.5 1.4 1.8 0 2.5 -0.5 2.5 -1.9 0 -1.1 0.8 -2.2 1.8 -2.4 1 -0.3 0.6 -0.5 -1 -0.6 -2.5 -0.1 -2.8 -0.5 -2.8 -3.6 0 -2.3 0.5 -3.5 1.4 -3.5 1 0 1.2 -1.1 0.9 -4.4 -0.3 -2.6 -0.1 -4.6 0.6 -5 0.6 -0.4 1.1 -2.3 1.1 -4.2 0 -3.1 0.2 -3.4 3 -3.4 1.7 0 3 -0.4 3 -1 0 -0.5 1.4 -1 3 -1 2.6 0 3 -0.4 3 -2.8 0 -2.6 0.4 -3 5.4 -4.2 2.9 -0.7 8.1 -1.1 11.5 -0.8 5.8 0.4 6.1 0.3 6.1 -1.9 0 -3.4 1.9 -2.8 3.6 1.2 2.2 5.3 0.8 6.1 -10.1 6.1 -7.4 0 -9.8 0.4 -13.2 2.2 -5.3 2.8 -12.3 9.4 -12.3 11.5 0 0.9 1.8 2.6 3.9 3.7 7.5 3.7 8.3 8.6 2.5 14.1 -1.3 1.2 -2.4 2.7 -2.4 3.3 0 0.6 1.8 2.9 4.1 5.1 4.4 4.3 8.9 12.1 8.9 15.6 0 1.3 2.9 4.9 7.9 9.8 7.1 6.9 16.1 19.7 16.1 22.9 0 0.7 -1.1 1.2 -2.5 1.2 -1.4 0 -2.5 -0.4 -2.5 -1 0 -0.5 -1.6 -1 -3.5 -1 -2.3 0 -3.5 0.5 -3.5 1.4 0 1.7 -2.1 2.6 -6 2.6 -2.1 0 -3 -0.7 -3.8 -2.7z m-23.8 -26.3 c2 -2.2 3.6 -5 3.6 -6.3 0 -1.3 -1.9 -4.1 -4.5 -6.8 l-4.5 -4.7 -9.3 -0.4 c-6 -0.3 -10.3 -1 -12.4 -2.1 -4.1 -2.2 -4.1 -1.3 -0.3 6.2 4.6 9.3 14.7 17.3 22.6 18 0.7 0.1 2.8 -1.7 4.8 -3.9z"/>
  <path d="M263 195.1 c0 -1.4 -0.6 -2.1 -1.9 -2.1 -1.1 0 -2.3 -0.9 -2.6 -2 -0.4 -1.4 -1.5 -2 -3.6 -2 -2.7 0 -2.9 -0.3 -2.9 -3.5 0 -2.8 0.4 -3.5 1.9 -3.5 1.1 0 2.6 -0.7 3.5 -1.5 0.8 -0.8 1.9 -1.5 2.5 -1.5 0.6 0 1.1 -0.4 1.1 -0.9 0 -0.5 1.5 -1.4 3.3 -2.2 1.7 -0.7 4.4 -2.1 5.9 -3.1 1.7 -1.2 4 -1.8 6 -1.6 3.1 0.3 3.3 0.6 3.5 4.3 0.1 2.2 0 3.4 -0.3 2.8 -0.3 -0.7 -1 -1.3 -1.5 -1.3 -2.2 0 -15.9 7.3 -15.9 8.5 0 1.4 9 6.5 11.4 6.5 0.9 0 1.9 -0.7 2.2 -1.5 1.1 -2.7 2.4 -1.6 2.4 2 0 3 -0.3 3.5 -2.2 3.5 -1.3 0 -4.7 0.3 -7.5 0.6 -4.9 0.6 -5.3 0.5 -5.3 -1.5z"/>
  <path d="M156.9 180.8 c1 -3.5 3.7 -11 6 -16.7 2.3 -5.7 4 -10.9 3.8 -11.5 -0.3 -0.6 -3.7 -2.2 -7.7 -3.4 -17.4 -5.4 -29.5 -19 -27.2 -30.7 0.9 -5 8.2 -10.2 17.5 -12.6 2.6 -0.6 4.7 -1.6 4.7 -2.2 0 -0.5 -0.8 -2.4 -1.9 -4.1 -3.4 -5.7 -4.4 -10.2 -3 -14.4 2.3 -7.1 9.4 -11.3 20.5 -12 8.2 -0.5 14.5 0.8 21.2 4.5 3.8 2 7.2 3 7.2 1.9 0 -0.2 -0.7 -2.3 -1.5 -4.6 -1.7 -4.9 -1.9 -10.3 -0.5 -13.1 2.6 -4.7 10.5 -6.1 19.3 -3.4 11.3 3.4 21 11.4 27.7 22.8 1.9 3.1 3.8 5.7 4.2 5.7 1.3 0 4.5 -7.4 5.3 -12 1.5 -10 2.2 -10.2 10.3 -2.2 11.3 11 16.2 27.7 12.8 43.7 -0.9 4.4 -3 10.7 -4.6 13.9 -3 6 -3.1 7.6 -0.3 7.6 1.2 0 1.4 0.7 0.9 3.1 -0.3 1.7 -0.6 3.8 -0.6 4.5 0 0.9 -1.2 1.4 -3.5 1.4 -3.5 0 -3.5 0 -3.5 -4.5 0 -2.5 -0.4 -4.5 -1 -4.5 -0.5 0 -1 -0.8 -1.1 -1.7 0 -1.1 -0.3 -1.3 -0.6 -0.5 -0.2 0.6 -1.6 1.2 -2.9 1.2 -1.9 0 -2.4 0.5 -2.4 2.5 0 2.2 -0.4 2.5 -3.4 2.5 -3.5 0 -8.6 -3.5 -8.6 -5.9 0 -0.6 -1.7 -1.1 -4 -1.1 -3.6 0 -4 -0.3 -4 -2.5 0 -2.1 -0.8 -2.7 -6.9 -4.5 -7.6 -2.2 -11.1 -2.5 -11.1 -0.9 0 0.7 -1.5 1 -4 0.7 -2.2 -0.2 -4 0 -4 0.4 0 0.5 -2 0.8 -4.4 0.8 -5.7 0 -7.6 0.8 -7.6 3.1 0 1.1 -1.8 3.7 -4 5.8 -3.3 3.1 -4 4.5 -4 7.5 0 2.2 -0.5 3.9 -1.4 4.2 -0.8 0.3 -1.7 1.6 -2 2.9 -0.4 1.6 -1.4 2.5 -3.3 2.7 -2.6 0.3 -2.8 0.6 -2.5 4.6 0.3 3.6 0.1 4.2 -1.6 4.2 -3.1 0 -5.2 1.1 -5.2 2.6 0 0.8 -0.9 1.4 -1.9 1.4 -1.6 0 -2.1 1.2 -3.2 7 -0.8 4.6 -1.7 7 -2.6 7 -0.7 0 -1.3 1.1 -1.3 2.5 0 2.3 -0.3 2.5 -4.9 2.5 l-5 0 1.8 -6.2z m26.1 -52.4 c2.7 -2.8 8.2 -6.4 13.9 -9.2 l9.4 -4.7 14.1 0 c13.9 0 14.2 0.1 21.1 3.3 3.8 1.8 7.2 3.6 7.5 4 0.3 0.4 1.9 1.6 3.5 2.8 3.5 2.4 4.1 2 6.7 -4.1 4.1 -9.5 4.6 -18 1.7 -26.3 l-1.1 -3.2 -2.5 4.8 c-4.1 7.8 -8 11.2 -12.8 11.2 l-4 0 -2.4 -7.1 c-4.2 -12.2 -16.3 -25.6 -25.7 -28.3 l-2.1 -0.7 2 5.8 c1.4 4.3 2 8.6 2.1 16.8 l0.1 11 -4.3 0.3 c-3.5 0.3 -4.8 -0.1 -6.5 -2 -6.6 -7.1 -21.5 -15.7 -29.8 -17.2 -4.2 -0.7 -11.3 1.4 -11.7 3.6 -0.4 2 7.6 12.4 13.2 17.1 3.8 3.2 4.6 4.5 4.6 7.2 0 2.1 -0.6 3.5 -1.6 3.9 -0.9 0.3 -6.6 0.6 -12.7 0.6 -11.1 0 -19.7 1.9 -19.7 4.3 0 1.6 8.1 8.7 12.5 11 2.2 1.1 6.7 2.6 10 3.2 5.8 1.1 6.1 1 8 -1.3 1.1 -1.3 4 -4.4 6.5 -6.8z"/>
  <path d="M310.2 161.5 c-1.1 -1.4 -2.4 -2.5 -3 -2.5 -0.5 0 -1.2 -0.7 -1.6 -1.5 -0.3 -0.8 -1.2 -1.5 -2.1 -1.5 -1.1 0 -1.5 -1 -1.5 -3.5 0 -1.9 0.4 -3.5 0.9 -3.5 2 0 8.6 5.9 12.5 11.3 l2.8 3.7 -3 0 c-2.1 0 -3.7 -0.8 -5 -2.5z"/>
 </g>
 <g fill="#040606">
  <path d="M97.5 500 c-0.3 -0.5 -2.1 -1 -3.9 -1 -3.1 0 -3.4 -0.3 -4.1 -3.6 -0.8 -4.4 0 -5.8 1 -1.6 0.3 1.7 1.3 3.3 2.2 3.6 1.1 0.4 1.4 0.2 0.9 -0.9 -0.4 -1.1 0.2 -1.5 2.2 -1.6 2.4 -0.1 2.2 -0.2 -1 -1.1 -3.5 -0.9 -3.8 -1.3 -3.8 -4.5 0 -1.9 -0.3 -3.2 -0.8 -2.9 -0.4 0.2 -0.3 -2.7 0.2 -6.4 0.9 -6.8 1 -6.9 4.9 -8.5 2.8 -1.1 4.2 -1.3 4.7 -0.5 0.4 0.6 1.2 0 2 -1.6 0.8 -1.4 2.7 -3.7 4.3 -5 3 -2.5 2.9 -3.2 -0.2 -1.2 -1.5 0.9 -2.2 0.8 -3.6 -0.5 -1.5 -1.6 -1.5 -1.7 0.9 -1.7 2 0 2.6 -0.5 2.6 -2.2 0 -1.9 -0.2 -2 -1 -0.8 -0.5 0.8 -1 1 -1 0.4 0 -0.6 0.7 -1.7 1.5 -2.4 2.1 -1.7 1.9 -2.9 -1.1 -5.7 -2.6 -2.4 -4.4 -2.3 -4.4 0.3 0 0.8 -0.7 1.4 -1.6 1.4 -1.2 0 -1.4 -1.1 -1 -6.2 1.1 -14.6 1.9 -20.8 2.9 -20.8 0.5 0 0.6 -0.7 0.3 -1.6 -0.3 -0.8 -0.2 -1.2 0.4 -0.9 0.6 0.3 1 0.1 1 -0.4 0 -0.6 -0.6 -1.1 -1.2 -1.1 -0.9 0 -0.8 -0.4 0.2 -1 0.8 -0.5 1.1 -1 0.7 -1 -0.5 0 0 -1.1 1.1 -2.5 l2 -2.6 -3.3 -4.9 c-5.7 -8.5 -7.8 -16.5 -7.8 -30.4 0 -11.6 2 -23.4 4.4 -26.1 0.5 -0.5 0.9 -1.5 0.9 -2.2 0 -1.8 7.6 -14 12.1 -19.5 4.1 -4.9 5.1 -9.4 2.3 -10.5 -0.9 -0.3 -2 0 -2.5 0.8 -0.7 1.1 -0.9 1 -1 -0.6 -0.1 -1.1 -0.1 -2.8 0 -3.7 0.2 -1.2 -0.5 -1.8 -1.8 -1.8 -2.5 0 -7.1 -2 -7.1 -3.2 0 -0.4 -0.6 -0.8 -1.4 -0.8 -0.8 0 -1.6 -0.7 -2 -1.5 -0.5 -1.3 -0.2 -1.3 1.7 -0.1 1.4 0.8 3.1 1 4.7 0.6 2.5 -0.8 2.5 -0.8 0.2 -0.9 -1.5 -0.1 -2.6 -0.9 -2.9 -2 -0.3 -1.1 -1.4 -2.1 -2.5 -2.3 -2 -0.3 -2 -0.4 0.3 -2.3 1.9 -1.7 2.2 -1.8 1.6 -0.2 -0.4 0.9 -0.2 1.7 0.3 1.7 0.6 0 0.9 -1.3 0.8 -2.8 -0.2 -3.2 0.9 -5.5 2.3 -4.7 0.5 0.4 0.9 -0.8 0.9 -2.5 0 -2.3 -0.6 -3.3 -2.5 -4.2 -1.4 -0.6 -2.5 -1.7 -2.5 -2.4 0 -0.6 -1.3 -1.7 -2.9 -2.2 -2.3 -0.8 -2.9 -0.8 -2.5 0.2 0.4 0.9 -1.1 1 -6.2 0.5 -5.7 -0.6 -6.9 -0.4 -8.5 1.2 -1.9 1.9 -3.6 2.3 -7.1 2 -1 -0.1 -1.8 0.4 -1.8 1.2 0 1 -0.7 1.3 -1.8 1.1 -1 -0.3 -2.9 0.7 -4.6 2.5 -1.7 1.7 -2.4 3.1 -1.8 3.1 0.7 0 1.2 0.6 1.2 1.3 0 1.3 -2.4 2.9 -6 4 -1.1 0.4 -1 0.6 0.4 0.6 1 0.1 1.6 0.6 1.3 1.4 -0.2 0.6 -1.3 3.8 -2.2 6.9 -1.1 3.2 -2.5 5.9 -3.4 6.1 -1.3 0.4 -1.3 0.5 0.2 0.6 2.3 0.1 2.2 2.7 -0.3 3.4 -3.3 0.9 -7.9 -8.3 -8.5 -17.3 -0.3 -3 -0.6 -6.7 -0.8 -8.2 -0.2 -1.6 -0.1 -2.8 0.2 -2.8 0.3 0 0.7 -1.7 0.8 -3.7 0.2 -5.7 0.6 -7.4 3.5 -12.8 3.3 -6.3 12.9 -16.3 16.6 -17.1 2.6 -0.6 2.7 -0.6 0.7 1.1 -1.1 0.9 -1.4 1.4 -0.7 1 0.6 -0.3 1.2 -0.1 1.2 0.4 0 0.6 0.9 1.1 1.9 1.1 2.2 0 3.5 3 2.6 6 -0.4 1.3 -1.5 2 -3.1 2 -1.6 0 -2.3 0.4 -1.8 1.1 0.3 0.6 1.8 0.8 3.3 0.5 2.4 -0.6 2.5 -0.5 0.8 0.8 -1.7 1.3 -1.6 1.4 0.7 1.2 1.3 0 2.2 -0.4 1.9 -0.8 -0.6 -1.2 4.2 -1 7.4 0.3 2 0.7 2.5 0.7 1.7 -0.1 -0.6 -0.6 -3 -1.4 -5.5 -1.9 l-4.4 -0.9 5 -0.1 c2.8 -0.1 5.6 0.4 6.3 1.1 0.9 0.9 1.2 0.9 1.2 -0.1 0 -0.9 0.8 -1.1 2.1 -0.8 3.8 1 5.9 -1.3 5.9 -6.4 0 -3.9 -0.3 -4.8 -2.2 -5.4 -2.2 -0.8 -2.2 -0.8 0.3 -1.2 3.5 -0.5 10.6 -7.1 11.2 -10.3 0.4 -2.5 0.4 -2.5 0.6 0.3 0.1 2.2 0.6 2.7 2.7 2.7 1.9 0 2.8 0.7 3.5 3 0.6 1.7 1.4 3 1.9 3 1.2 0 2 4 1.3 7.1 -0.5 2.7 -0.9 2.9 -5.7 3 -2.8 0.1 -4.1 0.4 -2.8 0.6 2.7 0.5 3 3.3 0.3 3.3 -1.1 0 -2.1 0.6 -2.4 1.3 -0.4 1 -0.7 0.9 -1.8 0 -1.6 -1.5 -5.9 -1.7 -5.9 -0.3 0 0.6 -0.7 1 -1.5 1 -0.8 0 -1.5 0.9 -1.5 2 0 2 1.9 2.6 7.8 2.2 1.7 -0.1 2.2 0.3 1.8 1.4 -0.4 1.1 -0.2 1.2 1.4 0.4 1 -0.5 2.7 -1 3.7 -0.9 1.6 0 1.6 0.1 -0.2 0.9 -1.6 0.7 -1.1 0.9 2.1 0.9 4.9 0.1 8.1 -2.3 9 -6.8 0.8 -3.8 2 -4.7 3.9 -3.1 1.9 1.6 1.9 3 0 3 -0.8 0 -1.5 0.8 -1.5 1.8 0 0.9 -0.3 2.8 -0.5 4.2 -0.3 1.4 -0.3 1.9 0.1 1.3 0.7 -1.6 2.4 -1.7 2.4 -0.2 0 1.2 -2.9 3.8 -4.2 3.9 -0.5 0 -0.8 -0.6 -0.8 -1.4 0 -0.8 -0.7 -1.7 -1.6 -2 -2.3 -0.9 -2.8 -0.1 -0.9 1.4 1.3 1.1 1.2 1.6 -1.2 3.8 -1.6 1.5 -3.7 2.5 -4.8 2.3 -2.2 -0.3 -4.6 -3.1 -3.8 -4.5 0.4 -0.5 0.1 -0.6 -0.6 -0.2 -1.3 0.9 -1.1 3.7 0.4 4.8 0.6 0.4 2 0.8 3.2 0.8 1.2 0 2.3 0.6 2.6 1.3 0.3 0.9 1 0.7 2.4 -0.6 1.1 -1 2.4 -1.7 2.9 -1.5 0.5 0.2 2 -0.5 3.4 -1.5 1.3 -0.9 2.1 -1.7 1.7 -1.7 -0.9 0 4.3 -7.3 5.5 -7.8 0.4 -0.2 0 -1.4 -0.8 -2.8 -1.5 -2.2 -1.5 -2.4 0.2 -2.5 1.1 -0.1 2.3 -0.1 2.7 0 0.5 0.1 0.7 -1.4 0.6 -3.3 -0.2 -1.9 0 -3.8 0.4 -4.2 0.4 -0.4 0.7 -1.7 0.7 -3 0 -1.2 0.7 -2.5 1.6 -2.8 2.4 -0.9 5.4 -0.7 5.4 0.4 0 0.6 -1 0.8 -2.4 0.4 -1.9 -0.4 -2.4 -0.1 -2.8 2 -0.3 1.3 -0.2 3 0.3 3.7 0.4 0.7 0 2.4 -0.9 3.8 -0.8 1.4 -1.1 2.2 -0.5 1.6 0.6 -0.5 2 -2.6 3.1 -4.5 1.1 -1.9 2.5 -3.4 3.2 -3.2 0.6 0.1 0.9 -0.2 0.5 -0.8 -0.3 -0.5 -0.1 -1 0.5 -1 0.8 0 0.8 -0.6 0 -2 -0.7 -1.3 -2.1 -2 -4 -2 -2.7 0 -3 -0.3 -3 -3.1 0 -3.2 3 -6.9 5.7 -6.9 0.7 0 1.3 -0.4 1.3 -0.9 0 -1.1 -3.9 -0.3 -5.8 1.2 -1.5 1.2 -1.8 0.9 -3 -2.3 -0.7 -1.9 -0.4 -3.3 1.6 -6.3 2.4 -3.5 2.6 -3.7 4.3 -2.1 1.2 1.1 1.7 2.5 1.3 4 -0.4 1.6 0 2.5 1.5 3.4 1.4 0.7 2.1 0.7 2.1 0 0 -0.5 -0.7 -1 -1.5 -1 -1.7 0 -2 -2.5 -0.5 -3.5 0.6 -0.3 1 -2.1 1.1 -3.8 0 -1.8 0.3 -2.6 0.6 -1.9 0.2 0.6 1 1.2 1.7 1.2 0.6 0 1.7 1.4 2.3 3 1 2.7 0.9 3 -0.8 3 -1.1 0 -1.8 -0.4 -1.4 -0.9 0.3 -0.5 0.1 -1.2 -0.5 -1.6 -0.6 -0.3 -1 0.3 -1 1.6 0 2 0.4 2.1 4.3 1.5 3.7 -0.5 4 -0.4 2.5 0.8 -2.5 1.9 -2.2 3.4 0.5 2.9 1.9 -0.4 2.3 -1 1.9 -2.9 -0.3 -1.6 -1.1 -2.4 -2.6 -2.5 -2.1 0 -2.1 0 0.2 -1.1 1.7 -0.8 2.2 -2 2.2 -4.7 0.1 -10.1 5.1 -41.5 7.9 -49.1 0.5 -1.4 1.2 -3.8 1.6 -5.4 0.7 -3.3 1.5 -2.8 3.1 1.7 l1.1 3.2 0.5 -3.3 c0.3 -2.2 0 -3.2 -0.8 -3.2 -1 0 -1.1 -0.7 -0.3 -3 0.6 -1.6 1.4 -2.8 1.7 -2.6 0.4 0.2 1.5 -0.7 2.5 -2 1.7 -2.3 1.7 -2.3 0 -1.7 -1 0.4 -2.1 1.1 -2.4 1.6 -0.4 0.5 -0.6 -0.6 -0.4 -2.4 0.4 -4.9 0.4 -4.9 1.6 -4.9 0.6 0 1.7 -0.6 2.5 -1.4 1.6 -1.6 1.9 -4 0.4 -3.1 -1.3 0.8 -1.3 -1.1 0.2 -5.1 0.6 -1.8 2.2 -3.8 3.5 -4.5 1.3 -0.7 2.3 -1.6 2.3 -2.1 0 -1.4 3.8 -0.9 4.3 0.6 0.7 1.9 -0.1 2.6 -3.2 2.6 -3.5 0 -4.9 1 -5.4 4 -0.2 1.4 -0.2 1.9 0 1.2 0.8 -2.3 3.8 -0.8 4.1 2.1 0.3 2.2 0 2.6 -1.5 2 -1.5 -0.6 -1.6 -0.5 -0.3 0.9 2 2.1 3 1.3 3 -2.3 0 -2 0.5 -2.9 1.6 -2.9 0.8 0 1.2 -0.4 0.9 -1 -0.3 -0.5 -0.1 -1 0.4 -1 0.6 0 1 -0.3 0.9 -0.7 -0.4 -1.7 1.4 -5.3 2.8 -5.3 0.8 0 1.4 -0.4 1.4 -1 0 -0.5 0.7 -1 1.5 -1 0.8 0 1.5 0.5 1.5 1.1 0 0.5 0.5 0.7 1.1 0.3 0.8 -0.5 0.6 -1.2 -0.7 -2.3 -1.1 -0.9 -1.7 -1.5 -1.5 -1.4 0.2 0.1 1.9 -1.8 3.8 -4.2 1.8 -2.5 4.2 -4.9 5.3 -5.5 1.1 -0.6 2 -1.5 2 -2.1 0 -0.6 -0.4 -0.7 -1 -0.4 -2.1 1.3 -0.9 -0.7 2.4 -3.8 1.8 -1.8 3.9 -3.1 4.6 -2.9 0.8 0.3 1 0 0.5 -0.8 -0.5 -0.9 -0.4 -1.1 0.3 -0.6 0.7 0.4 1.2 1.4 1.2 2.2 0 1.8 2.7 1.8 4.6 0 1 -1.1 2.2 -1.2 4.5 -0.6 2.6 0.8 2.9 0.7 1.9 -0.5 -1 -1.2 -0.9 -1.5 0.3 -1.5 0.8 0 1.7 -0.3 2 -0.7 0.2 -0.5 0.3 -0.3 0.1 0.3 -0.1 0.6 1.5 1.1 4 1.1 3.5 0.1 7.3 1 17.6 4 1 0.3 0.8 -0.1 -0.4 -1.1 -1.7 -1.3 -1.7 -1.6 -0.4 -1.6 0.9 0 2.4 0.7 3.2 1.6 0.9 0.8 1.6 1.1 1.6 0.5 0 -0.6 0.6 -0.8 1.4 -0.5 0.8 0.3 1.2 1.3 0.9 2.2 -0.4 1.3 -0.2 1.4 0.4 0.4 0.8 -1 1.2 -1 2.3 0.3 0.7 0.8 2.2 1.5 3.4 1.5 2 -0.1 2 -0.1 -0.4 -2 -1.4 -1.1 -3 -2.4 -3.6 -2.9 -0.6 -0.5 -2.4 -1.6 -4 -2.5 -1.6 -1 -2.1 -1.5 -1.1 -1.2 1 0.3 3.4 0.6 5.2 0.6 2.7 0 3.4 0.4 3.7 2.3 0.4 2.9 4 3.4 6.5 0.9 1 -1 2.6 -2.2 3.6 -2.5 1.2 -0.4 1.7 -1.7 1.7 -4.1 0 -2.2 0.6 -3.6 1.6 -4 1.3 -0.5 1.4 -0.1 0.9 2.7 -0.4 1.7 -1.3 4.3 -1.9 5.7 -0.7 1.4 -1.1 3.4 -0.8 4.4 0.3 1.4 0 1.7 -1.1 1.3 -1.1 -0.4 -1.4 -0.1 -1.1 0.7 0.3 0.8 1.6 1.6 2.9 1.8 2.1 0.4 2.2 0.2 1.5 -2.3 -0.9 -2.9 0.3 -4.9 2.8 -4.9 1.1 0 1.3 -0.9 0.9 -3.5 -0.3 -1.9 -0.2 -3.5 0.1 -3.5 1.4 0 4.2 -5.8 4.3 -8.7 0 -2.7 0.1 -2.7 0.9 -0.5 0.5 1.2 1.4 2.2 2 2.2 0.5 0 1 0.7 1 1.5 0 0.8 -0.7 1.5 -1.5 1.5 -1.8 0 -2 2 -0.2 2.1 0.6 0 0.3 0.4 -0.8 0.9 l-2 0.9 2 0.1 2 0.1 -2 0.9 c-1.1 0.5 -1.4 0.9 -0.7 0.9 2.1 0.2 1.3 4.1 -1 5.1 -1.3 0.5 -1.7 0.9 -1 0.9 1.6 0.1 1.5 3.1 -0.3 6.8 -1 1.9 -2.2 3 -3.3 2.8 -0.9 -0.1 -1.1 0 -0.4 0.2 0.7 0.3 1.1 1.1 1 1.9 -0.2 1.2 1 1.6 5.4 1.9 7.1 0.4 13.8 2.5 24.6 7.8 5.7 2.7 8.1 4.4 7.8 5.3 -0.5 1.2 1.1 1.9 3.6 1.5 0.4 0 0.5 0.6 0.2 1.4 -0.4 1.1 0.1 1.5 1.7 1.5 1.2 0 1.9 0.3 1.6 0.6 -0.4 0.4 0.9 2.4 2.8 4.5 1.9 2.1 3.8 5.1 4.1 6.6 0.4 1.4 1.3 3.8 2 5.2 0.7 1.3 1.1 2.8 0.9 3.1 -0.6 1 -5.5 0 -5.5 -1 0 -0.5 -0.9 -0.6 -2.1 -0.3 -1.2 0.4 -2.5 0 -3 -0.8 -0.6 -1 -0.9 -1 -0.9 -0.2 0 0.9 -0.7 1 -2.6 0.3 -2.6 -1 -7.4 -0.4 -7.4 1 0 0.5 -0.9 0.6 -2 0.3 -1.3 -0.4 -2 0 -2 1 0 1.9 -8 7.2 -10.5 6.9 -1.6 -0.2 -1.7 -0.1 -0.6 0.7 1.2 0.8 1.1 1.5 -0.7 4.5 l-2.1 3.5 3.3 0.6 c3.6 0.7 8.6 4.8 8.6 7 0 2.5 -1.2 4.4 -2.5 3.9 -0.7 -0.3 -2.5 0.6 -4 2 l-2.7 2.5 3 3.2 c1.7 1.8 2.8 3.8 2.5 4.6 -0.3 0.8 0.2 1.3 1.3 1.4 1.7 0 1.7 0.1 0.2 0.7 -1.5 0.6 -1.5 0.9 -0.1 2.7 1.3 1.6 1.5 1.7 1 0.3 -0.8 -2.4 1.5 -2.4 3.5 0 2 2.3 3 5.2 1.8 5.2 -0.6 0 -1 0.5 -1 1 0 0.6 0.7 1 1.5 1 1.8 0 2 3.6 0.3 4.3 -1 0.4 -0.9 0.8 0.2 1.6 1.3 0.9 1.3 1.1 -0.1 1.1 -1.9 0 -3.3 -2.6 -2.2 -4.2 0.4 -0.7 0.1 -0.8 -0.7 -0.3 -0.9 0.5 -1 0.2 -0.5 -1.4 0.4 -1.3 0.2 -2.1 -0.5 -2.1 -0.7 0 -1 -0.6 -0.7 -1.2 0.3 -0.8 -0.4 -1.3 -1.7 -1.3 -1.8 0 -2.1 0.5 -1.8 3 0.3 2.3 0.1 2.7 -0.7 1.5 -0.6 -0.8 -1.1 -2.9 -1.1 -4.7 0 -2.2 -1 -4.2 -3.5 -6.7 -3.4 -3.5 -7.1 -5.3 -4.6 -2.2 0.9 1.1 0.9 1.6 0 2.2 -0.7 0.4 -0.9 0.3 -0.6 -0.3 0.4 -0.6 0 -1.3 -0.8 -1.6 -0.9 -0.4 -1.2 -0.1 -0.8 0.9 0.3 0.7 0.2 1.4 -0.1 1.4 -0.4 0 -1.1 -1.2 -1.6 -2.6 -1 -2.5 -1.3 -2.6 -7.9 -2.2 -4.6 0.2 -6.7 0 -6.3 -0.7 1.4 -2.2 0.9 -3.2 -1.6 -2.7 -1.7 0.3 -2.3 0.1 -1.8 -0.6 0.5 -0.8 0.1 -1 -1 -0.5 -1.2 0.4 -1.5 0.3 -1 -0.5 0.9 -1.5 -1.6 -1.6 -3.1 -0.1 -0.8 0.8 -1.7 0.8 -3.2 0 -1.7 -1 -2.1 -0.9 -2.1 0.4 0 1 -0.5 1.4 -1.2 1 -0.7 -0.4 -0.2 0.3 1.2 1.4 2 1.7 2.2 2.1 0.8 2.1 -1 0 -1.8 0.7 -1.8 1.5 0 0.8 -0.7 1.5 -1.5 1.5 -1.4 0 -2 -1.8 -1.6 -4.8 0.1 -0.8 -0.7 -1.6 -1.8 -1.9 -1.4 -0.4 -2.1 -1.4 -2.2 -3.2 -0.1 -2.1 -0.2 -2.2 -0.6 -0.6 -0.3 1.1 -0.9 2.5 -1.3 3 -0.5 0.6 -0.8 2.4 -0.8 4.1 0.1 2.4 0.5 3 1.8 2.7 1.1 -0.3 1.7 0.2 1.7 1.4 -0.1 5 0.4 7.4 1.3 6.8 1.3 -0.8 0.8 1.7 -0.5 2.7 -1 0.7 11.3 12.7 13.1 12.8 0.6 0 2 1.1 3 2.5 1.3 1.7 3.5 2.8 7.2 3.6 6.6 1.3 8.2 0.4 1.9 -1.2 -3.2 -0.8 -6.4 -2.8 -10.6 -6.6 -3.4 -3 -6.1 -6 -6.1 -6.6 0 -0.6 1.5 0.3 3.3 2.1 1.8 1.8 3.7 3.2 4.2 3.2 0.5 0 2 1.2 3.3 2.8 2.3 2.6 2.8 2.7 11.3 2.7 l9 0 -2.5 2.2 c-1.7 1.4 -2.5 3.1 -2.4 4.7 0.2 2.2 0.6 2.5 3.3 2.1 1.6 -0.2 3.4 -0.4 3.8 -0.4 0.5 -0.1 0.6 -0.4 0.4 -0.8 -0.3 -0.5 -0.1 -1.7 0.4 -2.8 0.6 -1.7 0.8 -1.7 0.8 -0.2 0.1 1.8 3.1 2.5 3.1 0.6 0 -1.2 3.7 -0.2 5.7 1.5 4.7 4.1 4.7 4.1 3.9 1.3 -0.5 -2.1 -0.3 -2.5 0.9 -2.1 0.8 0.4 1.4 1.4 1.3 2.3 -0.2 1.1 0.3 1.5 1.5 1.3 1 -0.2 2.5 0.2 3.2 0.8 1.1 0.9 1.2 0.7 0.8 -0.8 -0.2 -1.1 -1.6 -2.5 -3 -3.1 -3.3 -1.5 -2.4 -3.7 1.2 -3.3 2.6 0.4 2.8 0.2 1.6 -1.2 -0.7 -0.9 -2 -1.6 -2.7 -1.6 -0.8 0 -1.4 -0.5 -1.4 -1.1 0 -0.5 -1.6 -1.7 -3.5 -2.5 -2.6 -1 -3.5 -2 -3.4 -3.7 l0 -2.2 0.9 2.3 c0.8 2 2.8 2.8 5.5 2.2 0.6 -0.1 0.7 0.2 0.3 0.6 -1.1 1 6.4 6.3 8.1 5.6 0.9 -0.3 1.2 -0.1 0.7 0.6 -0.4 0.8 0 1.2 1.1 1.2 1.7 0.1 1.6 0.2 -0.2 1.7 -1.4 1.1 -1.5 1.4 -0.4 1 1.1 -0.4 2 0.3 2.8 1.9 0.6 1.3 1.7 2.4 2.5 2.4 1 0 1.3 0.6 1 1.5 -0.4 1 0 1.5 1.2 1.5 0.9 0 1.5 0.3 1.2 0.6 -0.4 0.3 0.1 1.4 1 2.4 3.3 3.7 3.8 4.6 4.9 9 2.1 8.3 2.2 8.9 0.4 9.3 -1.4 0.4 -1.4 0.5 0.2 0.6 1.3 0.1 1.7 1 1.7 4 0 2.2 -0.6 4.2 -1.2 4.5 -1 0.5 -1 0.7 0 1.2 1.7 0.8 1.5 4.4 -0.3 4.4 -1.8 0 -2 3.6 -0.2 4.3 1.4 0.6 -1.5 1 -5.9 0.7 -2.5 -0.1 -3.3 0.3 -3.8 2.2 -0.9 3.5 -0.8 3.5 2.7 4.2 6 1.3 9.2 1.2 13.7 -0.5 3.2 -1.2 7.9 -1.7 16.5 -1.7 l12.1 -0.1 0.2 3.3 0.2 3.4 -6.7 -0.3 c-3.8 -0.2 -9.7 0.1 -13.3 0.5 -5.9 0.8 -5.7 0.8 3.5 0.6 11.7 -0.3 14 0.2 14 2.9 0 1.6 0.6 2 2.8 1.8 1.7 -0.1 2.7 0.3 2.7 1.2 0 0.8 0.4 1.6 0.9 1.9 0.5 0.4 0.7 -0.3 0.4 -1.4 -0.5 -2 -0.2 -1.9 4.2 0.7 2.6 1.6 5.3 3.7 5.9 4.8 0.6 1 1.7 2.5 2.4 3.3 1 1.1 1.2 1.1 1.2 -0.4 0 -1.6 0.2 -1.6 1.8 0.2 1.8 1.8 1.8 1.9 0 2.6 -1.5 0.6 -1.7 1.2 -0.9 2.6 0.6 1.2 0.7 2.3 0.1 3 -0.7 0.9 -0.7 0.9 0.2 0.2 2.1 -1.8 2.6 -1.1 2.5 3.3 -0.1 2.3 0 9.2 0.3 15.2 0.4 10.9 0.4 11 1 4 0.4 -3.8 0.7 -6.2 0.8 -5.2 0.1 0.9 0.9 1.7 1.8 1.7 1.3 0 1.5 -0.7 0.9 -3.6 -0.5 -3.1 -0.4 -3.4 0.8 -2.3 1.5 1.5 1.1 4.8 -0.8 6.4 -0.6 0.6 -1.4 3.1 -1.7 5.7 -0.5 4 -0.3 4.5 0.8 3.3 0.8 -0.7 1.4 -2.3 1.4 -3.4 0 -1.1 0.5 -2.3 1 -2.6 0.6 -0.4 0.8 -1 0.5 -1.5 -0.9 -1.4 1.4 -6 3 -6 2.2 0 2 4.7 -0.2 5.3 -1.7 0.4 -1.7 0.5 0 0.6 2.2 0.1 2.3 5.4 0.2 9.5 -0.8 1.5 -1.5 3.7 -1.5 4.8 0 3.7 -2.9 7.8 -5.5 7.8 -1.4 0 -2.5 0.5 -2.5 1 0 0.6 0.5 1 1.1 1 2.2 0 0.4 4.4 -2.1 5.1 -1.4 0.4 -1.9 0.7 -1.2 0.8 2 0.2 1.4 3.2 -0.8 3.8 -2.1 0.6 -2.8 4.7 -1.1 5.7 0.5 0.4 0.7 -0.3 0.4 -1.4 -0.3 -1.2 0 -2 0.6 -2 0.7 0 0.9 0.5 0.6 1 -0.3 0.6 0.4 1.4 1.7 1.9 1.3 0.6 1.9 1 1.3 1.1 -0.5 0 0.1 0.6 1.5 1.3 3 1.5 3.8 4.4 1.3 5 -1.7 0.4 -1.7 0.5 0 0.6 2.9 0.2 2.1 9.1 -0.9 9.1 -0.8 0 -1.4 0.5 -1.4 1 0 0.6 0.5 1 1 1 1.7 0 1.1 3.8 -0.7 4.3 -1.7 0.4 -1.7 0.5 0 0.6 2.9 0.2 1.8 4.6 -1 4.5 -2 0 -2.3 0.5 -2.4 4 l-0.2 4.1 -0.8 -5 c-0.9 -6 -0.3 -12.5 1.8 -18.2 1.2 -3.3 1.3 -4.9 0.4 -7.4 -0.6 -1.7 -0.8 -3.6 -0.5 -4.1 0.4 -0.6 -0.1 -0.8 -1.4 -0.4 -1.6 0.5 -2.2 0.1 -2.9 -2 -0.8 -2.5 -1 -2.6 -2.6 -1 -2 2 -2.3 6.6 -0.5 8.4 0.6 0.6 1.3 4.2 1.4 7.9 0.2 3.8 0.6 8 1 9.5 0.4 1.9 -0.1 4.2 -1.5 7.3 -1.1 2.5 -2.1 4.9 -2.1 5.4 0 0.5 -0.9 1.3 -2 1.6 -1.9 0.6 -2.9 2.5 -1.2 2.5 1.2 -0.1 3.8 -2.4 4.5 -4 0.4 -1.2 0.6 -1.1 0.6 0.3 0.1 1 -0.6 2.5 -1.4 3.3 -0.8 0.9 -1.5 2.9 -1.5 4.6 0 1.8 -0.7 3.6 -1.7 4.3 -1.4 1.1 -1.5 1.7 -0.6 3.7 0.6 1.4 1.4 5.1 1.8 8.2 0.7 5.1 0.5 6 -1.5 8.1 -2.1 2.2 -2.2 2.8 -1.2 6.2 0.6 2.1 1.3 4.7 1.6 5.8 0.3 1.6 0.4 1.5 0.5 -0.4 0 -1.4 -0.4 -3.9 -1 -5.6 -1.1 -2.9 -0.9 -3.5 1.2 -5.6 1.3 -1.3 2.7 -2.3 3.1 -2.2 0.9 0.3 2.1 -9.2 1.4 -11.5 -0.4 -1 0 -3.2 0.9 -4.8 1 -1.9 1.5 -2.3 1.5 -1.1 0 0.9 0.7 1.7 1.5 1.7 0.9 0 1.5 0.9 1.5 2.5 0 2.9 -2.6 3.5 -3.3 0.8 -0.2 -1 -0.3 -0.2 -0.1 1.7 0.2 1.9 0.8 3.6 1.4 3.8 1.6 0.6 1.2 2.2 -0.5 2.2 -0.8 0 -1.5 0.9 -1.5 2 0 1.1 0.5 2 1 2 0.6 0 1 1.1 1 2.5 0 1.5 -0.6 2.5 -1.4 2.5 -1.7 0 -3.3 7.9 -1.9 8.9 0.6 0.3 1.2 1.8 1.5 3.4 0.4 2.1 0.1 2.7 -1.3 2.7 -1.1 0 -1.9 0.5 -1.9 1 0 0.6 0.5 1 1 1 0.6 0 1 0.6 1 1.4 0 0.8 -1.6 1.6 -4.2 2 -2.3 0.4 -4.6 1.2 -5 1.9 -0.6 0.9 -1.2 0.9 -2.9 -0.1 -1.5 -1 -5.4 -1.4 -12.8 -1.3 -6.6 0.1 -10.2 -0.2 -9.6 -0.8 0.6 -0.5 2.4 -1.1 4 -1.4 l3 -0.4 -3.2 -0.2 c-2.1 0 -4 0.6 -5.3 1.9 -1.1 1.1 -3 2 -4.2 1.9 -2.2 0 -2.2 -0.1 -0.3 -0.9 1.6 -0.7 1.1 -0.9 -2 -0.9 -2.4 0 -3.5 0.3 -2.7 0.7 0.7 0.5 1 1.6 0.6 2.5 -0.6 1.7 -2.4 2.4 -2.4 0.9 0 -0.5 -2.7 -1 -6 -1.1 -4.7 -0.2 -6.2 0.1 -6.6 1.3 -0.8 2 -2.4 2.1 -2.4 0.1 0 -0.8 -0.7 -1.5 -1.5 -1.5 -0.8 0 -1.5 0.7 -1.5 1.5 0 1.8 -1.2 1.9 -2.7 0.4 -1.3 -1.3 -10.3 -0.3 -10.3 1.2 0 0.5 -1.3 0.9 -3 0.9 -1.6 0 -3 -0.4 -3 -1 0 -1.4 -3.7 -1.2 -4.3 0.3 -0.4 0.9 -0.8 0.9 -1.6 -0.3 -0.5 -0.8 -0.7 -1.8 -0.4 -2.4 0.4 -0.5 -0.3 -0.7 -1.6 -0.3 -1.9 0.5 -2.2 0.2 -1.8 -1.5 0.5 -1.8 0.2 -2 -2.5 -1.4 -1.9 0.4 -4 0 -5.7 -1 -2.4 -1.4 -3.1 -1.4 -6.3 -0.1 -2.9 1.2 -3.5 2 -3.1 3.6 0.7 2.7 2 2.7 4.3 -0.1 1 -1.3 2.2 -1.9 2.7 -1.4 0.4 0.5 0.2 1.1 -0.4 1.3 -2.7 1 -1.1 2.1 1.7 1.3 1.7 -0.5 2.8 -0.5 2.5 0 -0.3 0.5 0.3 1.1 1.2 1.4 1 0.2 0.5 0.5 -1.2 0.4 -7.2 -0.1 -9.5 0.3 -10.9 1.8 -1.4 1.3 -2.4 1.4 -7.3 0.4 -4.9 -1.1 -5.8 -1 -6.8 0.4 -1.3 1.7 -9 2.3 -9.9 0.7 -0.5 -0.8 -21.2 -2.5 -27.6 -2.2 -1.9 0.1 -3.7 0.5 -4 1 -0.8 1.2 -11.2 2.6 -15.5 2.1 -2.2 -0.3 -6.7 -0.2 -10 0.3 -3.4 0.4 -7.1 0.3 -8.7 -0.2 -2.3 -0.8 -2.6 -0.7 -2.1 0.6 0.4 1.1 0.2 1.4 -0.5 0.9 -0.7 -0.4 -1.2 -0.1 -1.2 0.8 0 1.9 -1.6 2.1 -2.3 0.4 -0.4 -1 -0.6 -1 -0.6 0 -0.1 1.4 -3.1 1.7 -3.1 0.2 0 -1.6 -5 -1.2 -5.6 0.5 -0.7 1.7 -6 2.1 -6.6 0.5 -0.1 -0.5 -2.9 -1 -6 -1.1 -3.2 -0.1 -5.8 -0.6 -5.8 -1.1 0 -0.5 -1 -0.2 -2.2 0.6 -1.5 0.9 -5.4 1.5 -10.8 1.7 -10 0.2 -11.6 0 -7.5 -1.2 2.2 -0.6 1.7 -0.7 -2 -0.3 -2.7 0.3 -5.1 1 -5.3 1.5 -0.2 0.5 -2.6 0.9 -5.3 0.9 -4 0 -4.9 0.3 -4.9 1.8 0 1.4 -0.2 1.5 -1 0.2 -0.5 -0.9 -0.5 -1.9 0.1 -2.6 0.6 -0.8 0.4 -1.4 -0.7 -1.8 -0.9 -0.4 -1.9 -0.4 -2.2 -0.1 -0.3 0.3 0 0.5 0.7 0.5 0.8 0 0.7 0.5 -0.3 1.6 -0.9 0.8 -1.6 2 -1.6 2.5 0 1.2 -1.7 1.2 -2.5 -0.1z m102.9 -9.5 c0.4 -1.2 -0.3 -1.5 -3.4 -1.5 -2.9 0 -4 0.4 -4 1.5 0 1 1 1.5 3.4 1.5 2.1 0 3.6 -0.6 4 -1.5z m63.4 -4.8 c-0.3 -2.9 0 -3.2 4.2 -4.4 2.5 -0.7 6.2 -1.5 8.3 -1.8 2 -0.3 3.7 -1 3.7 -1.5 0 -0.5 -1.1 -0.5 -2.5 0.2 -1.8 0.8 -3.2 0.8 -4.8 0.1 -1.8 -0.8 -3.1 -0.7 -5.7 0.8 -1.9 1 -4.6 1.8 -6 1.8 -2.1 -0.1 -2 -0.2 0.7 -0.9 1.8 -0.4 4.4 -1.5 5.8 -2.4 2.1 -1.4 3.3 -1.5 5.4 -0.8 1.8 0.6 3.3 0.6 4.2 0.1 1.2 -0.8 1.2 -0.9 -0.1 -0.7 -0.8 0.1 -2.5 -0.2 -3.8 -0.6 -1.7 -0.6 -2.1 -1.3 -1.7 -2.9 0.4 -1.5 0.3 -1.8 -0.3 -0.9 -0.5 0.8 -2 1.2 -3.3 1.1 -2.4 -0.3 -6.9 1.9 -6.9 3.4 0 0.5 -1.2 2.4 -2.6 4.3 -1.9 2.4 -2.2 3.2 -1 2.8 2 -0.8 2.1 0.3 0 2.3 -1.5 1.5 -1.3 1.7 1.8 2.8 4.2 1.5 5 1 4.6 -2.8z m-109.8 2.6 c0 -0.5 -1.1 -0.8 -2.4 -0.8 -1.3 0 -2.2 0.3 -1.9 0.8 0.2 0.4 1.3 0.7 2.4 0.7 1 0 1.9 -0.3 1.9 -0.7z m79.9 -2.2 c1.7 -1.5 2 -2.4 1.3 -3.8 -0.6 -1 -0.8 -3.2 -0.5 -4.8 0.3 -2.2 0.2 -2.6 -0.5 -1.6 -0.9 1.3 -1.3 1.3 -2.8 0 -1.6 -1.3 -1.7 -1.2 -1 1.5 0.4 1.7 1.6 3.7 2.7 4.7 1.7 1.5 1.7 1.7 0.3 2.3 -2.5 1 -3.1 0.7 -3.9 -1.6 l-0.8 -2.3 -0.4 2.3 c-1 5.1 1.7 6.7 5.6 3.3z m-92.6 -1.7 c9.8 -0.5 13.7 -1 13.7 -1.9 0 -0.7 0.3 -2.7 0.6 -4.5 l0.7 -3.2 -14.7 0.7 -14.6 0.7 0 -4.1 c0 -3.8 0.6 -4.8 8.3 -12.9 4.5 -4.8 8.4 -8.9 8.7 -9.2 0.3 -0.3 4.3 -4.4 8.9 -9.2 6.8 -7 8.5 -9.3 9.1 -12.7 l0.7 -4.1 -3.6 0.1 c-11.3 0.1 -43.3 2.7 -44 3.5 -0.5 0.5 -1.1 2.6 -1.4 4.7 l-0.6 3.8 14.5 -0.7 14.4 -0.7 0 3.4 c0 2.9 -1 4.4 -6.6 9.9 -3.6 3.6 -11.9 12.2 -18.5 19.2 -10.1 10.7 -11.9 13.2 -11.9 15.9 l0 3.2 11.3 -0.7 c6.1 -0.3 17.4 -0.9 25 -1.2z m83.3 0.2 c0.8 -0.8 1.4 -2.1 1.3 -2.8 0 -1 -0.2 -1 -0.6 0 -0.2 0.6 -1.5 1.2 -2.9 1.2 -1.7 0 -2.2 0.4 -1.8 1.5 0.8 1.9 2.1 1.9 4 0.1z m85.3 -0.2 c0.2 -0.2 -1.2 -0.4 -3.2 -0.4 -2 0 -3.8 0.4 -4.2 0.9 -0.5 0.9 6.4 0.4 7.4 -0.5z m18.1 -0.5 c-2 -0.8 -2.2 -1.2 -1 -1.9 1.3 -0.8 1.2 -1 -0.2 -1 -1 0 -1.8 0.4 -1.8 1 0 0.5 -2.4 0.9 -5.2 0.8 -8.7 -0.1 -8.8 0.5 -0.3 1.2 4.4 0.3 8.7 0.7 9.5 0.8 0.8 0 0.4 -0.4 -1 -0.9z m-38 -2.4 c0 -0.8 0.6 -1.3 1.3 -1.1 0.6 0.3 2.8 0.7 4.7 1 2.6 0.4 3.1 0.3 1.8 -0.4 -0.9 -0.6 -3.5 -1.3 -5.8 -1.6 -3.6 -0.5 -4 -0.4 -4 1.5 0 1.2 0.5 2.1 1 2.1 0.6 0 1 -0.7 1 -1.5z m22 0.5 c1.1 -0.7 0.5 -0.8 -2 -0.4 -4.3 0.8 -5.1 1.4 -1.9 1.4 1.3 0 3.1 -0.5 3.9 -1z m-103.6 -3.1 c6.6 -3.3 14.3 -10 16.7 -14.5 9 -17 9.1 -28.2 0.6 -37.1 -10 -10.5 -29.7 -9.4 -42.5 2.2 -11.7 10.5 -17.3 29 -12.2 39.8 2.9 6 4.9 8 10.5 10.5 4.3 2 6.2 2.2 13.8 1.8 6.3 -0.3 10 -1.1 13.1 -2.7z m19.9 -1 c-0.6 -0.6 -2.1 -0.9 -3.4 -0.6 -2.2 0.4 -2.2 0.4 0.4 0.6 1.5 0 2.7 0.6 2.7 1.3 0 0.6 0.3 0.8 0.7 0.5 0.4 -0.4 0.2 -1.2 -0.4 -1.8z m25.1 -1.1 c0.2 -0.7 1.1 -7.4 2 -14.8 2.5 -20 2.2 -19 6.1 -19 3.2 0 3.7 0.5 8.8 9.3 9 15.4 11.7 20.6 11.7 22.2 0 1.2 1.4 1.5 7 1.5 6.4 0 7.1 -0.2 8 -2.2 0.9 -2.2 8 -53.5 8 -57.7 0 -2 -0.4 -2.1 -5.7 -1.5 -3.2 0.4 -5.9 0.8 -6.1 0.9 -0.3 0.2 -4.2 32.1 -4.2 34.3 0 0.7 -1.4 1.2 -3.8 1.2 l-3.8 0 -7.8 -14.2 c-10.9 -19.9 -10.9 -19.8 -15.9 -19.8 -8.4 0 -8.1 -0.3 -10 14.3 -2.6 20.1 -5.7 45.1 -5.7 46 0 1.3 11 0.8 11.4 -0.5z m-27.6 -2.9 c-1 -0.6 -1 -1.1 0 -2.1 0.6 -0.6 1.2 -1.7 1.2 -2.2 0 -1.2 -2.4 2.1 -3.3 4.5 -0.4 1.3 -0.1 1.6 1.5 1.1 1.5 -0.3 1.6 -0.7 0.6 -1.3z m122.4 -1.5 c13.7 -0.7 13.7 -0.7 13.8 -7.2 l0 -2.4 -16 0.7 c-14.5 0.7 -16 0.6 -16.6 -0.9 -0.6 -1.6 1 -14.3 1.9 -15.2 0.2 -0.3 6.6 -0.8 14.1 -1.3 7.5 -0.4 13.8 -1 14 -1.2 0.2 -0.2 0.6 -2.2 0.9 -4.4 l0.6 -4 -13 0.8 c-8.7 0.6 -13.5 0.5 -14.1 -0.1 -0.7 -0.7 -0.8 -3.4 -0.2 -7.9 l0.9 -6.8 16.3 -1.1 c9 -0.7 16.5 -1.4 16.6 -1.5 0.2 -0.2 0.6 -2.5 0.9 -5.2 l0.7 -4.7 -3.8 0.5 c-2 0.2 -12.2 1 -22.7 1.6 -10.4 0.6 -19.3 1.3 -19.6 1.5 -0.3 0.2 -0.9 3.4 -1.3 7.1 -0.4 3.7 -2 16.9 -3.6 29.1 -1.7 12.3 -3 22.9 -3 23.4 0 0.8 3.4 0.9 10.3 0.5 5.6 -0.4 15.9 -1 22.9 -1.3z m-81.2 -5 c0 -0.2 -0.4 -1.2 -0.9 -2.2 -0.5 -0.9 -1.2 -2.6 -1.6 -3.6 -0.4 -1.5 -0.8 -1.7 -1.7 -0.8 -0.9 0.9 -0.9 1.5 0 2.4 0.7 0.7 1.2 2.2 1.2 3.5 0 1.6 0.4 2.1 1.5 1.7 0.8 -0.4 1.5 -0.8 1.5 -1z m-154.5 -17.4 c0.3 -0.5 -0.1 -1 -0.9 -1 -0.9 0 -1.6 -1.1 -1.8 -2.7 -0.2 -1.9 -0.5 -2.3 -0.9 -1.3 -1.3 3.2 1.9 7.7 3.6 5z m-5.5 -8 c0.8 -0.5 1 -1 0.4 -1 -0.7 0 -1.4 -0.6 -1.7 -1.4 -0.4 -0.9 0 -1.2 1.3 -0.9 1 0.3 2.1 0 2.4 -0.6 0.5 -0.7 -0.2 -1.1 -1.6 -1.2 -1.7 -0.1 -1.8 -0.3 -0.5 -0.6 2.1 -0.5 2.3 -2.3 0.2 -2.3 -1.1 0 -1.5 -1.3 -1.5 -5.2 l-0.1 -5.3 -1.9 4 c-2 4 -2 4 -1.7 0.9 0.2 -2 -0.1 -3 -0.8 -2.8 -1.5 0.6 -1.4 8.4 0.2 8.4 0.7 0 1.3 0.7 1.3 1.5 0 0.8 -0.6 1.5 -1.4 1.5 -1 0 -1.2 0.7 -0.8 2.3 0.9 3.5 3.3 4.6 6.2 2.7z m18.5 -2 c-1.1 -0.5 -2.9 -0.8 -4 -0.8 -1.6 0 -1.5 0.2 0.5 0.8 3.4 1.1 6 1.1 3.5 0z m117.8 -8 c-0.3 -1.1 -1.2 -2 -1.9 -2 -0.8 0 -1.4 0.9 -1.4 2 0 1.3 0.7 2 1.9 2 1.4 0 1.8 -0.5 1.4 -2z m133.7 -14.7 c0 -4.5 -1.1 -3.6 -1.7 1.2 -0.2 2.4 0 3.4 0.7 3 0.5 -0.3 1 -2.2 1 -4.2z m-223.1 -9.8 c3.5 -0.9 8.7 -2.8 11.4 -4.2 5.3 -2.9 17.3 -15.2 16 -16.4 -0.5 -0.4 -3.2 -1.2 -6.1 -1.8 l-5.2 -1.1 -3.8 4.2 c-4.9 5.4 -8.5 6.8 -18 6.8 -13.4 0 -15.6 -3.3 -15 -22.2 0.3 -10.9 0.7 -12.9 3 -17.3 1.4 -2.7 3.6 -6.1 4.9 -7.4 3.4 -3.6 9.8 -6.1 15.7 -6.1 7.6 0 11.9 2.1 14 6.8 l1.7 3.9 8.3 -3.1 c4.5 -1.7 8.2 -3.6 8.2 -4.4 0 -2.7 -4 -9 -7.5 -11.7 -12.1 -9.1 -34.2 -6.4 -51.3 6.4 -7.5 5.6 -15.9 21.1 -18.3 33.7 -0.9 5 -0.8 7.2 0.5 12.5 2.9 11.1 8.9 17.6 19.3 20.9 7.1 2.3 13.8 2.4 22.2 0.5z m219.1 -1.8 c1.4 -1.1 2.6 -5.7 1.4 -5.7 -0.3 0 -1 1.3 -1.5 2.9 -0.6 1.7 -1.8 3.2 -2.7 3.4 -1.3 0.4 -1.3 0.5 -0.2 0.6 0.8 0 2.2 -0.5 3 -1.2z m-129 -4.7 c13.1 -3.9 24.1 -13.3 30.5 -26.1 9.6 -18.8 8.1 -33.9 -4.3 -45.1 -14 -12.5 -38.8 -9.8 -55.4 6 -7.4 7 -11 12.7 -14.4 22.7 -7 21 0.5 37.7 19.6 43.6 5 1.5 17.1 0.9 24 -1.1z m97.4 -7 c4.2 -1.5 10.3 -1.2 13.6 0.5 4.4 2.3 12 3.1 12 1.4 0 -0.8 -1.3 -2.3 -3 -3.2 -2.6 -1.6 -3 -2.4 -3 -6.1 0 -2.8 0.5 -4.6 1.4 -4.9 2.5 -1 10.7 -12.6 13.2 -18.8 1.3 -3.2 2.9 -9.3 3.6 -13.3 1 -6.8 0.9 -8 -1.2 -14.5 -2 -6.2 -3 -7.9 -7.7 -12 -8.9 -8 -20 -10.1 -33.8 -6.6 -17 4.4 -28.9 15.1 -36.3 32.6 -2.3 5.6 -2.7 7.7 -2.7 16.9 0 8.9 0.3 11.1 2.2 14.6 7.3 13.6 24.5 19.2 41.7 13.4z m31.6 -4.5 c0.7 1.7 0.9 1.6 0.9 -0.9 0.1 -2.4 -0.1 -2.7 -1.4 -1.6 -0.8 0.7 -1.4 2.4 -1.4 3.9 0.2 2.4 0.2 2.4 0.7 -0.4 0.4 -2.6 0.5 -2.8 1.2 -1z m-231.1 -3.6 c-1.1 -1.1 -2.3 -1.9 -2.5 -1.6 -0.6 0.6 2.5 3.7 3.7 3.7 0.5 0 0 -0.9 -1.2 -2.1z m236.1 -0.5 c0 -0.8 -0.7 -1.4 -1.5 -1.4 -0.8 0 -1.5 0.9 -1.5 2 0 1.3 0.5 1.8 1.5 1.4 0.8 -0.4 1.5 -1.2 1.5 -2z m-218 -2.5 c0 -1.4 -1.6 -1.1 -2.9 0.5 -1 1.2 -0.8 1.3 0.8 0.9 1.2 -0.3 2.1 -0.9 2.1 -1.4z m-21.3 -4.6 c-0.3 -1 -0.5 -0.2 -0.5 1.7 0 1.9 0.2 2.7 0.5 1.8 0.2 -1 0.2 -2.6 0 -3.5z m7.6 2.4 c0.4 -1 -0.3 -1.2 -2.7 -0.9 -2.7 0.4 -2.8 0.6 -1.1 1.3 2.9 1.1 3.2 1.1 3.8 -0.4z m12.5 -2.3 c-1.5 -1.5 -1.8 -1.5 -3.9 0 -2.3 1.6 -2.3 1.6 1.6 1.6 3.6 0 3.8 -0.1 2.3 -1.6z m-4.3 -1.8 c1.7 -1.2 1.7 -1.3 -0.8 -1.8 -1.6 -0.3 -3.4 0.1 -4.4 0.9 -1 0.8 -1.3 1.2 -0.6 0.9 0.6 -0.4 1.4 -0.2 1.8 0.4 0.8 1.3 1.8 1.3 4 -0.4z m25.1 -0.3 c-0.2 -1 -1.1 -1.9 -2.2 -2 -1.8 -0.3 -1.8 -0.2 0.1 0.6 1.1 0.5 1.6 1 1.2 1 -0.5 0.1 -0.5 0.6 -0.2 1.1 0.9 1.5 1.4 1.2 1.1 -0.7z m14.4 -3.8 c0 -0.9 -0.9 -1.5 -2.2 -1.4 -1.7 0.1 -1.9 0.2 -0.5 0.6 0.9 0.2 1.7 0.9 1.7 1.4 0 0.5 0.2 0.9 0.5 0.9 0.3 0 0.5 -0.7 0.5 -1.5z m-9.2 -5.4 c0.3 -1.6 -0.1 -2.2 -1 -1.9 -0.7 0.3 -1.5 1.5 -1.6 2.7 -0.3 1.6 0.1 2.2 1 1.9 0.7 -0.3 1.5 -1.5 1.6 -2.7z m200.5 -1.2 c0.3 -1.3 0.1 -1.9 -0.6 -1.6 -1.5 0.5 -2.2 3.7 -0.9 3.7 0.5 0 1.2 -0.9 1.5 -2.1z m-219.7 -4.4 c-2.3 -1.7 -3.6 -1.9 -3.6 -0.6 0 1.1 1.8 1.9 4 2 1.1 0 1 -0.3 -0.4 -1.4z m-62.6 -4 c0 -0.8 -0.4 -1.5 -1 -1.5 -0.5 0 -1 0.7 -1 1.5 0 0.8 0.5 1.5 1 1.5 0.6 0 1 -0.7 1 -1.5z m6.9 -12.2 c-0.1 -2.2 -0.2 -2.3 -0.6 -0.8 -0.3 1.1 -1 2.3 -1.7 2.7 -0.7 0.5 -0.5 0.8 0.7 0.8 1.2 0 1.7 -0.7 1.6 -2.7z m10.4 -22.5 c0.7 -2 -3 -6.5 -5.8 -7 -3.4 -0.7 -3.2 1 0.8 4.8 3.7 3.6 4.4 3.9 5 2.2z m187.7 -2.9 c0 -1.2 -0.7 -1.9 -2 -1.9 -2.2 0 -2.9 3.5 -0.7 4.3 1.8 0.6 2.7 -0.2 2.7 -2.4z m-23 1.3 c0 -1.4 -4.6 -5.3 -5.3 -4.5 -0.4 0.3 0.3 1.1 1.6 1.8 1.2 0.6 2.1 1.7 2 2.3 -0.2 0.7 0.2 1.2 0.7 1.2 0.6 0 1 -0.4 1 -0.8z m11.4 -4.9 c2.9 -3 6.4 -8.1 8.9 -13.3 4.1 -8.1 4.2 -8.8 4.2 -18 -0.1 -8.1 -0.5 -10.5 -2.8 -16 -1.5 -3.6 -4.6 -8.5 -6.9 -10.9 l-4.1 -4.3 -3.6 1.7 c-2.2 1.1 -7 1.9 -12.6 2.3 -20 1 -33.6 -6.6 -41.6 -23.6 -3.7 -7.8 -4.9 -21.5 -2.7 -29.7 1 -3.6 1.1 -6.1 0.5 -8.5 -1 -3.9 -0.3 -19.8 1.2 -24.7 0.9 -3.2 0.9 -3.3 -2.1 -3.3 -2.4 0 -3.9 -1 -7 -4.5 -3.9 -4.4 -4.1 -4.5 -6 -2.9 -1 1 -2.8 3.3 -3.9 5.1 -1.8 2.9 -2.6 3.3 -6.5 3.3 l-4.4 0 0 -4.7 c0 -7.3 1.8 -12.4 6 -16.5 3.6 -3.6 4.1 -3.8 10.2 -3.8 10.3 0 13.5 3.5 14.7 15.9 l0.6 6.3 4.8 -9.5 c2.6 -5.3 4.7 -10.1 4.7 -10.6 0 -0.5 -2.3 -3.3 -5.2 -6.1 -9.3 -9.2 -19.5 -11.8 -30.7 -8.1 -6.7 2.3 -15.1 7.9 -19.4 13 -1.4 1.7 -3 3.1 -3.6 3.1 -0.6 0 -1.1 0.9 -1.1 2 0 1.1 -0.7 2 -1.5 2 -0.8 0 -1.5 0.9 -1.5 2 0 1.1 -1.6 5.2 -3.6 9.1 -7 14 -13.6 37.4 -14.9 52.9 -0.3 4.1 -0.8 8.5 -1.1 9.8 -0.4 2.2 -0.4 2.2 2.5 0.7 1.7 -0.8 4.4 -1.5 6.2 -1.5 l3.2 0 -0.5 6.8 c-0.8 9.7 -2 11.6 -11.8 18 -10.7 7.1 -23.3 19.7 -33 33.1 -4.1 5.7 -9.9 13.3 -12.8 16.7 -4.3 5.2 -4.8 6.2 -2.7 5.4 5.3 -2 11.2 -5.5 16.6 -9.6 3.9 -3.1 6.5 -4.4 8.7 -4.4 3 0 3.2 0.2 3.2 3.8 0 3.8 -2 7.9 -7.2 14.5 l-3 3.7 3.9 0 c6 0 16.2 -2.7 23.8 -6.2 3.9 -1.8 7.2 -3.5 7.5 -3.9 2.6 -2.8 8.2 -5.9 10.8 -5.9 2.6 0 3.2 0.4 3.2 2.3 0 2 0.4 1.8 4 -1.8 2.1 -2.2 3.9 -4.6 4 -5.4 0 -0.8 0.6 -2.2 1.3 -3 1.7 -2 4.5 -11.1 5.3 -17.3 0.5 -3.3 0.1 -6.6 -1.5 -11.6 -1.1 -3.9 -2.1 -8.6 -2.1 -10.6 0 -3.5 0.1 -3.6 3.6 -3.6 5.4 0 11.5 5.4 15.4 13.4 2.8 5.9 3 7.2 3 17.6 0 7 -0.6 13.5 -1.6 17.4 -1.6 6.4 -6.1 15.6 -7.6 15.6 -0.4 0 -0.8 0.9 -0.8 2 0 1.1 0.2 2 0.5 2 0.3 0 4.7 -1.8 9.8 -3.9 12.7 -5.5 17.2 -6.4 32.2 -6.3 15.3 0.1 25.3 2.5 28.1 6.7 0.9 1.4 2.2 2.5 3 2.5 1.4 0 5.1 2.8 8.3 6.2 0.9 0.9 1.9 1.7 2.2 1.7 0.3 0.1 2.7 -2 5.3 -4.6z m-17.4 -0.7 c0 -0.2 -1.2 -1.1 -2.6 -2.1 -2.5 -1.6 -2.5 -1.6 -1.4 0.4 0.9 1.7 4 3 4 1.7z m29 -2.2 c0.6 -0.6 0.3 -1 -0.9 -1.1 -1.1 -0.1 -2.4 0.4 -3 1.1 -0.8 1 -0.6 1.2 0.9 1.1 1.1 -0.1 2.5 -0.6 3 -1.1z m15.6 -2.5 c0.3 -0.6 0.1 -1.6 -0.6 -2.2 -1 -0.9 -1.2 -0.8 -0.7 0.5 0.3 0.9 0.1 1.9 -0.6 2.2 -0.9 0.3 -0.9 0.5 0 0.5 0.6 0.1 1.5 -0.4 1.9 -1z m-144.3 -3.9 c0.4 -1.6 0 -2 -1.9 -2 -1.3 0 -2.4 0.5 -2.4 1 0 0.6 0.7 1 1.5 1 0.8 0 1.5 0.5 1.5 1 0 1.7 0.7 1.1 1.3 -1z m23.9 -2.7 c-2.5 -2.4 -3.8 -2.6 -5.4 -0.5 -1.2 1.5 -1.1 1.6 0.5 0.3 1.5 -1.2 1.7 -1.1 1.7 0.3 0 0.9 0.8 1.6 2 1.6 1.2 0 2 0.7 2.1 1.8 0.1 1.5 0.2 1.5 0.6 0 0.2 -0.9 -0.4 -2.5 -1.5 -3.5z m115.2 -0.4 c2.9 -0.1 2.9 -0.1 0.6 -0.8 -1.7 -0.5 -2.6 -1.6 -3.1 -3.9 -0.6 -3.1 -0.5 -3.2 3 -3.8 2.9 -0.5 4 -1.2 4.8 -3.5 1.3 -3.4 0.2 -4 -1.2 -0.6 -0.7 1.4 -2 2.3 -4 2.5 -1.6 0.2 -3.5 0.8 -4.2 1.3 -0.7 0.7 -1.2 0.6 -1.5 -0.2 -0.2 -0.7 -0.4 0.5 -0.4 2.5 0 3.4 0.1 3.6 1.4 1.9 1.3 -1.7 1.4 -1.7 0.9 0.2 -0.3 1.1 -0.8 3.6 -1.1 5.5 -0.5 3.1 -0.5 3.3 0.6 1.3 0.7 -1.6 2.1 -2.3 4.2 -2.4z m43.3 -0.4 c0 -0.8 -0.6 -1.5 -1.3 -1.5 -1.8 0 -2.7 1.7 -1.2 2.3 2.1 0.9 2.5 0.8 2.5 -0.8z m-25.2 -0.5 c0.7 -1.2 -0.2 -1.2 -3 0 -1.9 0.8 -1.9 0.9 0.2 0.9 1.2 0.1 2.5 -0.3 2.8 -0.9z m-141.3 -5.5 c-0.6 -3.4 -1.2 -3.2 -1.2 0.6 0 1.6 0.4 2.8 0.9 2.5 0.4 -0.3 0.6 -1.7 0.3 -3.1z m-88.3 -2.9 c-0.9 -0.8 -1 -0.7 -0.5 0.7 0.3 1 0.7 2.4 0.7 3 0.1 0.7 0.3 0.4 0.6 -0.7 0.3 -1 -0.1 -2.3 -0.8 -3z m215.2 -6.6 c0.5 0 0.9 -0.3 0.9 -0.7 0 -0.5 -1.7 -0.9 -3.8 -0.9 -2 -0.1 -3.1 0 -2.4 0.3 0.7 0.3 1.8 1.7 2.4 3.2 1.1 2.5 1.2 2.5 1.5 0.4 0.3 -1.3 0.9 -2.3 1.4 -2.3z m-221.1 -3.4 c0 -0.7 -0.9 -1.6 -2 -1.9 -1.1 -0.3 -2 -1.3 -2 -2.2 0 -1.3 -0.7 -1.5 -3.7 -0.9 -6.4 1.2 -8.1 2.3 -2.5 1.7 4.2 -0.5 5.2 -0.3 5.2 0.9 0 1.2 2.5 3.1 4.8 3.7 0.1 0.1 0.2 -0.5 0.2 -1.3z m221 -2.8 c0 -3.8 -0.5 -3.4 -1.3 1 -0.4 2.1 -0.3 3.1 0.3 2.7 0.6 -0.3 1 -2 1 -3.7z m-252.5 2.2 c0.3 -0.5 -0.3 -1 -1.5 -1 -1.2 0 -1.8 0.5 -1.5 1 0.3 0.6 1 1 1.5 1 0.5 0 1.2 -0.4 1.5 -1z m18.5 -5.8 c0 -0.4 -0.8 -1.2 -1.7 -1.8 -1.6 -1 -1.8 -0.7 -1.8 1.6 0 2.4 0.3 2.7 1.8 1.9 0.9 -0.5 1.7 -1.3 1.7 -1.7z m54.3 -23.4 c0.9 -1 1.2 -1.3 0.5 -0.8 -2 1.6 -3 1.1 -2.3 -1 0.8 -2.6 -1.1 -5 -4 -5 -2.9 0 -4.7 2.2 -4.3 5.2 0.2 1.9 0.8 2.2 3.1 2 2.2 -0.3 2.7 0 2.7 1.9 0 1.9 0.2 2.1 1.3 0.8 0.6 -0.8 2 -2.2 3 -3.1z m134.7 -8.3 c0 -0.8 -0.7 -1.5 -1.5 -1.5 -2.6 0 -1.8 2 1.3 2.9 0.1 0.1 0.2 -0.6 0.2 -1.4z m-35.6 -24.4 c-0.4 -2.2 -1.1 -4.1 -1.6 -4.1 -0.6 0 -0.7 0.8 -0.3 1.8 0.3 0.9 0.9 3 1.2 4.5 0.9 4.3 1.5 2.5 0.7 -2.2z m29.7 -11.1 c2.1 0 0.7 -1.6 -1.6 -1.8 -1.7 -0.1 -2.5 0.3 -2.5 1.4 0 1.1 0.5 1.4 1.6 1 0.9 -0.3 2 -0.6 2.5 -0.6z m-24.1 -5.8 c-0.5 -0.2 -1 -1.3 -1 -2.5 0 -1.8 -0.2 -1.9 -1 -0.7 -0.8 1.2 -1 1.1 -1 -0.7 0 -2.7 -0.6 -2.9 -2.5 -0.9 -1.2 1.2 -1.2 1.5 0 2 0.8 0.3 1.5 1.2 1.5 2.1 0 0.9 0.6 2.2 1.3 3 1 1.2 1.4 1.1 2.5 -0.3 0.8 -1.1 0.9 -1.8 0.2 -2z m25.5 -0.4 l4 -1.1 -3.5 -1.6 c-4.8 -2.2 -20 -12.3 -20 -13.3 0 -0.4 -0.4 -0.8 -0.9 -0.8 -1.8 0 2.3 9.5 5.3 12.4 2.9 2.7 7.9 5.5 10.1 5.6 0.6 0 2.8 -0.5 5 -1.2z m-22.7 -1.5 c-1.1 -0.3 -1.8 -1.4 -1.8 -2.8 0 -1.3 -0.4 -2.7 -1 -3 -1.1 -0.7 -1.3 0.9 -0.4 4.3 0.4 1.4 1.3 2.2 2.8 2.1 1.7 -0.1 1.7 -0.2 0.4 -0.6z m26.5 -14.5 c2.8 -7.4 3.1 -10.3 1.1 -12.6 -1.7 -2 -1.8 -2 -4.3 -0.3 -1.4 1 -4 2.3 -5.8 3 -1.9 0.8 -3 1.8 -2.7 2.6 0.4 1 -0.1 1.2 -1.7 0.8 -1.5 -0.4 -2 -0.3 -1.5 0.5 0.4 0.7 0 1.2 -1.1 1.3 -1.7 0.1 -1.7 0.2 0 0.6 1 0.2 1.7 1 1.6 1.6 -0.3 2.3 0.1 3.8 0.9 3.4 0.4 -0.3 2.7 0.3 5.2 1.3 6.4 2.5 6.5 2.5 8.3 -2.2z m-8.3 -20.8 c4.1 -1.7 9.3 -2.6 20 -3.4 l14.5 -1.1 -5.5 -3.8 c-6 -4.1 -15.2 -7.4 -23.6 -8.3 l-5.4 -0.7 0 6 c0 5 -0.4 6.3 -2.4 8.2 -3.3 3.1 -8.8 2.6 -9.6 -0.8 -0.5 -2.2 -0.7 -2 -2.3 2 -1.6 4 -1.6 4.5 -0.1 5.6 1.7 1.2 3.2 0.8 14.4 -3.7z m-84.6 -19.2 c-0.3 -0.4 -1.3 -0.8 -2.2 -0.7 -1.1 0 -1.2 0.3 -0.4 0.6 0.6 0.2 1.2 1.2 1.2 2.1 0 1.4 0.2 1.5 0.9 0.2 0.6 -0.8 0.7 -1.8 0.5 -2.2z m69.6 -10.8 c0 -0.5 -0.6 -1 -1.4 -1 -0.8 0 -1.6 -0.7 -2 -1.5 -0.3 -0.8 -1.1 -1.5 -1.7 -1.5 -0.7 0 0 1.1 1.5 2.5 3 2.7 3.6 3 3.6 1.5z"/>
  <path d="M186.3 470.6 c-2.5 -2.2 -2.8 -3.1 -3.2 -10.7 -0.4 -10.1 1.1 -17.2 4.8 -23.1 2.3 -3.7 3.8 -4.8 7.9 -6.1 5.6 -1.9 12.3 -2.2 15 -0.8 0.9 0.5 2.5 1.2 3.5 1.5 2.6 0.8 3.7 4.8 3.7 14 0 14 -4 22.9 -11.7 26.1 -2 0.8 -6.6 1.5 -10.4 1.5 -5.7 0 -7.2 -0.4 -9.6 -2.4z m15.4 -31.7 c-1.4 -0.8 -2.2 -0.8 -3 0 -0.8 0.8 -0.3 1.1 1.9 1.1 2.5 -0.1 2.7 -0.2 1.1 -1.1z"/>
  <path d="M223.1 387.5 c-1.6 -1.4 -3.5 -4.2 -4.2 -6.2 -1.6 -4.8 -0.6 -23.4 1.5 -29.4 2.2 -6.1 7.1 -11.8 12 -14 5.2 -2.4 18.4 -2.6 22.6 -0.4 6 3.1 8.2 12.8 6.1 26.4 -2.9 18.5 -10.8 26.1 -27.1 26.1 -6.9 0 -8.2 -0.3 -10.9 -2.5z m16.9 -7.5 c0 -0.5 -1.2 -1 -2.7 -0.9 l-2.8 0.1 2.5 0.8 c1.4 0.4 2.6 0.8 2.8 0.9 0.1 0.1 0.2 -0.3 0.2 -0.9z m3.3 -4.5 c-0.3 -0.8 -0.9 -1.5 -1.4 -1.5 -1 0 -1.2 2.4 -0.3 3.3 1.1 1.1 2.4 -0.3 1.7 -1.8z m-0.1 -4.7 c-1.1 -1.1 -3.2 -0.3 -3.2 1.2 0 0.4 0.9 0.6 2.1 0.3 1.3 -0.4 1.7 -0.9 1.1 -1.5z m-3.5 -2.4 c0.2 -0.5 -0.8 -0.9 -2.2 -0.9 -2.7 0 -3.3 1 -1.2 1.8 1.6 0.7 3 0.3 3.4 -0.9z m12.4 -9.1 c1.1 -1.5 1.1 -1.6 -0.1 -0.5 -2 1.7 -2.8 1.5 -3.3 -1 -0.4 -2 -0.4 -1.9 -0.6 0.5 -0.1 3.1 1.9 3.6 4 1z m-1.5 -11.8 c0.2 -2.2 0 -2.4 -1.7 -1.5 -2.2 1.2 -2.4 2.1 -0.7 3.8 1.5 1.5 2.1 0.9 2.4 -2.3z"/>
  <path d="M321.2 380.5 c-5.8 -4.9 -6.7 -19.9 -2 -34.1 4 -12.2 11.2 -17.4 24.1 -17.4 12.8 0 16.7 4.5 16.7 19 0 9.1 -1.4 15.9 -4.3 20.8 -1.5 2.5 -2.6 3.2 -5.1 3.2 -1.7 0 -4.8 1.1 -6.9 2.5 -2.9 2 -3.7 3.2 -3.7 5.5 l0 3 -7.9 0 c-7 0 -8.3 -0.3 -10.9 -2.5z"/>
  <path d="M133 252.7 c0 -2.2 2.7 -3.9 5 -3.2 3.3 1 2.1 3.9 -1.8 4.3 -2.3 0.2 -3.2 -0.1 -3.2 -1.1z"/>
  <path d="M373.6 445.2 c-0.4 -0.7 -0.3 -1.9 0.2 -2.8 1.2 -2.1 2.2 -0.5 1.2 2 -0.4 1.3 -0.9 1.6 -1.4 0.8z"/>
  <path d="M380.1 436.8 c-1.2 -3.3 -0.9 -4.4 0.8 -3.3 0.6 0.3 1.1 1.7 1.1 3 0 1.3 0.6 2.6 1.3 2.8 0.7 0.4 0.6 0.6 -0.5 0.6 -0.9 0.1 -2 -1.2 -2.7 -3.1z"/>
  <path d="M382 430.5 c0 -0.9 0.6 -1.2 1.5 -0.9 0.8 0.4 1.5 1 1.5 1.5 0 0.5 -0.7 0.9 -1.5 0.9 -0.8 0 -1.5 -0.7 -1.5 -1.5z"/>
  <path d="M379.6 405.8 c0.8 -2.7 1.2 -3.3 1.9 -2.7 0.7 0.8 -0.7 4.9 -1.7 4.9 -0.5 0 -0.6 -1 -0.2 -2.2z"/>
  <path d="M380 398.1 c-2 -1 -3.6 -2.7 -3.8 -4 -0.5 -3.2 2.4 -2.6 4 0.9 0.7 1.7 1.9 3 2.5 3 0.7 0 1.3 0.5 1.3 1 0 1.3 0 1.3 -4 -0.9z"/>
  <path d="M393 343.5 c0 -0.8 0.7 -1.5 1.5 -1.5 0.8 0 1.5 0.7 1.5 1.5 0 0.8 -0.7 1.5 -1.5 1.5 -0.8 0 -1.5 -0.7 -1.5 -1.5z"/>
  <path d="M391.4 336.8 c-1.6 -4 -1.1 -7.3 1.1 -7.4 1.5 -0.1 1.6 0 0.3 0.3 -2.8 0.7 -2.1 2.1 0.7 1.5 2.1 -0.3 2.5 0 2.5 1.8 0 1.3 -0.8 2.4 -1.9 2.7 -1.2 0.3 -1.7 1.1 -1.4 1.9 0.9 2.4 -0.3 1.6 -1.3 -0.8z"/>
  <path d="M385.7 329.8 c-0.3 -1.8 -0.1 -3.7 0.4 -4.2 0.5 -0.6 0.9 0.7 0.9 3.2 0 5 -0.6 5.4 -1.3 1z"/>
  <path d="M387 321.8 c-1.1 -1.8 -2 -2.7 -2 -1.9 0 1.1 -0.4 0.9 -1.4 -0.4 -1.7 -2.4 -1.2 -3.5 1.7 -3.5 1.8 0 1.9 0.2 0.7 1 -1.2 0.8 -1.2 1 0.5 1 2.6 0 5.3 3.9 3.4 5 -0.8 0.6 -0.6 0.9 0.7 1.3 1.7 0.4 1.7 0.5 0.1 0.6 -1 0 -2.6 -1.3 -3.7 -3.1z"/>
  <path d="M375.7 316.4 c-1.5 -1.3 -2.4 -2.4 -2 -2.4 1.1 0.1 5.7 4 5.2 4.4 -0.2 0.3 -1.7 -0.7 -3.2 -2z"/>
  <path d="M373.3 310.5 c1.5 -3.2 2.2 -3.2 2.4 0.2 0.1 1.9 -0.1 2.2 -0.8 1.2 -0.6 -1 -0.9 -1 -0.9 -0.1 0 0.6 -0.4 1.2 -0.9 1.2 -0.5 0 -0.4 -1.1 0.2 -2.5z"/>
  <path d="M321.3 301.3 c-2.1 -0.8 -1.5 -4.3 0.7 -4.3 1.5 0 2 0.7 2 2.5 0 2.5 -0.4 2.8 -2.7 1.8z"/>
  <path d="M21.5 280.9 c-1.8 -0.7 -1.8 -0.8 0.5 -0.9 2.2 -0.2 2.3 -0.3 0.5 -0.8 -1.4 -0.5 -2 -1.7 -2.2 -4 -0.1 -3 0 -3.2 1.3 -1.5 1.2 1.7 1.3 1.6 1.4 -0.6 0 -1.4 0.8 -3.3 1.8 -4.4 1.2 -1.5 1.3 -1.8 0.2 -1.2 -0.9 0.5 -0.8 0 0.4 -1.3 1.1 -1.2 1.5 -2.2 1 -2.2 -0.5 0 -1.8 -1.6 -2.8 -3.5 -1.9 -3.5 -1.9 -4 1.4 -12 0.5 -1.1 1.1 -3.7 1.5 -5.7 0.3 -2.1 1 -3.8 1.5 -3.8 0.6 0 0.9 -0.3 0.8 -0.7 -0.2 -0.5 0.4 -1.8 1.3 -3.1 1.5 -2 1.9 -2.1 4.3 -1 2.2 0.9 3.2 0.9 4.8 -0.1 1.1 -0.7 1.7 -0.8 1.3 -0.2 -0.4 0.7 0.4 1.1 2.2 1.1 2.3 0 2.5 0.2 1.3 1.1 -1.2 0.9 -1.1 1 0.7 0.6 2.6 -0.6 5.1 1.7 3.2 2.9 -0.9 0.5 -0.7 1 0.7 1.5 1.5 0.5 0.9 0.9 -2.3 1.4 -5 0.9 -5.3 1.5 -1.7 3.2 1.7 0.8 3.4 0.9 5 0.2 1.4 -0.5 3.7 -0.9 5 -0.9 1.4 0 2.2 -0.4 1.9 -1 -0.3 -0.5 -1.7 -1 -3.1 -1 -1.3 0 -2.4 -0.4 -2.4 -1 0 -1.3 0.4 -1.3 4.5 0.4 1.9 0.8 3.5 1.9 3.5 2.3 0 0.4 -1.8 1.6 -4 2.6 -2.8 1.3 -3.7 2.3 -3.3 3.4 0.5 1.2 0.1 1.4 -1.5 0.9 -2.7 -0.9 -6.3 1 -5.6 2.8 0.3 0.8 -1.6 3.1 -5 5.7 -3.1 2.4 -5.6 4.9 -5.6 5.5 0 0.7 -1.1 0.9 -2.7 0.7 -1.9 -0.3 -2.4 -0.2 -1.5 0.5 2 1.4 -0.4 6.1 -2.9 5.5 -1 -0.3 -1.9 0 -1.9 0.6 0 0.6 0.5 1.1 1.1 1.1 1.2 0 0.3 3.5 -1.5 6.1 -0.8 1.1 -1.7 1.4 -3.1 0.8z m8.2 -22.8 c1.3 -2.1 0.8 -3.2 -1.3 -2.4 -1.4 0.5 -2 4.3 -0.6 4.3 0.4 0 1.3 -0.9 1.9 -1.9z m-2.7 -7.7 c0 -0.8 -0.4 -1.4 -1 -1.4 -0.5 0 -1 0.9 -1 2.1 0 1.1 0.5 1.7 1 1.4 0.6 -0.3 1 -1.3 1 -2.1z"/>
  <path d="M103.5 276.1 c1.1 -0.5 2.3 -0.7 2.8 -0.4 0.4 0.2 0.7 0 0.7 -0.6 0 -0.5 -1 -1.2 -2.2 -1.4 l-2.3 -0.4 2.3 -0.2 c1.6 -0.1 2.2 -0.7 2.2 -2.6 0 -2 0.5 -2.5 2.5 -2.5 1.7 0 2.5 0.6 2.5 1.8 0 1.3 0.2 1.4 0.9 0.4 0.6 -1 1 -0.8 1.4 1 1.1 3.7 0.8 5.6 -0.4 3.6 -1.2 -2.1 -4.9 -2.4 -4.9 -0.4 0 1.6 -2.2 2.6 -5.3 2.5 -2.1 0 -2.1 -0.1 -0.2 -0.8z"/>
  <path d="M122.3 265.3 c1 -0.3 1.7 -1.4 1.7 -2.9 0 -1.6 -0.6 -2.4 -1.7 -2.5 -1.5 0 -1.5 -0.2 0.2 -0.8 1.1 -0.5 2.2 -0.4 2.3 0.1 0.2 0.5 1 0.4 1.8 -0.3 1.1 -0.9 1.4 -0.7 1.4 1.4 0 2.5 -3.7 5.8 -6.2 5.6 -0.7 -0.1 -0.5 -0.3 0.5 -0.6z"/>
  <path d="M74 255.2 c2.5 -1.6 6 -2.4 6 -1.4 0 0.5 -0.6 0.9 -1.2 1 -0.7 0 -2.4 0.3 -3.8 0.7 -1.8 0.5 -2.1 0.4 -1 -0.3z"/>
  <path d="M83.7 253.9 c-0.4 -1.3 0.3 -1.8 2.9 -2.1 2.7 -0.3 3.3 -0.1 2.9 1 -0.3 0.7 -0.5 1.8 -0.5 2.3 0 1.6 -4.9 0.5 -5.3 -1.2z"/>
  <path d="M91.7 254.3 c-0.4 -0.3 -0.7 -1.5 -0.7 -2.6 0 -1.3 -0.5 -1.7 -1.5 -1.3 -0.8 0.3 -1.5 0.1 -1.5 -0.4 0 -0.6 0.4 -1 0.9 -1 0.5 0 1.1 -1.3 1.4 -2.9 0.8 -3.9 3.2 -4.6 7.3 -2 4.4 2.7 4.6 5.3 0.4 4.7 -2.9 -0.4 -3 -0.4 -2.4 2.9 0.5 2.8 0.3 3.3 -1.3 3.3 -1.1 0 -2.3 -0.3 -2.6 -0.7z m8.3 -7.3 c0 -0.5 -0.7 -1 -1.5 -1 -0.8 0 -1.5 0.5 -1.5 1 0 0.6 0.7 1 1.5 1 0.8 0 1.5 -0.4 1.5 -1z"/>
  <path d="M85.7 248.4 c-0.4 -0.4 -0.7 -1.1 -0.7 -1.5 0 -0.9 2.7 -0.5 3.7 0.6 0.4 0.4 0.3 0.5 -0.4 0.2 -0.6 -0.4 -1.3 -0.2 -1.5 0.4 -0.2 0.5 -0.7 0.7 -1.1 0.3z"/>
  <path d="M63.2 244.7 c-1.8 -2.1 3.9 -4.5 7.1 -2.9 1.2 0.6 3.1 1.3 4.2 1.5 1.1 0.3 -0.5 0.5 -3.7 0.6 -3.1 0 -5.8 0.6 -6 1.2 -0.2 0.7 -0.8 0.6 -1.6 -0.4z"/>
  <path d="M54.4 239.9 c-0.3 -0.6 -0.2 -1.5 0.3 -2 1.3 -1.3 4.3 -0.1 4.3 1.7 0 1.6 -3.6 1.9 -4.6 0.3z"/>
  <path d="M294.6 239.2 c-0.3 -0.6 -1.6 -0.8 -2.8 -0.4 -1.7 0.4 -2 0.2 -1.5 -1.1 0.4 -1.1 0.2 -1.4 -0.9 -1 -0.7 0.3 -1.4 0 -1.4 -0.6 0 -0.6 0.5 -1.1 1 -1.1 0.7 0 0.9 -1.5 0.6 -3.7 l-0.5 -3.8 1.3 4 c0.9 2.4 1.5 3.2 1.5 2 0.1 -1.7 0.3 -1.8 1.2 -0.5 0.8 1.1 0.9 0.6 0.5 -2.2 -0.2 -2.1 -0.1 -3.8 0.4 -3.8 0.4 0 1 2.8 1.2 6.3 0.4 6.7 0.3 7.4 -0.6 5.9z"/>
  <path d="M285.2 232.2 c0 -5.5 0.3 -7.1 1.2 -6.2 1.4 1.4 1.3 9 -0.2 11.6 -0.9 1.5 -1.1 0.4 -1 -5.4z"/>
  <path d="M87 235 c0 -0.6 0.6 -1 1.3 -1 0.6 -0.1 0.2 -0.9 -1 -1.9 -2.8 -2.4 -3 -4.1 -0.3 -3.6 2.2 0.4 2.3 0 1 -3 -0.5 -1.1 -0.9 -1.4 -0.9 -0.7 -0.1 0.6 -0.8 1.2 -1.7 1.2 -1.2 0 -1.4 -0.7 -0.9 -3 0.5 -2.3 0.3 -3 -0.9 -3 -0.9 0 -1.6 -0.4 -1.6 -1 0 -0.5 -1.1 -1 -2.4 -1 -1.4 0 -2.8 -0.4 -3.1 -1 -0.3 -0.5 0.1 -1 0.9 -1 0.9 0 1.6 -0.4 1.6 -1 0 -1.7 9.5 -1.1 15.6 1.1 3.2 1.1 6.6 2.2 7.4 2.4 0.8 0.2 1.7 0.4 2 0.5 0.3 0.1 -0.5 0.5 -1.7 1 -2.7 1.1 -3.3 6 -0.8 6 0.8 0 1.5 -0.7 1.5 -1.5 0 -0.9 0.9 -1.5 2.3 -1.4 1.6 0.1 1.8 0.2 0.5 0.6 -1.9 0.5 -2.5 4.3 -0.8 4.3 1.9 0 1 2.8 -1 3.3 -1.1 0.3 -2 1.2 -2 2.1 0 0.9 -0.7 1.6 -1.5 1.6 -0.8 0 -1.5 -0.6 -1.5 -1.2 0 -0.9 -0.3 -1 -0.8 -0.2 -0.9 1.4 -11.2 2.6 -11.2 1.4z m-1 -17 c0 -0.5 -0.7 -1 -1.5 -1 -0.8 0 -1.5 0.5 -1.5 1 0 0.6 0.7 1 1.5 1 0.8 0 1.5 -0.4 1.5 -1z"/>
  <path d="M138.7 230.3 c-1.3 -1.3 -0.7 -2.1 1.3 -1.6 1.1 0.3 2 0.9 2 1.4 0 1 -2.4 1.2 -3.3 0.2z"/>
  <path d="M76.6 227.6 c0.3 -0.8 -0.3 -1.7 -1.4 -2 -1.1 -0.4 -2.6 -1.3 -3.2 -2.1 -1.1 -1.3 -0.9 -1.3 1.6 0 3.4 1.7 6.4 2 6.4 0.4 0 -0.5 0.4 -0.8 1 -0.4 1.3 0.8 0.1 3.5 -1.6 3.5 -0.8 0 -1.4 0.5 -1.4 1 0 0.6 -0.4 1 -1 1 -0.5 0 -0.7 -0.6 -0.4 -1.4z"/>
  <path d="M136.7 225.2 c-1.8 -2.1 -3.2 -9.2 -1.8 -9.2 0.6 0 0.6 -1.1 0.1 -2.9 -0.4 -1.6 -0.6 -3.2 -0.2 -3.5 0.3 -0.3 0.1 -0.6 -0.5 -0.6 -0.5 0 -1.6 -2.6 -2.2 -5.7 -0.7 -3.2 -2.1 -6.7 -3 -7.7 -1.5 -1.8 -1.5 -1.9 0.2 -1.3 1 0.4 2.6 0.7 3.5 0.7 1.5 0 1.5 0.2 0.2 1 -1.3 0.9 -1.3 1 0 1 1.6 0 4 4.3 4 7 0 0.9 0.4 2 0.9 2.6 1.2 1.2 2.3 12.4 1.2 12.4 -0.5 0 -1.1 1.3 -1.3 3 -0.4 2.3 0 3 1.6 3.2 1.8 0.3 1.8 0.4 0.4 1 -1 0.4 -2.2 0 -3.1 -1z"/>
  <path d="M109.7 224.3 c-1 -0.9 -0.9 -2.3 0.2 -2.3 0.5 0 1.1 0.7 1.5 1.5 0.5 1.5 -0.5 2 -1.7 0.8z"/>
  <path d="M279.5 223.3 c-1.1 -0.3 -2.5 -1.4 -3.2 -2.3 -1.1 -1.6 -2.3 -1.8 -8.8 -1.3 -7.1 0.6 -7.5 0.5 -7.5 -1.5 0 -1.8 0.5 -2 5.1 -1.7 2.8 0.2 6.1 0 7.2 -0.4 2.5 -0.9 7.1 1.7 10 5.5 1.8 2.5 1.4 2.7 -2.8 1.7z"/>
  <path d="M50.5 221 c-0.4 -0.6 -0.3 -1 0.2 -0.8 0.4 0.1 2.6 -0.4 4.8 -1 4.9 -1.5 5.5 -1.5 5.5 -0.2 0 0.6 -1.4 1 -3.1 1 -1.7 0 -3.9 0.5 -4.9 1 -1.3 0.7 -2.1 0.7 -2.5 0z"/>
  <path d="M67.5 216 c0.4 -0.6 -0.7 -0.8 -2.7 -0.5 -3 0.5 -2.9 0.4 0.7 -0.8 2.8 -0.9 4.5 -1 5.7 -0.3 2.2 1.3 1.3 2.6 -1.8 2.6 -1.4 0 -2.2 -0.4 -1.9 -1z"/>
  <path d="M96.7 210.3 c-3.1 -3 -5.7 -5.8 -5.7 -6.1 -0.1 -1.2 -3.8 -5.2 -4.8 -5.2 -0.6 0 -1.2 0.6 -1.5 1.3 -0.3 0.6 -0.4 0.2 -0.4 -1.1 0.1 -1.5 0.6 -2.1 1.5 -1.7 0.7 0.3 2.2 0.5 3.3 0.5 1 0 1.9 0.7 1.9 1.5 0 0.8 0.5 1.5 1.1 1.5 0.5 0 0.7 0.5 0.4 1 -0.3 0.6 0.1 1 0.9 1 0.9 0 1.8 1.1 2.2 2.4 0.3 1.4 1.2 2.7 1.9 3 1.1 0.4 1.2 0 0.5 -1.9 -0.6 -1.6 -0.6 -2.5 0.1 -2.5 0.5 0 1.3 0.8 1.6 1.8 0.4 0.9 1.6 2.4 2.8 3.4 1.1 0.9 1.6 2 1.2 2.4 -0.4 0.5 -1.2 0.2 -1.7 -0.6 -1.3 -2.1 -1.2 -0.3 0.1 2.2 1.9 3.5 0.5 2.8 -5.4 -2.9z"/>
  <path d="M257.5 211 c-0.8 -1.3 1.5 -1.3 3.5 0 1.2 0.8 1.1 1 -0.7 1 -1.2 0 -2.5 -0.4 -2.8 -1z"/>
  <path d="M33.2 199 c-2 -0.9 -2.1 -1.2 -1 -3.2 0.7 -1.3 1.4 -2.4 1.5 -2.6 0.1 -0.2 1 0.5 2.1 1.6 1.1 1.1 2.6 2.2 3.3 2.5 1.2 0.5 1.1 0.7 -0.1 1.6 -1.8 1.3 -2.7 1.3 -5.8 0.1z"/>
  <path d="M82 199.1 c0 -0.7 -0.4 -0.9 -1 -0.6 -0.5 0.3 -1 -0.2 -1 -1.2 0 -1.5 -0.2 -1.6 -1 -0.3 -0.8 1.3 -1 1.2 -1 -0.2 0 -1 -0.7 -1.8 -1.5 -1.8 -0.8 0 -2.1 -1.6 -3 -3.5 -1.9 -3.8 -5.2 -5.5 -6.6 -3.4 -0.6 1.1 -0.9 0.9 -0.9 -0.7 0 -3.1 4.1 -6.4 8.1 -6.4 3 0 3.4 -0.3 3.4 -2.5 0 -2 -0.5 -2.5 -2.5 -2.6 -1.4 -0.1 -2.8 -0.1 -3.2 0 -0.5 0 -0.8 -0.3 -0.8 -0.8 0 -1.1 -5.5 -2.2 -7.5 -1.5 -0.8 0.4 -1.5 1.6 -1.5 2.9 0 3.7 -5.9 4.9 -8.2 1.7 -1.1 -1.5 -1.7 -1.6 -3.7 -0.6 l-2.4 1.2 2.9 0.5 2.9 0.4 -2.7 0.2 c-2.1 0.1 -2.8 0.6 -2.8 2.1 0 1.1 -0.6 2 -1.4 2 -0.7 0 -2 0.7 -2.7 1.7 -1.3 1.5 -1.2 1.5 0.9 0.4 1.6 -0.9 2.2 -0.9 2.2 0 0 0.8 1.3 1 4 0.5 4.3 -0.7 5.4 0.7 2.3 3 -1 0.7 -1.5 1.6 -1 2 0.4 0.4 1.3 0.2 1.9 -0.4 1.7 -1.7 9.8 -1.6 9.8 0.1 0 1.5 -3.2 1.9 -4.1 0.5 -0.8 -1.3 -8.9 1.4 -8.9 2.9 0 1.6 -3.2 1.7 -4.6 0.3 -0.7 -0.7 -1.9 -0.7 -3.5 -0.2 -1.3 0.5 -3.3 0.6 -4.4 0.1 -1.8 -0.7 -1.8 -0.8 0.5 -0.9 l2.5 -0.2 -2.5 -0.7 c-2.1 -0.6 -2.2 -0.8 -0.7 -1.4 1.2 -0.5 1.6 -1.3 1.2 -3 -0.8 -2.9 3.7 -8.9 8.3 -11.1 1.7 -0.9 3.2 -2.1 3.2 -2.7 0 -0.6 0.7 -0.8 1.6 -0.5 0.8 0.3 1.2 0.2 0.9 -0.4 -0.5 -0.9 5.1 -3.9 10.5 -5.5 2.3 -0.7 2.4 -0.7 1 1.1 -0.8 1 0 0.6 1.8 -0.9 2.4 -1.9 4.6 -2.7 7.5 -2.8 15.1 -0.5 18.6 -0.4 22.2 0.4 7.1 1.6 15.5 5.3 15.5 6.7 0 1.2 -1.3 1.3 -2.4 0.3 -0.4 -0.5 -1.3 -0.8 -1.9 -0.8 -0.7 -0.1 -1.1 -0.5 -1 -1 0.1 -0.6 -1.2 -1 -2.8 -1.1 -1.6 -0.1 -2.9 0.3 -2.9 0.7 0 1.4 -3 1 -4.7 -0.6 -0.8 -0.8 -1.9 -1.3 -2.4 -1 -1.5 1 -1 2.2 1.1 2.8 1.2 0.3 2 1.4 2 2.5 0 2.1 -2.4 5.2 -4 5.2 -0.5 0 -1.6 0.7 -2.4 1.6 -1.5 1.4 -1.7 1.4 -3.2 0 -1.4 -1.5 -1.3 -1.6 1.3 -1.6 3.3 0 7.3 -2.5 7.3 -4.5 0 -2.1 -4.1 -3 -5.2 -1.1 -0.6 1 -2.2 1.6 -4.4 1.6 -3.8 0 -7.4 1.5 -7.4 3 0 0.6 0.8 1 1.8 1.1 1.3 0 1.4 0.2 0.2 0.6 -3.2 1.3 -5.5 5.3 -3 5.3 0.6 0 1 0.5 1 1 0 0.6 -0.6 1 -1.2 0.9 -3 -0.4 -4.9 0.2 -4.5 1.4 0.2 0.7 1.5 1.1 3 0.9 1.5 -0.2 2.7 0.1 2.7 0.7 0 0.5 1.5 0.8 3.3 0.7 1.7 -0.2 2.5 -0.2 1.6 0.1 -2.1 0.5 -3.2 4.3 -1.7 6 0.6 0.8 0.8 1.6 0.4 2 -0.3 0.3 -0.6 0.1 -0.6 -0.6z m-37 -16.6 c1.9 -1.9 3.2 -3.5 2.9 -3.5 -0.3 0 -2 1.6 -3.9 3.5 -1.9 1.9 -3.2 3.5 -2.9 3.5 0.3 0 2 -1.6 3.9 -3.5z m35 -11.2 c-0.8 -0.3 -2.1 -1.2 -2.7 -2.1 -1.1 -1.4 -1.3 -1.4 -1.3 -0.1 0 2.1 1 2.9 3.4 2.8 1.4 0 1.6 -0.2 0.6 -0.6z"/>
  <path d="M93.1 194.4 c1.1 -1.3 7.9 -1.6 7.9 -0.4 0 0.4 -2 1 -4.4 1.1 -3.3 0.3 -4.2 0.1 -3.5 -0.7z"/>
  <path d="M89 193.6 c0 -0.8 -0.6 -1.7 -1.2 -1.9 -0.8 -0.3 -0.6 -0.6 0.5 -0.6 1.1 -0.1 1.7 0.6 1.7 1.9 0 1.1 -0.2 2 -0.5 2 -0.3 0 -0.5 -0.6 -0.5 -1.4z"/>
  <path d="M68 192 c-1.2 -0.8 -1.1 -1 0.7 -1 1.2 0 2.5 0.5 2.8 1 0.8 1.3 -1.5 1.3 -3.5 0z"/>
  <path d="M34.8 190.8 c1.4 -1.4 4.4 -2 3.6 -0.7 -0.3 0.5 -1 0.7 -1.5 0.4 -0.5 -0.4 -0.9 -0.1 -0.9 0.4 0 0.6 -0.5 1.1 -1.2 1.1 -0.9 0 -0.9 -0.3 0 -1.2z"/>
  <path d="M111 184.6 c0 -1.6 4.8 -2.8 5.6 -1.4 0.8 1.2 0.5 1.4 -2.8 2.2 -2.1 0.5 -2.8 0.3 -2.8 -0.8z"/>
  <path d="M58 182.5 c0 -0.8 0.9 -1.5 2 -1.5 1.1 0 2 0.7 2 1.5 0 0.8 -0.9 1.5 -2 1.5 -1.1 0 -2 -0.7 -2 -1.5z"/>
  <path d="M118 182 c0 -0.6 -2.2 -2.5 -5 -4.2 -2.7 -1.7 -5 -3.6 -5 -4.1 0 -0.6 0.8 -0.3 1.8 0.6 1 1 2.3 1.7 2.8 1.7 0.9 0 7.4 5.7 7.4 6.6 0 0.2 -0.4 0.4 -1 0.4 -0.5 0 -1 -0.5 -1 -1z"/>
  <path d="M147 142.3 c0 -0.9 -0.6 -1.2 -1.9 -0.8 -1 0.3 -2.3 0 -2.8 -0.7 -1.5 -1.9 -1.2 -4.8 0.4 -4.8 0.8 0 1.1 0.5 0.8 1 -0.3 0.6 0.3 1 1.4 1 1.2 0 2.1 0.7 2.1 1.5 0 0.9 1 1.9 2.2 2.4 l2.2 0.8 -2.2 0.5 c-1.5 0.4 -2.2 0.2 -2.2 -0.9z"/>
  <path d="M171.6 140.8 c-2.5 -1.4 -1.9 -2.5 1.9 -3.2 2.1 -0.4 3.5 -1.3 3.5 -2.1 0 -0.9 1 -1.5 2.5 -1.5 3 0 3.2 1.4 0.6 3.7 -1.1 0.9 -1.8 2 -1.5 2.5 0.3 0.4 0.2 0.8 -0.3 0.9 -0.4 0 -1.8 0.2 -3 0.3 -1.2 0.1 -2.9 -0.1 -3.7 -0.6z"/>
  <path d="M187 128.1 c0 -1.6 0.6 -2.1 2.4 -2.1 1.6 0 2.7 -0.7 3.1 -2 0.3 -1.1 1.1 -2 1.7 -2 0.6 0 2.1 -1.1 3.4 -2.5 1.5 -1.6 3.4 -2.5 5.4 -2.5 4.7 0 3.6 1.7 -3.2 5.1 -3.5 1.7 -7.8 4.2 -9.5 5.6 -3.2 2.3 -3.3 2.3 -3.3 0.4z"/>
  <path d="M141.7 121 c0.8 -3.1 2.3 -3.4 2.3 -0.6 0 1.6 -0.6 2.6 -1.4 2.6 -0.9 0 -1.2 -0.7 -0.9 -2z"/>
  <path d="M138 118.6 c0 -0.8 0.5 -1.8 1.2 -2.2 0.7 -0.5 0.8 -0.3 0.3 0.6 -0.4 0.7 -0.2 1.6 0.6 2.1 1.1 0.7 1 0.9 -0.3 0.9 -1 0 -1.8 -0.6 -1.8 -1.4z"/>
  <path d="M209.3 117.3 c0.9 -0.2 2.5 -0.2 3.5 0 0.9 0.3 0.1 0.5 -1.8 0.5 -1.9 0 -2.7 -0.2 -1.7 -0.5z"/>
  <path d="M205.5 68 c0.3 -0.5 1.9 -1 3.6 -1 1.6 0 2.9 0.5 2.9 1 0 0.6 -1.6 1 -3.6 1 -2.1 0 -3.3 -0.4 -2.9 -1z"/>
  <path d="M207 65 c0 -0.5 -0.8 -1 -1.7 -1 -1.5 0 -1.6 -0.2 -0.3 -1 0.8 -0.5 3.1 -0.9 5 -0.8 2.3 0 2.7 0.2 1.3 0.5 -1.3 0.2 -2.3 1.1 -2.3 1.9 0 0.8 -0.4 1.4 -1 1.4 -0.5 0 -1 -0.4 -1 -1z"/>
 </g>
 <g fill="#a61c14">
  <path d="M267.9 243.8 c-2 -0.5 -6.2 -3.2 -9.3 -6 -7.2 -6.4 -11.5 -14.5 -12.3 -23.4 l-0.6 -6.5 5.2 3.5 c6.7 4.6 12.1 6 19.3 5.2 l5.8 -0.7 5.4 5.1 c3 2.9 5.7 6.4 6.1 7.8 0.8 4 -1.1 9.1 -4.7 12.9 -2.6 2.7 -3.9 3.3 -7.2 3.2 -2.3 -0.1 -5.7 -0.5 -7.7 -1.1z m10.7 -8 c2.5 -3 2.5 -3.3 0.8 -3.7 -1 -0.2 -2.2 -0.9 -2.6 -1.6 -1.7 -2.9 -11.9 -8.6 -17.9 -9.9 -3.5 -0.9 -6.5 -1.3 -6.7 -1.1 -0.7 0.7 2 6.5 3 6.5 0.5 0 1.2 0.8 1.5 1.8 1.4 3.4 12.7 11.2 16.5 11.2 1.7 0 3.5 -1.1 5.4 -3.2z"/>
  <path d="M165.5 139.6 c-6.7 -1.4 -11.2 -3.5 -16.8 -7.9 -4.7 -3.9 -7.6 -8.4 -6.9 -10.9 1.1 -4.5 17.2 -8.1 17.2 -3.9 0 1.5 -1 2 -6 2.5 -3.3 0.4 -6 1 -6 1.5 0 3.2 15 12 21.9 12.7 4.5 0.5 4.7 0.4 8.6 -4.3 2.1 -2.7 5.3 -5.8 7 -7 4.8 -3.5 14.3 -8.3 16.3 -8.3 1 0 2.4 -0.6 3.1 -1.2 0.8 -0.9 5.5 -1.3 15.9 -1.3 l14.7 0 7.3 3.7 7.4 3.6 4.4 -9.5 c3.2 -7 4.4 -10.7 4.2 -13.7 -0.1 -3.9 -0.1 -3.9 -0.5 -0.7 -0.6 4.4 -3 8.1 -5.4 8.1 -1.2 0 -1.9 0.7 -1.9 1.9 0 2.1 -1.9 3.1 -6 3.1 -4.1 0 -6 -1 -6 -3.1 0 -1 -0.4 -1.9 -1 -1.9 -0.5 0 -1 -1.7 -1 -3.8 0 -2.5 -0.7 -4.3 -2 -5.5 -1.1 -0.9 -2 -2.4 -2 -3.2 0 -0.8 -0.4 -1.5 -1 -1.5 -0.5 0 -1 -0.7 -1 -1.5 0 -0.7 -0.6 -1.8 -1.4 -2.2 -0.8 -0.4 -3.8 -3 -6.8 -5.8 -2.9 -2.7 -6.5 -5.5 -7.9 -6.1 l-2.5 -1.2 1.9 5.7 c2.4 6.7 3.4 21.3 1.8 25.5 -1.1 2.8 -1.3 2.9 -6.4 2.3 -4.4 -0.5 -5.8 -1.2 -9 -4.7 -2.1 -2.2 -4.2 -4 -4.7 -4 -0.6 0 -1 -0.6 -1 -1.3 0 -0.8 -1.9 -1.9 -4.2 -2.6 -2.4 -0.7 -5.2 -1.8 -6.3 -2.5 -1.1 -0.7 -4.4 -2.1 -7.4 -3.1 -4.4 -1.4 -6 -1.5 -9.2 -0.6 -2.2 0.7 -3.9 1.3 -3.9 1.4 0 1.5 4.4 8.2 6.4 9.8 1.4 1.1 2.6 2.7 2.6 3.5 0 0.8 0.6 1.4 1.3 1.4 0.7 0 2.7 1.5 4.5 3.3 2.5 2.6 3.2 4.1 3.2 7.4 0 3.9 -0.1 4.1 -3.7 4.7 -7.1 1.1 -9.3 0.8 -9.3 -1.4 0 -1.5 0.7 -2 2.9 -2 6.6 0 6.5 -0.9 -1.2 -8.5 -12.6 -12.4 -14.7 -20.2 -6.2 -23.2 10.9 -3.9 31.6 4 43.2 16.5 1.4 1.6 2.8 2.2 3.9 1.8 2.5 -1 1.3 -13.9 -2.4 -24.8 -1.6 -4.8 -2.7 -9 -2.4 -9.3 1.3 -1.2 6.8 -0.3 11.5 2 10.5 5 19.8 15.8 23.8 27.4 1.3 3.9 2.9 7.1 3.5 7.1 2.1 0 8.1 -7.6 11.3 -14.4 3.6 -7.8 4.8 -7.7 7.6 0.2 4.8 13.7 2.4 30.8 -5.8 40.5 l-2.4 2.8 -4.4 -4.2 c-2.4 -2.3 -7.8 -5.8 -11.9 -7.8 -7.3 -3.5 -7.8 -3.6 -18.5 -3.5 -6.8 0.1 -12.3 0.6 -14.5 1.5 -8.6 3.4 -16.5 8.7 -22.8 15.1 -7.3 7.4 -7.4 7.5 -17.7 5.4z"/>
 </g>
 <g fill="#be2117">
  <path d="M267.1 242.4 c-0.6 -1.1 -1.1 -1.6 -1.1 -1.2 0 0.4 -1.2 -0.4 -2.7 -1.8 -1.4 -1.3 -2.8 -2.2 -3 -2 -0.5 0.5 -6.3 -5.3 -6.3 -6.4 0 -0.5 -0.6 -1.3 -1.4 -1.7 -1.7 -1 -4.1 -5.4 -3.8 -7 0.2 -0.7 -0.2 -1.3 -0.7 -1.3 -0.6 0 -0.8 -0.6 -0.5 -1.4 0.3 -0.8 0.1 -2.3 -0.4 -3.3 -1.3 -2.4 -0.2 -4.8 2.3 -4.8 1.1 0 1.8 0.3 1.5 0.7 -0.8 1.2 7.1 5 9.1 4.5 1.1 -0.3 1.9 -0.2 1.9 0.3 0 0.4 1.4 1 3.1 1.4 3.5 0.7 13.8 7.2 14.6 9.3 0.3 0.7 1.4 1.3 2.4 1.3 1.4 0 1.9 0.7 1.9 2.9 0 1.6 0.6 3.2 1.3 3.4 0.6 0.3 0.3 0.6 -0.8 0.6 -1.7 0.1 -1.7 0.3 -0.5 1.1 1.3 0.8 1.3 1 -0.1 1 -0.9 0 -2.4 0.9 -3.4 2 -1 1.1 -3.1 2 -4.7 2 -1.5 0 -2.8 0.5 -2.8 1 0 0.6 -0.7 1 -1.5 1 -0.8 0 -1.5 -0.6 -1.5 -1.2 0 -1 -0.3 -0.9 -0.9 0.1 -0.7 1.1 -1.1 1 -2 -0.5z"/>
  <path d="M172.2 139.4 c-0.5 -0.9 -3.1 -2 -5.8 -2.5 -10.7 -1.9 -23.4 -10.8 -23.4 -16.4 0 -4 7 -5.1 32.8 -5.5 1.2 0 2.2 -0.5 2.2 -1.2 0 -2 -6.1 -7.7 -7.6 -7.1 -0.9 0.3 -1.4 -0.2 -1.4 -1.4 0 -1.9 -3.2 -5.7 -4.1 -4.9 -0.2 0.2 -1.8 -2.5 -3.6 -5.9 l-3.1 -6.4 2.5 -2.5 c2.3 -2.3 3 -2.5 10.1 -2.1 9.5 0.6 12.2 0.9 11.6 1.4 -0.5 0.6 4.3 3 10.1 5.1 2.8 1 4.9 2.3 4.7 2.9 -0.1 0.6 0.7 1.1 1.9 1.1 1.1 0 1.8 0.4 1.5 0.8 -0.7 1.2 5.4 6.8 8.2 7.5 3.1 0.7 4.1 -2 3.7 -9.8 -0.2 -5.5 -3.8 -18.8 -5.6 -20.9 -2.7 -3.1 4.7 -5 8.5 -2.1 1.1 0.8 2.8 1.5 3.8 1.5 1 0 1.7 0.4 1.6 0.8 -0.2 0.4 2.5 3.3 6 6.4 3.5 3.1 6.2 6 6 6.3 -0.2 0.4 0.5 1.1 1.5 1.6 0.9 0.6 1.5 1.4 1.2 2 -0.4 0.5 -0.1 0.9 0.6 0.9 0.7 0 1 0.3 0.7 0.6 -0.3 0.3 0.5 1.7 1.8 3.1 2.5 2.7 3.2 5.3 1.4 5.3 -1.8 0 -1 1.8 1 2.3 2.2 0.6 2.8 2.7 0.8 2.7 -0.9 0 -0.8 0.4 0.2 1 2.2 1.4 2.4 1.3 6.8 -2.9 3.6 -3.5 8.8 -12.4 8.4 -14.3 -0.3 -1.5 1.9 -0.8 2.4 0.7 0.4 0.8 1.4 1.5 2.3 1.6 1 0 1.1 0.2 0.4 0.6 -0.9 0.3 -1.3 2.7 -1.3 6.8 0 5.4 -0.7 7.7 -4.9 16.7 -3.5 7.6 -5.5 10.7 -7 11.1 -1.5 0.3 -2.4 -0.1 -3.1 -1.4 -1.5 -2.8 -12.9 -7.8 -19.6 -8.5 -5.1 -0.6 -5.7 -0.5 -5.1 0.9 0.4 1 0.2 1.7 -0.2 1.7 -0.5 0 -1.2 -0.7 -1.5 -1.6 -0.5 -1.4 -1.6 -1.6 -6.4 -1 -3.1 0.4 -6.1 1.1 -6.6 1.6 -0.6 0.6 -1.8 1 -2.8 1 -2 0 -11.5 4.8 -16.3 8.3 -1.7 1.2 -4.9 4.3 -7 6.9 -2.2 2.6 -4.8 4.9 -5.9 5.2 -1.2 0.3 -1.6 1 -1.3 2 0.8 2.1 0.1 2.1 -1.1 0z"/>
 </g>
 <g fill="#ef8e2f">
  <path d="M286.5 322.3 c-5.1 -6 -13.8 -11.6 -21.4 -13.7 -5.4 -1.5 -6.1 -2 -6.1 -4.3 0 -1.4 1.3 -4.9 2.9 -7.7 2.6 -4.5 5.8 -13.9 7.5 -21.8 0.6 -2.4 1.1 -2.8 4.3 -2.8 2.1 0 4.5 0.8 5.6 1.8 1.9 1.7 1.9 1.6 1.2 -3.8 -0.4 -3 -1.1 -6.5 -1.6 -7.8 -0.5 -1.3 -0.9 -3.4 -0.9 -4.7 0 -2 0.7 -2.4 4.3 -3 2.3 -0.4 6.4 -1.8 9.2 -3.1 l4.9 -2.4 4.7 4.6 c2.8 2.8 6 7.5 8.1 11.8 3.2 6.9 3.3 7.5 3.3 19.7 0 12.5 0 12.5 -3.8 20.3 -2.5 5 -6.2 10.2 -10.4 14.7 -3.6 3.8 -6.8 6.9 -7.2 6.9 -0.3 -0.1 -2.4 -2.1 -4.6 -4.7z"/>
  <path d="M142 314 c0 -1.1 0.7 -2 1.5 -2 0.9 0 1.8 -0.6 2.1 -1.4 0.3 -0.8 3.8 -3.4 7.7 -5.7 4.1 -2.4 11.1 -8.2 16.2 -13.1 8.2 -8.2 9.2 -8.9 12.5 -8.6 l3.5 0.3 -0.3 9 c-0.2 6.5 -0.8 9.5 -1.9 10.7 -2.3 2.5 -3.1 2.2 -2.5 -0.9 l0.5 -2.7 -4.9 3.6 c-7.3 5.3 -16 9.3 -24.1 11.2 -9.3 2.1 -10.3 2 -10.3 -0.4z"/>
 </g>
 <g fill="#f3b53a">
  <path d="M101.6 483.8 c0.4 -3.5 1.2 -7.2 1.9 -8.3 0.7 -1.1 9 -10 18.5 -19.8 l17.3 -17.8 -14.8 0.7 -14.8 0.7 0.8 -6.9 c0.4 -3.8 1.1 -7.3 1.6 -7.8 0.5 -0.5 10.2 -1.5 21.6 -2.2 11.5 -0.7 23.5 -1.6 26.7 -1.9 l5.9 -0.6 -0.7 6.7 c-0.4 3.7 -1 7.3 -1.4 7.9 -0.4 0.7 -7.7 8.5 -16.2 17.5 -15.8 16.6 -18.6 19.8 -17.7 20.6 0.3 0.3 6.7 0.1 14.3 -0.4 7.7 -0.6 14.3 -0.8 14.7 -0.5 0.4 0.3 0.6 1.2 0.3 2.1 -0.2 1 -0.7 4.3 -1.1 7.5 l-0.6 5.7 -8.2 0 c-4.5 0 -13.1 0.4 -19.2 0.9 -6 0.6 -15.2 1.2 -20.2 1.6 l-9.3 0.6 0.6 -6.3z"/>
  <path d="M185.9 485 c-13.5 -2.3 -19.9 -10.4 -19.9 -25 0 -17.9 9 -33 23.9 -39.8 4.5 -2.1 7.5 -2.7 15.3 -3 11.8 -0.5 17.8 1.2 23.1 6.6 5.1 5.2 6.9 10.1 6.9 19.1 0 16.1 -9.3 31.6 -23 38.5 -3.8 1.9 -18.1 5 -21 4.5 -0.4 -0.1 -2.8 -0.5 -5.3 -0.9z m17.4 -16.5 c4.7 -1.9 8.3 -6.5 10.2 -12.7 1.7 -5.9 2 -14.4 0.5 -18.3 -1.3 -3.4 -7 -5.8 -12 -5 -10.1 1.7 -15.5 10.2 -15.5 24.3 0 7.9 0.1 8.5 2.8 10.8 3.3 2.8 8.6 3.2 14 0.9z"/>
  <path d="M238.3 478.8 c0.3 -1.8 2.3 -16.9 4.3 -33.5 4.3 -34.4 2.7 -31.3 15.1 -31.3 8.5 0 7.3 -1.3 18.9 19.8 7.2 13.1 9.4 16.1 9.4 13 0 -2.3 3.9 -34.1 4.3 -34.4 0.1 -0.2 4.4 -0.6 9.5 -1 8.6 -0.6 9.2 -0.6 9.2 1.2 -0.1 5.4 -8.7 64.5 -9.5 65.3 -0.9 0.9 -18.2 1.8 -18.9 1 -0.2 -0.2 -2 -3.5 -4.1 -7.4 -7.5 -13.8 -14.7 -25.6 -15.2 -25.1 -0.6 0.5 -2.8 16.5 -4 27.4 -0.3 3.5 -1.1 6.5 -1.7 6.7 -0.6 0.2 -4.9 0.6 -9.5 1 l-8.3 0.6 0.5 -3.3z"/>
  <path d="M311.6 477.2 c-0.3 -0.4 1 -12.5 2.9 -26.8 1.9 -14.2 3.7 -29 4.1 -32.7 0.4 -3.8 1.2 -7 1.8 -7.2 1.6 -0.5 51.7 -3.7 52 -3.3 0.2 0.2 -0.1 3.7 -0.7 8 l-1 7.6 -4.1 0.6 c-2.3 0.3 -9.6 0.8 -16.4 1.2 -6.7 0.4 -12.4 1 -12.6 1.3 -0.2 0.3 -0.6 2.4 -0.7 4.6 -0.4 4.6 -2 4.3 17 3.1 l10.4 -0.6 -0.7 7.2 c-0.4 4 -1.1 7.5 -1.7 7.9 -0.6 0.3 -4.3 0.7 -8.2 0.8 -9.6 0.2 -19.7 1.2 -19.7 2 -0.1 0.3 -0.5 2.5 -0.9 4.9 -0.6 3 -0.5 4.5 0.3 4.8 0.6 0.2 8 0.1 16.5 -0.3 12 -0.6 15.5 -0.5 15.8 0.4 0.5 1.2 -1.2 13.2 -1.9 13.8 -0.3 0.3 -13.1 1 -34.3 2 -6 0.3 -12.4 0.8 -14.2 1.1 -1.7 0.2 -3.4 0.1 -3.7 -0.4z"/>
  <path d="M128.1 409.9 c-22.5 -7.2 -26.7 -38.6 -8.5 -64.5 9.1 -13 25.1 -20.4 43.9 -20.4 14.6 0 23.3 4.5 27.4 14.1 3.7 8.4 3 9.7 -6.9 13.4 -4.7 1.8 -9.9 3.5 -11.6 3.9 -2.9 0.6 -3.1 0.5 -4.3 -3.4 -2.1 -7 -9.5 -9.7 -17.3 -6.2 -9.3 4.1 -14 12.3 -14.6 26 -0.7 14.1 2.5 19.2 12 19.2 6.8 0 10.8 -2 15.8 -7.8 3.8 -4.4 4.6 -4.9 6.8 -4.1 1.3 0.5 5.5 1.6 9.3 2.5 4 0.9 6.9 2.1 6.9 2.8 0 4.2 -12.5 17.8 -19.8 21.5 -10.3 5.3 -27.7 6.6 -39.1 3z"/>
  <path d="M221.2 405.9 c-7.3 -1.2 -16.4 -6 -19.9 -10.6 -7.5 -9.6 -9 -24.9 -3.9 -39.8 3.4 -10 7 -15.7 14.4 -22.7 9.8 -9.4 21.6 -14 36.2 -14.1 15.6 -0.2 26.7 5.8 32.7 17.7 7.2 13.9 2.2 38.3 -10.8 53 -11.2 12.6 -31.1 19.4 -48.7 16.5z m21.1 -20.4 c8.8 -3.6 13.6 -11.1 15.7 -24.1 2.4 -14.8 -2.3 -22.4 -13.7 -22.4 -9.4 0.1 -17.4 6.2 -20.8 15.9 -2.2 6.3 -3.1 18.9 -1.6 23.4 1.9 5.5 6.2 8.7 12.1 8.7 2.6 0 6.4 -0.7 8.3 -1.5z"/>
  <path d="M356 398.8 c-6.7 -2.5 -8.1 -2.5 -19.2 -0.4 -7 1.4 -10.3 1.5 -15.8 0.7 -20.2 -2.8 -29.6 -16.3 -27 -38.9 2.4 -21.3 15.9 -39 34.5 -45.2 32.2 -10.7 56.2 3.8 54.2 32.7 -0.3 4.7 -1.6 11.2 -3 15.2 -2.5 7.1 -10.3 19.2 -13.8 21.4 -2.9 1.8 -2.3 3.4 2.1 6.3 2.2 1.5 4 3 4 3.5 0 0.4 -1.2 2.1 -2.6 3.8 -3.1 3.7 -5.5 3.8 -13.4 0.9z m-19.5 -21.5 c-0.5 -2.5 0.1 -3.2 5.7 -7 5.4 -3.6 6.3 -3.9 7.3 -2.6 2.5 3.4 7.5 -9.8 7.5 -19.7 0 -10 -5.1 -16 -13.7 -16 -9.9 0 -17.7 6.5 -21.2 17.9 -5.7 18.9 -2 30.1 10 30.1 4.7 0 4.8 -0.1 4.4 -2.7z"/>
  <path d="M125.9 316.6 c-0.4 -0.4 1.9 -3.3 5 -6.4 5.3 -5.2 11.9 -14.7 11 -15.7 -0.3 -0.2 -3.2 1.8 -6.5 4.4 -7.9 6 -16.9 10.1 -23.3 10.4 -2.7 0.1 -5.3 -0.1 -5.7 -0.5 -0.4 -0.4 2.2 -3.8 5.7 -7.6 3.5 -3.7 9.3 -10.8 12.8 -15.7 15.1 -21 23.3 -29.5 37.6 -39 8.4 -5.5 10 -7.7 11.1 -14.6 0.7 -4.1 0.7 -4.1 -1.7 -2.9 -1.3 0.7 -3.6 2.1 -5.1 3.1 -4.8 3.4 -5.1 2.8 -4.4 -7.7 2.1 -31.8 12.2 -63.3 25.5 -80.2 15.1 -19 40.6 -22.9 56.7 -8.5 1.7 1.5 4.4 4.5 5.9 6.5 l2.7 3.8 -6.6 13.2 c-5.8 11.5 -6.8 14.5 -7.8 21.8 -0.9 7 -0.8 9.4 0.4 13.6 1.3 4.4 1.3 5.5 0 9 -0.9 2.3 -1.5 7.3 -1.5 12.4 0 7.5 0.4 9.4 3.1 15 3.8 8 8.7 13.8 14.9 17.8 5.4 3.5 14.6 6.2 20.9 6.2 3.9 0 4.1 0.2 5.3 4.1 1.9 6.1 2.5 17 1.2 20.3 l-1.2 2.9 -3.9 -3.8 c-2.2 -2.1 -4.2 -3.6 -4.5 -3.4 -0.3 0.3 -1.4 4.1 -2.5 8.5 -1.1 4.3 -3.6 11.1 -5.6 15 -2.1 4.1 -3.3 7.7 -2.9 8.4 0.5 0.9 0.2 1 -1.3 0.6 -3.4 -1.1 -21.3 -0.8 -26.7 0.4 -2.7 0.6 -9.3 2.9 -14.5 5.2 -8.2 3.5 -10.2 3.9 -14.4 3.4 -2.7 -0.3 -5.1 -0.8 -5.4 -1 -0.2 -0.3 1.1 -2.7 3.1 -5.3 7.5 -10.4 10.7 -20.3 10.7 -33.3 0 -7.1 -0.4 -9.1 -3 -14.6 -2.9 -5.9 -11.1 -14.6 -12.6 -13.1 -0.3 0.3 0.4 3.5 1.5 7.2 5.3 17 0.4 34.2 -13.6 48.4 -4.1 4.1 -7.6 7.1 -8 6.8 -0.3 -0.3 0.2 -2.4 1.1 -4.7 0.9 -2.2 1.8 -6.4 2 -9.3 0.2 -2.8 0.7 -6.4 1.1 -7.8 1.3 -5.1 -1.3 -3.8 -10.1 4.9 -4.9 4.8 -11.8 10.5 -15.4 12.6 -3.6 2.2 -7.2 4.8 -8.1 5.9 -0.9 1.1 -2.5 2.2 -3.5 2.3 -5.8 0.9 -19 1.5 -19.5 1z m89.5 -154.6 c5.4 -8.3 9.5 -8.5 16 -0.9 l3.6 4.3 0 -2.9 c0 -8.5 -5.2 -15.5 -11.7 -15.5 -6.2 0 -13.3 9.2 -13.3 17.3 0 3 2.6 1.9 5.4 -2.3z"/>
  <path d="M260.4 207.6 c-6.8 -3 -11.2 -10.3 -12.9 -21.3 -0.9 -5.8 0.1 -7 3.4 -4 1.4 1.4 6.9 5.4 12.2 9 9.7 6.5 16.6 9.7 21.7 9.7 l2.7 0.1 -2.9 2.3 c-6 4.9 -17.8 7 -24.2 4.2z"/>
  <path d="M250.2 174.8 c-1.9 -1 -2.1 -1.6 -1.6 -4.7 0.9 -5.4 5.9 -15.2 9.2 -18.4 2.5 -2.4 4 -2.9 10.4 -3.4 14.1 -1.1 30.9 5.2 38.4 14.3 1.9 2.3 3.4 4.4 3.4 4.7 0 0.4 -2.8 0.4 -6.2 0.1 -11.3 -1 -26.2 1 -36.5 5 -9.6 3.7 -13.2 4.2 -17.1 2.4z m14.8 -17.5 c0 -1.8 -0.5 -2.4 -1.7 -2.1 -2.3 0.4 -4.8 5 -3.9 7.3 0.6 1.7 0.8 1.6 3.1 -0.5 1.4 -1.3 2.5 -3.4 2.5 -4.7z"/>
 </g>
</svg>