<?xml version="1.0" encoding="UTF-8"?>
<svg version="1.1" xmlns="http://www.w3.org/2000/svg" width="1454" height="2000">
<path d="M0 0 C0.75453461 -0.0066568 1.50906921 -0.0133136 2.28646851 -0.02017212 C3.87471101 -0.03023116 5.46299521 -0.03499125 7.05126953 -0.03466797 C9.43466131 -0.03901458 11.81615661 -0.07532969 14.19921875 -0.11328125 C24.12057327 -0.18589147 32.42091666 0.96215109 41.8359375 4.3359375 C42.86170898 4.70315918 43.88748047 5.07038086 44.94433594 5.44873047 C63.62614885 12.44176011 80.30993649 25.39050376 96.8359375 36.3359375 C98.31510219 37.31250299 99.79426857 38.28906593 101.2734375 39.265625 C127.70915689 56.76523114 153.58508007 75.16873116 178.8359375 94.3359375 C179.40119141 94.76471191 179.96644531 95.19348633 180.54882812 95.63525391 C187.50705909 100.92408723 194.36679714 106.3279954 201.17773438 111.8046875 C204.81520528 114.72812249 208.47421492 117.61986482 212.15917969 120.4831543 C218.18058129 125.16656057 224.03191847 130.00553534 229.79931641 134.99829102 C233.24640419 137.98147798 236.7290496 140.90541948 240.2734375 143.7734375 C249.97301993 151.65613649 259.34966164 159.93554199 268.609375 168.328125 C271.49084191 170.92650043 274.41152987 173.4781023 277.33984375 176.0234375 C278.19246691 176.77143066 279.03392128 177.53392128 279.8359375 178.3359375 C279.83480957 177.08570801 279.83368164 175.83547852 279.83251953 174.54736328 C279.8362154 169.86901481 279.87923339 165.19168317 279.93359375 160.51367188 C279.95166195 158.4964863 279.95933906 156.47917789 279.95605469 154.46191406 C279.93607169 134.25910432 279.93607169 134.25910432 285.35888672 126.74560547 C286.8359375 125.3359375 286.8359375 125.3359375 288.8359375 125.3359375 C288.8359375 124.6759375 288.8359375 124.0159375 288.8359375 123.3359375 C301.04308378 116.0586003 313.36462159 118.15670728 327.1015625 119.91015625 C328.45186857 120.07655052 329.8022639 120.24222187 331.15274048 120.40722656 C334.72889365 120.84614178 338.30379271 121.29452008 341.87844086 121.7455101 C345.5878734 122.21253366 349.29810843 122.67309124 353.00830078 123.1340332 C354.49734699 123.3190603 355.98639118 123.50410361 357.47543335 123.68916321 C358.20995098 123.78044306 358.94446861 123.87172291 359.70124435 123.96576881 C361.91679753 124.24155547 364.13219154 124.5185935 366.3475647 124.79582214 C374.85047806 125.85758807 383.35773503 126.86409252 391.875 127.8046875 C394.63985451 128.11625562 397.40459123 128.42885116 400.16931152 128.74160767 C401.83766844 128.9266045 403.50669759 129.10565527 405.1763916 129.27816772 C416.73444232 130.47516457 428.27676451 132.26363788 437.2109375 140.3984375 C438.33628906 141.37490234 438.33628906 141.37490234 439.484375 142.37109375 C446.63857479 151.39108982 449.18988391 161.54861573 451.1484375 172.6484375 C451.43410094 174.19529675 451.72059053 175.7420036 452.0078125 177.28857422 C452.98810605 182.63128365 453.91579327 187.98258469 454.8359375 193.3359375 C455.09790924 194.8548056 455.09790924 194.8548056 455.36517334 196.40435791 C461.19403261 230.28439897 466.36571116 264.25016408 470.8359375 298.3359375 C470.99065521 299.51373779 470.99065521 299.51373779 471.14849854 300.71533203 C473.11273323 315.74470977 474.71772522 330.78470768 476.046875 345.8828125 C476.26284288 348.29972466 476.47882604 350.71663546 476.69482422 353.13354492 C477.11967944 357.897913 477.52168446 362.66348978 477.91064453 367.4309082 C478.10383696 369.64019411 478.29765685 371.84942527 478.4921875 374.05859375 C478.56819183 375.06343811 478.64419617 376.06828247 478.72250366 377.10357666 C479.54697243 386.11923088 482.19927582 393.03451532 488.2734375 399.8359375 C489.16081316 400.85524307 490.04473642 401.87756113 490.92578125 402.90234375 C491.39483887 403.44777832 491.86389648 403.99321289 492.34716797 404.55517578 C495.12193392 407.87415624 497.72191739 411.32743974 500.3359375 414.7734375 C500.89297363 415.5065918 501.45000977 416.23974609 502.02392578 416.99511719 C503.12250644 418.44209107 504.22050283 419.88950877 505.31787109 421.33740234 C507.41444988 424.09754933 509.53080048 426.84190701 511.6484375 429.5859375 C512.88549945 431.19512377 514.12252107 432.80434119 515.35888672 434.4140625 C516.44817939 435.83140331 517.53850256 437.24795226 518.62939453 438.6640625 C527.12619902 449.70250141 535.44185198 460.8231885 543.39160156 472.26220703 C545.89811632 475.86097924 548.43073633 479.44129989 550.9609375 483.0234375 C551.4034082 483.6515332 551.84587891 484.27962891 552.30175781 484.92675781 C554.53824096 488.09846824 556.7832258 491.26282838 559.05297852 494.41088867 C565.41170925 503.23468961 571.51231423 512.20999912 577.5234375 521.2734375 C578.49426842 522.73447962 579.46513481 524.19549816 580.43603516 525.65649414 C582.81296352 529.23578381 585.18578608 532.81776933 587.55621338 536.40136719 C588.71954093 538.15997977 589.88384922 539.91793873 591.04833984 541.67578125 C605.50182215 563.52828141 619.14011833 585.85402902 632.22241211 608.55224609 C633.34713995 610.49265264 634.48153101 612.42747643 635.62329102 614.35791016 C639.22210767 620.45134458 642.60974571 626.56939327 645.6484375 632.9609375 C646.02935547 633.72921875 646.41027344 634.4975 646.80273438 635.2890625 C651.48104757 645.08812132 653.38060829 655.18771705 650.08203125 665.75 C645.63903864 676.56933765 638.13597332 684.77357106 627.40591431 689.39007568 C622.88998278 691.05213239 618.25606414 691.90446942 613.53515625 692.78125 C612.44500717 692.99272171 611.35485809 693.20419342 610.23167419 693.42207336 C606.66409664 694.11164901 603.09382481 694.78607658 599.5234375 695.4609375 C597.03543271 695.94038971 594.54764221 696.42095521 592.06005859 696.90258789 C580.57207209 699.12111103 569.07563966 701.29432046 557.57594299 703.45123291 C552.83371391 704.34180465 548.0927095 705.2388073 543.35171509 706.13592529 C540.02466219 706.76145639 536.69548359 707.37455681 533.3659668 707.98681641 C531.31680161 708.37222766 529.26772445 708.7581073 527.21875 709.14453125 C525.85658607 709.38928947 525.85658607 709.38928947 524.46690369 709.63899231 C513.97410735 711.64610884 504.87463454 715.00770818 497.8359375 723.3359375 C493.03055977 731.21029596 490.7884882 737.86324587 490.34277344 746.99414062 C490.30178056 747.76869095 490.26078768 748.54324127 490.21855259 749.34126282 C490.08220895 751.93306357 489.95135295 754.52511365 489.8203125 757.1171875 C489.72381331 758.96604518 489.62689504 760.81488102 489.52958679 762.66369629 C489.32101671 766.63621457 489.11453426 770.60883355 488.90963745 774.58154297 C488.36137863 785.19819495 487.79591096 795.81393916 487.23046875 806.4296875 C487.17282412 807.51355743 487.11517948 808.59742737 487.05578804 809.71414185 C485.87311899 831.92608672 484.60276987 854.13231415 483.2734375 876.3359375 C483.22143314 877.20471024 483.16942879 878.07348297 483.11584854 878.96858215 C479.19919978 944.32091332 474.8595264 1009.64574938 469.52180481 1074.89863586 C469.03306779 1080.88069794 468.55742462 1086.86360331 468.09375 1092.84765625 C466.02833357 1119.37708682 463.49025831 1145.85949199 460.8359375 1172.3359375 C460.73539063 1173.34390381 460.63484375 1174.35187012 460.53125 1175.39038086 C456.96087527 1211.12055363 452.95054376 1246.98106125 446.2109375 1282.2734375 C446.04142578 1283.19423096 445.87191406 1284.11502441 445.69726562 1285.0637207 C443.3704851 1296.35487731 437.77192301 1306.42075505 428.26171875 1313.16015625 C416.84531136 1319.88622793 404.85984277 1319.63602462 391.99047852 1319.54174805 C389.37962218 1319.52330459 386.76911834 1319.5212402 384.15820312 1319.52148438 C382.48958027 1319.51657445 380.8209598 1319.51074845 379.15234375 1319.50390625 C378.37629288 1319.50279343 377.600242 1319.5016806 376.80067444 1319.50053406 C371.2780919 1319.45193524 371.2780919 1319.45193524 368.91139221 1318.83103943 C366.49027409 1318.25347912 364.349708 1318.23808037 361.86083984 1318.26904297 C360.86267242 1318.27686798 359.864505 1318.28469299 358.83609009 1318.29275513 C357.20792862 1318.31026321 357.20792862 1318.31026321 355.546875 1318.328125 C341.50563526 1318.40123777 327.49217155 1318.0569304 313.45947266 1317.59130859 C310.0687033 1317.47895568 306.67767337 1317.37941387 303.28643227 1317.28250313 C300.00318635 1317.18619949 296.72038186 1317.07665851 293.4375 1316.96875 C292.2272818 1316.93532501 291.0170636 1316.90190002 289.77017212 1316.86746216 C288.65314911 1316.82757172 287.5361261 1316.78768127 286.38525391 1316.74658203 C284.91736923 1316.69994919 284.91736923 1316.69994919 283.41983032 1316.65237427 C280.74666273 1316.32500445 279.09724591 1315.77655441 276.8359375 1314.3359375 C272.74341785 1308.80880411 273.68718011 1303.0557608 274.12890625 1296.546875 C274.22715698 1294.80643669 274.22715698 1294.80643669 274.32739258 1293.03083801 C274.54401483 1289.25645597 274.78368332 1285.48391426 275.0234375 1281.7109375 C275.17584979 1279.11899093 275.32664119 1276.52694855 275.47583008 1273.93481445 C275.84579934 1267.55807378 276.23271773 1261.18249966 276.62451172 1254.80706787 C277.07239782 1247.45379688 277.48709787 1240.09866188 277.89761353 1232.7432251 C278.01936439 1230.59529529 278.14702028 1228.44779188 278.27612305 1226.30029297 C278.3512915 1225.00623535 278.42645996 1223.71217773 278.50390625 1222.37890625 C278.56860107 1221.29633545 278.6332959 1220.21376465 278.69995117 1219.09838867 C278.81488503 1215.91841438 278.82559958 1212.77174781 278.80029297 1209.59106445 C278.78485627 1203.75075314 279.19820466 1198.0222651 279.73828125 1192.2109375 C280.61174508 1182.07308967 281.20592022 1171.93724823 281.65234375 1161.7734375 C281.68366772 1161.06331512 281.71499168 1160.35319275 281.74726486 1159.62155151 C281.93824603 1155.26417826 282.12312342 1150.90656228 282.30566406 1146.54882812 C282.552864 1140.65245912 282.80498125 1134.75631393 283.06239128 1128.86038208 C283.14978788 1126.83273496 283.23322542 1124.80491841 283.31654358 1122.77709961 C283.57023028 1116.9007124 283.90780794 1111.08879303 284.62394714 1105.2505188 C284.94491741 1102.35169042 285.00053195 1099.46550418 285.046875 1096.55078125 C285.37034036 1079.33611267 286.06662493 1062.16731242 287.04728889 1044.97738457 C288.6542284 1016.61709389 289.81853146 988.25146835 290.77697372 959.86265945 C290.9012956 956.18898138 291.02747101 952.51537037 291.15396118 948.84176636 C292.75257843 902.255201 293.90255134 855.66614128 294.70239353 809.05939865 C294.80116198 803.30481692 294.90453512 797.55033833 295.01123047 791.79589844 C295.37068798 772.31004423 295.66146817 752.82437457 295.8359375 733.3359375 C295.84199257 732.66430824 295.84804764 731.99267899 295.85428619 731.30069733 C296.20194243 692.00703866 295.74445901 652.74655445 294.8984375 613.4609375 C294.86571558 611.91824692 294.86571558 611.91824692 294.83233261 610.34439087 C294.70626239 604.40819569 294.5749776 598.47215918 294.43536758 592.53626633 C294.39301052 590.72068452 294.35186152 588.90507406 294.3120079 587.08943558 C294.25642576 584.58571178 294.1955036 582.08217407 294.13305664 579.57861328 C294.11039876 578.49606136 294.11039876 578.49606136 294.08728313 577.39163971 C293.96073091 572.6381262 293.44832193 568.04343266 292.8359375 563.3359375 C292.81236594 560.75425869 292.82919853 558.19613458 292.88671875 555.6171875 C293.00438295 543.91283513 292.13159509 532.26941032 291.29174805 520.6015625 C291.02200835 516.81588005 290.77136447 513.02922658 290.52148438 509.2421875 C290.35011381 506.80460599 290.17762743 504.36710261 290.00390625 501.9296875 C289.89588936 500.25440979 289.89588936 500.25440979 289.78569031 498.54528809 C289.09037951 489.29575607 288.08376726 479.81272154 280.8359375 473.3359375 C275.66799182 470.40446487 270.71166056 468.52934011 264.7734375 469.7265625 C232.77476374 479.7906615 210.25621622 533.90915188 195.9609375 561.2734375 C156.41457722 638.00315439 130.37748049 721.72237246 79.9609375 1034.7109375 C79.89305023 1035.53937164 79.82516296 1036.36780579 79.75521851 1037.22134399 C78.05191114 1057.14532217 78.05191114 1057.14532217 87.2109375 1074.1484375 C95.20685743 1080.2639262 111.42988592 1080.23306525 121.01953125 1081.52734375 C122.41389544 1081.71952539 123.8081862 1081.91224042 125.20240784 1082.10545349 C129.55873387 1082.70814661 133.91600583 1083.30379836 138.2734375 1083.8984375 C143.35669284 1084.59232667 148.43949878 1085.28924822 153.52134895 1085.99336052 C155.53259572 1086.27053103 157.54450466 1086.54245224 159.5565033 1086.81410217 C177.86825189 1089.34549309 177.86825189 1089.34549309 182.8359375 1095.3359375 C184.86675669 1098.38216629 185.09110657 1098.97942159 185.10375977 1102.40209961 C185.11039894 1103.64607262 185.11039894 1103.64607262 185.11717224 1104.91517639 C185.10815384 1105.82617599 185.09913544 1106.7371756 185.08984375 1107.67578125 C185.08400772 1108.64579575 185.07817169 1109.61581024 185.07215881 1110.61521912 C184.91033577 1123.05384583 183.92591482 1135.43928037 182.9372673 1147.83454895 C182.77071854 1149.93269027 182.60732801 1152.03105597 182.44485474 1154.1295166 C180.5715881 1178.29760828 178.46223489 1202.44458746 176.2734375 1226.5859375 C176.16650637 1227.76856611 176.16650637 1227.76856611 176.05741501 1228.97508621 C175.09335518 1239.63275089 174.0988676 1250.28715134 173.0674057 1260.93850708 C172.82458327 1263.45353889 172.58452807 1265.9688268 172.34454346 1268.48413086 C171.92733224 1272.84087663 171.49760151 1277.19624593 171.05967903 1281.55095673 C170.89458031 1283.20753496 170.73291371 1284.86445949 170.57497978 1286.52173615 C168.57066615 1307.46738468 168.57066615 1307.46738468 163.85469151 1312.41413593 C159.66363298 1315.08225094 156.33238233 1314.89003237 151.46069336 1314.83714294 C150.51256492 1314.84267734 149.56443647 1314.84821174 148.58757687 1314.85391384 C145.40837891 1314.8675345 142.22996407 1314.8525431 139.05078125 1314.83764648 C136.77246771 1314.84142913 134.49415647 1314.84692872 132.21585083 1314.85401917 C126.02582844 1314.86799797 119.83608324 1314.85678677 113.6460762 1314.84030795 C107.17282128 1314.82647315 100.69958272 1314.83291574 94.22631836 1314.83644104 C83.35492839 1314.8391444 72.48366576 1314.82574421 61.61230469 1314.80249023 C50.42801824 1314.77856961 39.24387775 1314.77148603 28.05957031 1314.78198242 C14.58029531 1314.79460996 1.10113469 1314.79210006 -12.37814331 1314.77632332 C-17.52637306 1314.77055982 -22.67455395 1314.77064908 -27.82278442 1314.77538872 C-33.8835553 1314.78015565 -39.94412375 1314.77006835 -46.00485611 1314.74843407 C-48.2313074 1314.74286219 -50.45777812 1314.74240455 -52.6842308 1314.74738693 C-55.71931912 1314.75332787 -58.75378608 1314.74085708 -61.78881836 1314.72361755 C-62.67354356 1314.7296276 -63.55826876 1314.73563764 -64.46980381 1314.74182981 C-70.17451841 1314.6827546 -73.6241971 1313.78173381 -77.8515625 1309.7109375 C-81.80709765 1302.55330246 -81.83118385 1293.16405741 -82.6015625 1285.18359375 C-82.72716553 1283.92945175 -82.85276855 1282.67530975 -82.98217773 1281.38316345 C-83.31402949 1278.06146199 -83.64133167 1274.7393805 -83.96618652 1271.41699219 C-84.41964997 1266.79116149 -84.88191837 1262.16620156 -85.34251404 1257.54107666 C-85.59737233 1254.98121355 -85.85149906 1252.42127749 -86.10487366 1249.86126709 C-86.85854451 1242.27587415 -87.66534222 1234.69906348 -88.52867126 1227.12547302 C-89.34637025 1219.87630001 -89.91216076 1212.61311912 -90.46289062 1205.33984375 C-90.57987305 1203.85677734 -90.57987305 1203.85677734 -90.69921875 1202.34375 C-90.7650415 1201.47379395 -90.83086426 1200.60383789 -90.89868164 1199.70751953 C-91.09753787 1197.3978908 -91.09753787 1197.3978908 -91.66601562 1195.45581055 C-92.37310752 1192.44616402 -92.44521006 1189.49812355 -92.59765625 1186.41015625 C-93.01692969 1178.48865425 -93.56355769 1170.57971802 -94.13671875 1162.66796875 C-97.56371171 1114.61634539 -97.56371171 1114.61634539 -97.6015625 1093.0234375 C-97.60737335 1092.25528717 -97.6131842 1091.48713684 -97.61917114 1090.69570923 C-97.67664325 1079.90021416 -97.03581642 1071.69677686 -89.453125 1063.46875 C-86.1568154 1060.39744447 -82.56799363 1057.74160061 -78.94848633 1055.06933594 C-74.85649985 1052.00614757 -71.57085789 1048.75325008 -68.43359375 1044.734375 C-68.01464844 1044.27289062 -67.59570312 1043.81140625 -67.1640625 1043.3359375 C-66.5040625 1043.3359375 -65.8440625 1043.3359375 -65.1640625 1043.3359375 C-64.91914062 1042.79453125 -64.67421875 1042.253125 -64.421875 1041.6953125 C-62.8713258 1038.78682891 -60.97993142 1036.25040563 -59.0390625 1033.5859375 C-44.95210733 1013.59699441 -37.86018199 990.33621367 -38.03125 965.91796875 C-38.03496109 964.92798889 -38.03867218 963.93800903 -38.04249573 962.91802979 C-38.11834035 951.98254608 -38.52831672 941.06020995 -38.96170044 930.13406372 C-39.2052424 923.95570772 -39.43070699 917.77669164 -39.65625 911.59765625 C-39.7238427 909.74973732 -39.7238427 909.74973732 -39.7928009 907.86448669 C-41.98575027 847.19322558 -42.34205287 786.44815877 -42.29263133 725.74278778 C-42.28884171 720.54547827 -42.29024456 715.34818775 -42.29443359 710.15087891 C-42.33093955 663.55951487 -42.25325644 616.95237033 -40.1640625 570.3984375 C-40.0801719 568.41734123 -39.99684591 566.43622097 -39.9140625 564.45507812 C-39.5881668 556.74414186 -39.25989788 549.03431547 -38.84375 541.32763672 C-38.76737305 539.85090736 -38.76737305 539.85090736 -38.68945312 538.34434509 C-38.59273823 536.48753873 -38.49034035 534.631015 -38.38085938 532.7749176 C-37.72252463 520.23163069 -37.72252463 520.23163069 -43.1640625 509.3359375 C-48.81195273 504.94060357 -53.89261436 502.64341863 -61.1640625 503.3359375 C-67.75513632 505.5363896 -71.97350894 508.33969363 -75.32421875 514.46875 C-76.97389155 518.13639465 -77.3566043 521.19954914 -77.53710938 525.18310547 C-77.59386841 526.39062469 -77.65062744 527.59814392 -77.70910645 528.84225464 C-77.79509094 530.81526047 -77.79509094 530.81526047 -77.8828125 532.828125 C-77.94591954 534.21169513 -78.00936178 535.59525001 -78.07312012 536.97879028 C-78.20681314 539.89915988 -78.33766436 542.81963808 -78.46630859 545.74023438 C-78.62709873 549.38974349 -78.79278099 553.03900634 -78.96039677 556.68820763 C-80.26159674 585.04407287 -81.30030659 613.39590906 -81.69568253 641.78076935 C-81.72718393 644.00481137 -81.76084764 646.2288135 -81.79476929 648.45281982 C-82.14642943 672.00522188 -82.17728608 695.55403437 -82.10081673 719.10829544 C-82.0855868 723.83678963 -82.07339785 728.56528884 -82.06163025 733.29379272 C-82.05348868 736.4697879 -82.04519758 739.64578267 -82.03686523 742.82177734 C-82.03380995 744.00510308 -82.03380995 744.00510308 -82.03069293 745.21233439 C-82.00544732 754.77317182 -81.96557641 764.33374095 -81.90458882 773.89441848 C-81.86657215 779.99392248 -81.8427675 786.09338262 -81.82928169 792.19298959 C-81.82073668 795.77086696 -81.80508858 799.34837945 -81.77155304 802.92611694 C-81.73466577 806.8656574 -81.72900194 810.80490992 -81.72583008 814.74462891 C-81.70988076 815.89434992 -81.69393145 817.04407093 -81.67749882 818.22863197 C-81.70742071 826.15772629 -83.2053101 832.05973067 -87.734375 838.60546875 C-93.71937016 844.54535088 -100.266922 847.46915588 -108.7265625 847.8359375 C-116.35569786 847.513125 -122.96909104 844.48996943 -128.48653984 839.20460415 C-135.56674903 831.31764613 -135.93396381 822.48510321 -135.96826172 812.33959961 C-135.99068444 810.87932084 -136.01503379 809.41907054 -136.04118156 807.95885372 C-136.10224858 804.16333513 -136.13250382 800.3682903 -136.15169048 796.57235098 C-136.16360996 794.4177411 -136.18181366 792.26329392 -136.20261383 790.1087532 C-136.28960935 780.92205776 -136.30649648 771.73613433 -136.298388 762.54908109 C-136.29576997 758.61816433 -136.29822789 754.68724931 -136.29977417 750.7563324 C-136.30157301 744.14866712 -136.29925457 737.54101315 -136.29443359 730.93334961 C-136.2896288 724.2738369 -136.28959254 717.61434665 -136.29443359 710.95483398 C-136.32726702 664.52043825 -136.35785328 618.07435412 -134.28988647 571.67520142 C-134.15570041 568.64724389 -134.03083038 565.61899326 -133.9074707 562.59057617 C-133.57968364 554.60927149 -133.24514219 546.62897084 -132.81393433 538.65249634 C-132.71195934 536.75945292 -132.61655481 534.86605898 -132.52148438 532.97265625 C-132.41368668 530.86378645 -132.29284789 528.7555103 -132.15429688 526.6484375 C-131.87059871 520.96625107 -132.51290324 517.39011796 -135.1640625 512.3359375 C-135.5559375 511.4490625 -135.9478125 510.5621875 -136.3515625 509.6484375 C-139.59307783 505.51271104 -144.15156506 503.99218666 -149.0390625 502.3984375 C-154.8300845 502.28261706 -160.03208714 504.13090795 -165.0390625 506.9609375 C-171.4642231 514.14199935 -171.85898449 522.54112312 -172.17578125 531.79296875 C-172.26361626 533.73848885 -172.26361626 533.73848885 -172.35322571 535.72331238 C-172.50843264 539.16924553 -172.64207272 542.61568454 -172.77111816 546.06268311 C-172.90243681 549.46750256 -173.05481779 552.87136441 -173.20507812 556.27539062 C-173.51710551 563.45966302 -173.80468645 570.64462526 -174.07028198 577.83076668 C-174.13852297 579.6536967 -174.20829847 581.47656948 -174.2789917 583.29940605 C-174.9793237 601.37072044 -175.45743885 619.43685236 -175.734375 637.51953125 C-175.74498789 638.19413792 -175.75560079 638.8687446 -175.76653528 639.5637939 C-176.15252836 664.14634864 -176.21724936 688.7234426 -176.15625 713.30859375 C-176.15235002 715.00836557 -176.14847682 716.70813745 -176.14463043 718.40790939 C-176.10861021 733.96527182 -176.06161131 749.52258145 -175.99267578 765.07983398 C-175.95814423 772.89544529 -175.93436817 780.71101393 -175.92246735 788.52669328 C-175.91446033 793.39769457 -175.89347944 798.26839736 -175.86226249 803.13930237 C-175.8462339 806.13552405 -175.84284283 809.13166162 -175.84303284 812.12792206 C-175.83947791 814.16069781 -175.82096082 816.1934304 -175.8019104 818.22612 C-175.82214806 827.45228728 -176.85044639 834.7359369 -183.30078125 841.73046875 C-188.8197244 846.48578455 -195.82908546 849.5586313 -203.1640625 849.3359375 C-211.41238096 848.6921663 -217.97169744 845.70603374 -223.73046875 839.703125 C-231.11291771 830.22714574 -230.59142209 819.33552027 -230.53637695 807.97119141 C-230.53880901 806.20980108 -230.54253233 804.44841214 -230.54743958 802.68702698 C-230.55684104 797.89954527 -230.54740476 793.11226862 -230.53410745 788.32480288 C-230.52266997 783.23097033 -230.52691281 778.13714617 -230.52885437 773.04330444 C-230.52973878 764.41978709 -230.51867013 755.79634803 -230.50024414 747.17285156 C-230.48177387 738.48304683 -230.47431067 729.7933386 -230.47973633 721.10351562 C-230.50569278 678.07610246 -230.4081595 635.06444557 -229.2265625 592.05078125 C-229.20560524 591.2800454 -229.18464798 590.50930955 -229.16305566 589.71521807 C-228.63371936 570.36693901 -227.961762 551.02844861 -226.51582336 531.72338867 C-225.95870504 524.22579941 -226.37715458 518.33949743 -229.1640625 511.3359375 C-229.4940625 510.3459375 -229.8240625 509.3559375 -230.1640625 508.3359375 C-230.8240625 508.3359375 -231.4840625 508.3359375 -232.1640625 508.3359375 C-232.1640625 507.6759375 -232.1640625 507.0159375 -232.1640625 506.3359375 C-239.79611305 502.88920499 -245.90785769 501.48347695 -253.9375 504.3671875 C-259.67792976 506.86477799 -261.89002576 510.04351791 -264.28359985 515.6104126 C-265.94734859 520.76064656 -265.98543379 526.01640772 -266.17578125 531.390625 C-266.26361626 533.27311447 -266.26361626 533.27311447 -266.35322571 535.19363403 C-266.50536264 538.52676783 -266.64203599 541.85979366 -266.77111816 545.19384766 C-266.90248959 548.48790153 -267.05497447 551.78097333 -267.20507812 555.07421875 C-267.55243322 562.8270962 -267.86195702 570.58118363 -268.1640625 578.3359375 C-268.21152618 579.52506744 -268.25898987 580.71419739 -268.30789185 581.93936157 C-268.9432376 597.8813323 -269.44571862 613.82115796 -269.7265625 629.7734375 C-269.75783234 631.54201111 -269.75783234 631.54201111 -269.78973389 633.34631348 C-270.56784894 679.66854576 -270.34236817 726.00951466 -270.1640625 772.3359375 C-270.16086502 773.20664131 -270.15766754 774.07734512 -270.15437317 774.9744339 C-269.99189173 818.42156653 -268.74124338 861.8465369 -267.48300171 905.27316195 C-267.33235721 910.48458045 -267.18688535 915.69612717 -267.04333496 920.90774536 C-266.86626575 927.32319275 -266.67943392 933.73828065 -266.48138821 940.15311575 C-266.37894228 943.47578718 -266.28131998 946.79839695 -266.19153976 950.12144852 C-265.48496247 978.0362724 -265.48496247 978.0362724 -259.0390625 1005.0859375 C-258.74193359 1005.94735352 -258.44480469 1006.80876953 -258.13867188 1007.69628906 C-253.82003473 1019.68117223 -247.52073366 1030.70482848 -239.1640625 1040.3359375 C-238.50019531 1041.13128906 -237.83632813 1041.92664062 -237.15234375 1042.74609375 C-229.75499643 1051.33870366 -221.35526264 1058.39167545 -211.7890625 1064.4609375 C-204.09611746 1069.48551809 -200.5244454 1073.99899775 -198.61048508 1082.89749718 C-197.95061745 1086.50181269 -197.71024056 1090.06797517 -197.54150391 1093.72387695 C-197.47742435 1094.91012775 -197.47742435 1094.91012775 -197.41205025 1096.12034321 C-197.27281392 1098.72965034 -197.1442452 1101.33936861 -197.015625 1103.94921875 C-196.91804884 1105.8132189 -196.81974481 1107.67718108 -196.72076416 1109.54110718 C-196.51128872 1113.51005931 -196.30629569 1117.47920664 -196.10491943 1121.44857788 C-195.78763627 1127.69831824 -195.45978666 1133.94747364 -195.12939453 1140.1965332 C-195.07430914 1141.23877265 -195.01922375 1142.2810121 -194.9624691 1143.35483456 C-194.85103841 1145.46271448 -194.73957232 1147.57059253 -194.62807083 1149.6784687 C-194.4606216 1152.8497327 -194.29410079 1156.02104434 -194.1277771 1159.19236755 C-193.20370583 1176.78183713 -192.20834359 1194.36645311 -191.16236115 1211.94906235 C-191.0392122 1214.02091893 -190.91659135 1216.09280613 -190.79412842 1218.16470337 C-189.96980196 1232.10478289 -189.12426939 1246.04342849 -188.25 1259.98046875 C-188.17824554 1261.12980392 -188.10649109 1262.2791391 -188.03256226 1263.46330261 C-187.70236599 1268.75151073 -187.36896043 1274.03945281 -187.02685547 1279.3269043 C-185.40634677 1304.7363154 -185.40634677 1304.7363154 -187.8515625 1309.8984375 C-190.90194161 1313.11370197 -193.49449075 1315.08577897 -197.9438324 1315.75244141 C-198.98258011 1315.77226074 -200.02132782 1315.79208008 -201.09155273 1315.8125 C-202.32736588 1315.84279297 -203.56317902 1315.87308594 -204.83644104 1315.90429688 C-206.23600872 1315.9234753 -207.63558071 1315.94234151 -209.03515625 1315.9609375 C-210.5526301 1315.99173101 -212.07008083 1316.02368012 -213.58750916 1316.05664062 C-218.07137454 1316.14901862 -222.55539682 1316.22007258 -227.03969574 1316.28771973 C-230.36761369 1316.33907887 -233.69542912 1316.39510666 -237.02325439 1316.45214844 C-250.17350237 1316.67725924 -263.32392778 1316.88806046 -276.47460938 1317.0859375 C-277.5013067 1317.10138926 -277.5013067 1317.10138926 -278.54874539 1317.11715317 C-285.57940167 1317.22279323 -292.6100771 1317.3270687 -299.64077801 1317.42969513 C-306.61243111 1317.53146512 -313.58403848 1317.63565768 -320.5555858 1317.74445343 C-323.83617787 1317.79549374 -327.11677998 1317.84441508 -330.39744759 1317.89038086 C-334.02943885 1317.9413105 -337.66131649 1317.99743996 -341.29321289 1318.0546875 C-342.3524144 1318.06822266 -343.41161591 1318.08175781 -344.50291443 1318.09570312 C-350.05091449 1318.1888518 -355.50557404 1318.48500865 -361.01907921 1319.12030411 C-366.213243 1319.64246909 -371.45897127 1319.31680107 -376.66870117 1319.14892578 C-378.72630412 1319.08594541 -380.78364658 1319.04455502 -382.84179688 1319.00390625 C-395.00244692 1318.68484459 -404.63717183 1316.25102794 -414.1640625 1308.3359375 C-422.36494559 1298.4650564 -424.67685031 1286.96865831 -426.9765625 1274.6484375 C-427.10278992 1273.97542603 -427.22901733 1273.30241455 -427.35906982 1272.60900879 C-434.54864103 1233.9134818 -438.23325823 1194.45065818 -442.0625 1155.30078125 C-442.14804642 1154.4262392 -442.23359283 1153.55169716 -442.32173157 1152.65065384 C-444.19778539 1133.40483326 -445.85638109 1114.14291214 -447.4446373 1094.87145996 C-447.66921535 1092.14845933 -447.89476746 1089.42554072 -448.12051392 1086.70263672 C-450.57784807 1057.03930499 -452.90228857 1027.36969491 -454.93548584 997.67388916 C-455.17285873 994.20748439 -455.41183057 990.74119194 -455.65087891 987.27490234 C-458.15780345 950.83146004 -460.42429841 914.37456568 -462.59329033 877.90974426 C-462.97643242 871.46893368 -463.36377778 865.02840055 -463.75596619 858.58813477 C-464.06136057 853.5667304 -464.36291753 848.54509821 -464.6640625 843.5234375 C-464.72264435 842.552854 -464.7812262 841.58227051 -464.84158325 840.58227539 C-465.6526441 827.07746643 -466.35756583 813.5691816 -467.00559998 800.05573082 C-467.13268099 797.4167935 -467.26139433 794.77794127 -467.39074707 792.13911438 C-467.43354546 791.26584346 -467.47634384 790.39257254 -467.52043915 789.49283886 C-467.60713415 787.72505391 -467.693911 785.95727297 -467.78076935 784.18949604 C-468.03625411 778.96712313 -468.2800439 773.74436492 -468.51529694 768.52104378 C-468.66542923 765.24425793 -468.82595957 761.96803666 -468.98902893 758.69187164 C-469.06296796 757.16189511 -469.13254995 755.63170062 -469.19737244 754.10131073 C-469.7620647 740.849838 -471.38002506 728.09032147 -481.21484375 718.29296875 C-485.99636704 714.52400333 -490.66735282 712.74373149 -496.56298828 711.32739258 C-497.26262255 711.15890462 -497.96225681 710.99041666 -498.68309212 710.81682301 C-505.88201183 709.11172258 -513.13399662 707.70168277 -520.40625 706.34765625 C-521.81679842 706.08138286 -523.22725764 705.81463658 -524.63763428 705.54745483 C-527.59045808 704.98868228 -530.54372993 704.43237213 -533.49737549 703.87796021 C-538.08484516 703.01608767 -542.67032169 702.14393291 -547.25537109 701.26928711 C-548.01296785 701.12480039 -548.77056461 700.98031366 -549.55111885 700.83144855 C-551.07016617 700.54170458 -552.58920727 700.25192797 -554.10824203 699.96211815 C-557.79921907 699.25810627 -561.49038129 698.55506917 -565.18164062 697.85253906 C-566.22345395 697.65424893 -566.22345395 697.65424893 -567.28631401 697.45195293 C-571.35330465 696.67850011 -575.421307 695.91065402 -579.49023438 695.14746094 C-583.57730881 694.38041725 -587.66086362 693.59754846 -591.74127197 692.79580688 C-593.70756194 692.41425251 -595.67771166 692.05275472 -597.64794922 691.69213867 C-609.56857786 689.3165122 -617.93733082 684.13886519 -625.1640625 674.3359375 C-629.83126976 667.08509766 -632.35489502 657.95529666 -631.1640625 649.3359375 C-628.90567217 640.13289696 -625.29115735 631.92127527 -620.8515625 623.5859375 C-620.24127197 622.42562012 -619.63098145 621.26530273 -619.00219727 620.06982422 C-612.53882525 607.87211844 -605.41733404 596.07730375 -598.1640625 584.3359375 C-596.96730769 582.38810698 -595.77069044 580.44019194 -594.57421875 578.4921875 C-591.45585491 573.42850656 -588.32417435 568.37367821 -585.1640625 563.3359375 C-584.67083496 562.54606445 -584.17760742 561.75619141 -583.66943359 560.94238281 C-579.96498104 555.05983373 -576.13476044 549.26705999 -572.265625 543.4921875 C-571.74119812 542.70943451 -571.21677124 541.92668152 -570.67645264 541.12020874 C-568.48949381 537.85825837 -566.30126843 534.59717584 -564.10888672 531.33886719 C-562.4913848 528.93369157 -560.87819228 526.52567333 -559.265625 524.1171875 C-558.76777496 523.3797229 -558.26992493 522.6422583 -557.75698853 521.88244629 C-557.29915985 521.19743042 -556.84133118 520.51241455 -556.36962891 519.80664062 C-555.76509384 518.90709656 -555.76509384 518.90709656 -555.14834595 517.98937988 C-553.99588448 516.18730989 -553.99588448 516.18730989 -553.1640625 513.3359375 C-552.5040625 513.3359375 -551.8440625 513.3359375 -551.1640625 513.3359375 C-550.90238281 512.60632813 -550.64070313 511.87671875 -550.37109375 511.125 C-549.13752797 508.27462471 -547.72852355 506.17871926 -545.8515625 503.7109375 C-542.05957458 498.61609659 -538.47242539 493.40867185 -534.9140625 488.1484375 C-529.89180437 480.75645087 -524.6748608 473.55638608 -519.26953125 466.44140625 C-515.8065605 461.88240359 -512.42459165 457.26506816 -509.0390625 452.6484375 C-503.94044399 445.70984071 -498.76111261 438.84821731 -493.48291016 432.04492188 C-492.00729792 430.1327994 -490.54383807 428.21175889 -489.08203125 426.2890625 C-479.80673555 414.0922499 -470.29436634 402.10844109 -460.56640625 390.26953125 C-458.73899465 388.03800912 -456.91926768 385.80113925 -455.10546875 383.55859375 C-449.49094639 376.61922131 -443.8420178 369.71874634 -438.05175781 362.92504883 C-435.16670953 359.53643809 -432.33919708 356.10742728 -429.5390625 352.6484375 C-425.93756799 348.217313 -422.16258932 343.98515945 -418.30859375 339.7734375 C-415.54502654 336.63233379 -413.04404811 333.32797457 -410.57421875 329.953125 C-410.10886719 329.41945313 -409.64351562 328.88578125 -409.1640625 328.3359375 C-408.5040625 328.3359375 -407.8440625 328.3359375 -407.1640625 328.3359375 C-406.94878906 327.80226563 -406.73351562 327.26859375 -406.51171875 326.71875 C-404.66678812 323.45669874 -402.16653241 320.90925568 -399.6015625 318.2109375 C-398.50729857 317.04345023 -397.41355265 315.87547724 -396.3203125 314.70703125 C-395.78148437 314.1332373 -395.24265625 313.55944336 -394.6875 312.96826172 C-392.62924102 310.76289 -390.61289436 308.52161098 -388.6015625 306.2734375 C-384.42871448 301.61939619 -380.21122503 297.00754598 -375.98046875 292.40625 C-374.12548757 290.38787669 -372.27963222 288.36176599 -370.44140625 286.328125 C-364.83024645 280.13545602 -359.06118103 274.16350645 -353.0859375 268.3203125 C-350.9524983 266.19225102 -348.97144833 263.9779774 -347.01245117 261.6887207 C-343.0780529 257.17467342 -338.90653615 252.93412988 -334.66796875 248.70703125 C-333.87559311 247.91369888 -333.08321747 247.12036652 -332.26683044 246.30299377 C-330.60155967 244.63704669 -328.93504221 242.97234494 -327.26733398 241.30883789 C-324.73371628 238.78057616 -322.20548083 236.24702089 -319.67773438 233.71289062 C-318.04979967 232.0856168 -316.42155475 230.45865325 -314.79296875 228.83203125 C-314.04688858 228.08392685 -313.30080841 227.33582245 -312.53211975 226.56504822 C-308.47463817 222.52539045 -304.33528844 218.64930109 -299.97996521 214.93165588 C-296.71510267 212.06266894 -293.70573144 208.93755058 -290.6640625 205.8359375 C-286.31447098 201.44422564 -281.974326 197.12867107 -277.25 193.13671875 C-274.32111427 190.60822377 -271.4988127 187.96903597 -268.6640625 185.3359375 C-264.53227928 181.5044446 -260.37365688 177.71956717 -256.109375 174.03515625 C-253.8274096 172.04187322 -251.59177676 170.00100723 -249.3515625 167.9609375 C-245.88876168 164.83170923 -242.35727247 161.83093401 -238.7265625 158.8984375 C-234.92318747 155.82257162 -231.26323598 152.64840584 -227.6640625 149.3359375 C-222.33788321 144.44099716 -216.79611597 139.87219802 -211.1640625 135.3359375 C-209.43373329 133.920691 -207.7045844 132.50400031 -205.9765625 131.0859375 C-204.0392518 129.50237255 -202.10173112 127.91906447 -200.1640625 126.3359375 C-199.25648193 125.5927124 -199.25648193 125.5927124 -198.33056641 124.83447266 C-190.51246776 118.43465854 -182.65778744 112.10851397 -174.62109375 105.984375 C-172.06034554 104.0309693 -169.52075426 102.05242325 -166.98828125 100.0625 C-157.29018624 92.44818774 -147.44120168 85.10272989 -137.40527344 77.94042969 C-135.17524228 76.34394115 -132.9534641 74.73665632 -130.734375 73.125 C-114.77240833 61.53321649 -98.67512271 50.13510993 -82.1640625 39.3359375 C-81.50905762 38.90748535 -80.85405273 38.4790332 -80.17919922 38.03759766 C-75.1891667 34.78023182 -70.18124344 31.55130265 -65.1640625 28.3359375 C-64.37918457 27.83239746 -63.59430664 27.32885742 -62.78564453 26.81005859 C-57.27004185 23.27816674 -51.73142935 19.78566325 -46.1640625 16.3359375 C-45.52339844 15.93713379 -44.88273438 15.53833008 -44.22265625 15.12744141 C-30.96194777 6.94690175 -15.82087873 0.05014146 0 0 Z " fill="#FE7F00" transform="translate(717.1640625,-0.3359375)"/>
<path d="M0 0 C0.80442535 0.0012085 1.60885071 0.00241699 2.43765259 0.00366211 C37.10067616 0.14403462 67.29333931 10.16797421 98.0625 25.375 C96.54750122 34.45428169 93.87142077 43.17899013 91.23046875 51.9765625 C90.75169866 53.5829307 90.27329692 55.18940872 89.79524231 56.79598999 C88.7951518 60.1537066 87.79219817 63.51054857 86.78686523 66.86669922 C85.51241353 71.12128109 84.24269294 75.37725429 82.97486401 79.63381386 C81.74911634 83.7485264 80.52120808 87.86259314 79.29296875 91.9765625 C78.9520926 93.1189784 78.9520926 93.1189784 78.60433006 94.28447342 C77.52134178 97.91131419 76.4332116 101.53643054 75.33358765 105.15826416 C74.45547606 108.05202934 73.60574037 110.9525069 72.77017212 113.85882568 C72.34486849 115.30098721 71.91929076 116.74306793 71.4934082 118.18505859 C71.30964473 118.84403955 71.12588125 119.50302052 70.93654919 120.1819706 C69.21609848 125.91734019 66.22568219 129.42615327 61.0625 132.375 C53.57633742 134.87038753 47.87273495 132.5339644 41.0625 129.375 C39.45414508 128.57082254 37.84995755 127.75825744 36.25 126.9375 C22.55734047 119.9733148 8.71513453 115.78392836 -6.6875 115.875 C-8.38821655 115.88358032 -8.38821655 115.88358032 -10.12329102 115.89233398 C-23.34089968 116.17195716 -33.85530851 119.21143478 -44.80078125 126.921875 C-46.9375 128.375 -46.9375 128.375 -49.9375 129.375 C-50.2675 130.365 -50.5975 131.355 -50.9375 132.375 C-51.659375 133.055625 -52.38125 133.73625 -53.125 134.4375 C-60.37689659 141.50076345 -63.52690651 150.76990326 -65.9375 160.375 C-66.21980469 161.42107422 -66.21980469 161.42107422 -66.5078125 162.48828125 C-68.68766139 173.31795606 -63.53395768 185.36768349 -57.9375 194.375 C-48.26724822 208.63777509 -36.75645603 221.46527194 -24.95117188 233.9675293 C-20.72574871 238.46440174 -16.7833203 243.09344906 -12.93359375 247.91796875 C-11.06900782 250.21312443 -9.12759691 252.3879009 -7.125 254.5625 C15.03458327 279.39349549 32.26045322 309.54203814 38.234375 342.453125 C38.41274902 343.41299316 38.59112305 344.37286133 38.77490234 345.36181641 C39.20853286 347.69876477 39.63765014 350.03644235 40.0625 352.375 C51.87815413 312.57531223 63.67826024 272.77112713 75.36663055 232.93384171 C76.05234166 230.59711699 76.73843346 228.26050436 77.42462158 225.92391968 C81.75126326 211.18887855 86.05429047 196.44876199 90.25 181.67578125 C93.16182028 171.42891564 96.20396554 161.22898778 99.32910156 151.04541016 C102.43809415 140.90636898 105.42881705 130.73164781 108.4375 120.5625 C108.77377411 119.42689636 109.11004822 118.29129272 109.45651245 117.12127686 C116.42210486 93.59620826 123.32950572 70.05419096 130.22265625 46.5078125 C130.70342621 44.86728661 130.70342621 44.86728661 131.19390869 43.19361877 C132.83355202 37.59432186 134.46314056 31.99234572 136.07763672 26.38574219 C136.40034042 25.26859833 136.72304413 24.15145447 137.05552673 23.00045776 C137.66972829 20.87276815 138.28130682 18.7443191 138.88990784 16.61502075 C139.16141159 15.67584808 139.43291534 14.73667542 139.71264648 13.76904297 C139.95015121 12.94145477 140.18765594 12.11386658 140.43235779 11.26119995 C141.0625 9.375 141.0625 9.375 142.0625 8.375 C143.68103856 8.27243826 145.30405069 8.23979926 146.92582703 8.23455811 C147.97871414 8.22884796 149.03160126 8.22313782 150.11639404 8.21725464 C151.28156555 8.21613678 152.44673706 8.21501892 153.6472168 8.21386719 C154.86667496 8.20890228 156.08613312 8.20393738 157.34254456 8.19882202 C160.6981691 8.18668619 164.05373109 8.17924755 167.40937018 8.17481136 C169.5058092 8.17188325 171.60224272 8.16777884 173.69867897 8.16330719 C180.2575572 8.14962234 186.81642289 8.1399619 193.37531441 8.1361053 C200.94652097 8.13162924 208.51754656 8.11410667 216.08869809 8.0851047 C221.93929815 8.06347213 227.78984739 8.05340009 233.64048702 8.05206418 C237.13506155 8.05101679 240.62946622 8.04512392 244.12399864 8.02724457 C248.02632827 8.00766904 251.92843302 8.01205918 255.83081055 8.01855469 C256.9858609 8.0093399 258.14091125 8.00012512 259.33096313 7.9906311 C264.96091805 8.02001675 269.26166335 8.07121035 274.0625 11.375 C278.35344585 16.12983188 279.44033531 19.03404838 279.36621094 25.31103516 C278.75686203 31.45840554 276.62304232 37.22657057 274.6875 43.0625 C274.23192723 44.47158284 273.77768779 45.88109739 273.32470703 47.29101562 C272.3851329 50.20753573 271.43730399 53.12117138 270.48242188 56.03271484 C269.12030506 60.18897986 267.78328873 64.35294732 266.453125 68.51953125 C262.3987878 81.20119914 258.25349019 93.85086841 254.02416992 106.4753418 C247.8808279 124.85011921 242.05981041 143.33012799 236.25 161.8125 C236.01920746 162.54667145 235.78841492 163.2808429 235.55062866 164.03726196 C232.69051256 173.14051379 229.85683471 182.25130509 227.0625 191.375 C227.58082397 190.59358643 227.58082397 190.59358643 228.10961914 189.79638672 C239.53725604 172.58087203 251.15022377 155.4962481 262.86889648 138.4777832 C268.65508268 130.0700788 274.39459592 121.63048319 280.140625 113.1953125 C281.98848115 110.48362115 283.83769698 107.77286355 285.6875 105.0625 C286.89587137 103.29169262 288.10420441 101.52085909 289.3125 99.75 C290.2257605 98.41159058 290.2257605 98.41159058 291.1574707 97.04614258 C294.66998622 91.89490608 298.17355925 86.73774551 301.66796875 81.57421875 C303.2784091 79.19515214 304.8890715 76.8162361 306.5 74.4375 C306.89978058 73.8471698 307.29956116 73.2568396 307.7114563 72.64862061 C313.99261246 63.37857485 320.35442138 54.16869358 326.76611328 44.98828125 C330.61895124 39.46709269 334.40947869 33.91663096 338.1171875 28.296875 C340.70973115 24.40285362 343.35200017 20.54395452 346 16.6875 C346.48573486 15.97859619 346.97146973 15.26969238 347.47192383 14.53930664 C350.94069323 9.49680677 350.94069323 9.49680677 352.0625 8.375 C353.70045004 8.27239537 355.34282606 8.23979772 356.98397827 8.23455811 C358.04961502 8.22884796 359.11525177 8.22313782 360.21318054 8.21725464 C361.39241592 8.21613678 362.57165131 8.21501892 363.78662109 8.21386719 C365.0206517 8.20890228 366.25468231 8.20393738 367.52610779 8.19882202 C370.92078566 8.18668797 374.31540173 8.17924858 377.71009398 8.17481136 C379.8292909 8.17188418 381.94848236 8.16778005 384.06767654 8.16330719 C390.69329058 8.14962591 397.31889221 8.13996248 403.9445194 8.1361053 C411.60178569 8.13162352 419.25887357 8.11407289 426.9160856 8.0851047 C432.828634 8.06351068 438.74113212 8.05340224 444.65371954 8.05206418 C448.18788031 8.05101446 451.72187352 8.04507156 455.25599289 8.02724457 C459.19725084 8.0077515 463.13828472 8.01204377 467.07958984 8.01855469 C468.84237022 8.00473251 468.84237022 8.00473251 470.64076233 7.9906311 C471.71203873 7.99620026 472.78331512 8.00176941 473.88705444 8.00750732 C474.81953192 8.00604076 475.75200939 8.0045742 476.71274376 8.0030632 C479.51273179 8.44626602 480.37173943 9.14215607 482.0625 11.375 C484.19173151 17.49917579 481.52721353 23.51495242 479.12353516 29.21435547 C475.94222804 35.69262699 471.25578261 41.34200404 466.86376953 47.02929688 C463.86723687 50.93153132 460.97212092 54.9078149 458.0625 58.875 C456.88561263 60.46889471 455.70852972 62.06264506 454.53125 63.65625 C451.17780744 68.20735062 447.86509334 72.78692104 444.5625 77.375 C437.22246467 87.56856463 429.75795394 97.66901627 422.29199219 107.77050781 C416.00748265 116.27593735 409.74230365 124.79308621 403.5625 133.375 C396.22225779 143.56841866 388.75795642 153.66901291 381.29199219 163.77050781 C375.00748265 172.27593735 368.74230365 180.79308621 362.5625 189.375 C356.38148737 197.95859269 350.11464333 206.47701249 343.82861328 214.98388672 C340.90293901 218.94491158 337.98296854 222.9101363 335.0625 226.875 C326.6572267 238.28409795 326.6572267 238.28409795 322.50390625 243.90820312 C321.30683372 245.53390485 320.11401426 247.16274815 318.92578125 248.79492188 C316.4784178 252.15090417 314.03403871 255.46546102 311.3359375 258.625 C310.58570313 259.5325 309.83546875 260.44 309.0625 261.375 C308.423125 262.096875 307.78375 262.81875 307.125 263.5625 C304.18696081 271.33966256 309.41810779 283.57938682 311.23828125 291.4375 C311.558921 292.83014046 311.87933837 294.22283213 312.19955444 295.61557007 C313.07172641 299.40600678 313.9470474 303.19570996 314.82296371 306.9852829 C315.7617462 311.04919068 316.69770827 315.11374809 317.6340332 319.17822266 C319.25209384 326.20025104 320.87206324 333.22183696 322.49316406 340.24316406 C324.89744752 350.65691969 327.29717274 361.07172276 329.69637299 371.48665047 C339.75130394 415.13182653 349.84625275 458.76727363 360.0625 502.375 C364.17983137 490.3293221 367.97862302 478.21801914 371.53222656 465.99438477 C372.32139007 463.28194384 373.1174029 460.57157577 373.9140625 457.86132812 C374.42748626 456.10428436 374.9405215 454.347127 375.453125 452.58984375 C375.68646545 451.79593735 375.91980591 451.00203094 376.16021729 450.18406677 C377.25430108 446.40676218 378.23741433 442.64992385 379.03808594 438.79907227 C379.80914714 435.20846182 380.92163233 431.92549206 382.26348877 428.51345825 C383.86660911 424.22289787 385.06444782 419.80005419 386.3359375 415.40234375 C386.65133484 414.32132889 386.96673218 413.24031403 387.29168701 412.12654114 C387.97928278 409.76901796 388.66555012 407.41110702 389.35064697 405.05285645 C391.05283665 399.19484622 392.76379666 393.33939997 394.4745903 387.48389816 C394.87942493 386.09812902 395.28415028 384.71232795 395.68877029 383.32649612 C400.26568602 367.65059022 404.89602021 351.99063121 409.53369141 336.33261108 C411.5389321 329.56183502 413.54284746 322.79066646 415.546875 316.01953125 C415.77183151 315.25950428 415.99678802 314.49947731 416.2285614 313.71641922 C421.64411563 295.41882123 427.04194419 277.11600334 432.4375 258.8125 C432.67408451 258.00994781 432.91066902 257.20739563 433.15442276 256.38052368 C435.31637451 249.04664271 437.47820751 241.71272674 439.6398468 234.37875366 C442.92469205 223.23409826 446.2106296 212.08976537 449.49730682 200.9456501 C450.27550155 198.30702758 451.05367769 195.66839958 451.83184814 193.0297699 C456.01817723 178.83475187 456.01817723 178.83475187 457.79486084 172.81100464 C463.83737509 152.32398361 469.87142488 131.83449296 475.89611816 111.34222412 C482.34408349 89.4104703 482.34408349 89.4104703 485.0078125 80.390625 C485.38572433 79.11059349 485.38572433 79.11059349 485.77127075 77.80470276 C488.00690957 70.23363694 490.24565104 62.66348903 492.48510742 55.09355164 C494.16954907 49.3986718 495.85039867 43.70274983 497.52792358 38.00582886 C498.54643693 34.54892434 499.56754642 31.09279049 500.58929443 27.63684082 C501.07013072 26.00835231 501.54983279 24.37952846 502.02838135 22.75036621 C502.68784862 20.50587168 503.35124062 18.26257432 504.015625 16.01953125 C504.38848633 14.75471924 504.76134766 13.48990723 505.14550781 12.18676758 C506.0625 9.375 506.0625 9.375 507.0625 8.375 C508.68096569 8.27026317 510.3039934 8.23535884 511.92582703 8.22782898 C512.97871414 8.22067368 514.03160126 8.21351837 515.11639404 8.20614624 C516.28156555 8.20345734 517.44673706 8.20076843 518.6472168 8.19799805 C520.47640404 8.18814125 520.47640404 8.18814125 522.34254456 8.17808533 C525.69816586 8.16171118 529.05372381 8.15011555 532.40937018 8.1418798 C534.50580898 8.13673326 536.60224332 8.13065725 538.69867897 8.12436867 C545.25755376 8.10530573 551.81641723 8.09107924 558.37531441 8.0827567 C565.94657434 8.07299138 573.51754135 8.0466953 581.08869809 8.00625581 C586.93929691 7.97607933 592.78981189 7.96128623 598.64048702 7.95797569 C602.13512289 7.9556261 605.62944626 7.94667898 609.12399864 7.92151451 C613.02636413 7.89386941 616.92834591 7.89806967 620.83081055 7.9050293 C622.56338608 7.88581421 622.56338608 7.88581421 624.33096313 7.86621094 C630.57058559 7.90681764 634.31381489 8.19345099 639.0625 12.375 C639.9596875 13.1484375 639.9596875 13.1484375 640.875 13.9375 C644.33604585 18.12718708 643.50171425 24.30497306 643.0625 29.375 C642.01282504 34.31603112 640.55747473 39.11660573 639.0625 43.9375 C638.70027344 45.14857422 638.33804688 46.35964844 637.96484375 47.60742188 C636.09210865 53.85931107 634.15075297 60.09014987 632.21972656 66.32421875 C627.9386917 80.16206069 623.78559156 94.02954389 619.76699829 107.94580078 C618.04687199 113.90038449 616.31811352 119.85246321 614.58984375 125.8046875 C614.22444992 127.06343689 613.85905609 128.32218628 613.48258972 129.61907959 C609.14699193 144.54757626 604.76329033 159.46192285 600.375 174.375 C600.16816086 175.07803127 599.96132172 175.78106255 599.74821472 176.5053978 C592.42394755 201.39945037 585.06537681 226.28332486 577.70004272 251.16525269 C572.62074849 268.32475843 567.55007153 285.4865185 562.53735352 302.6656189 C558.92832781 315.03186875 555.29269686 327.39019016 551.6484375 339.74609375 C551.40206669 340.58143206 551.15569588 341.41677036 550.90185928 342.27742195 C548.40051023 350.7579538 545.89820868 359.23820418 543.39470291 367.71809959 C538.04183201 385.85031941 532.70662921 403.98754693 527.40003586 422.13336754 C521.88579253 440.98907844 516.34908248 459.83815043 510.80566406 478.68530273 C509.44065771 483.32630367 508.0764096 487.96752714 506.71232796 492.60879993 C505.63161574 496.28546639 504.55039978 499.96198458 503.46905136 503.63846397 C502.96585458 505.34956401 502.46282671 507.06071373 501.95999527 508.77192116 C500.57442447 513.48682821 499.18515713 518.20061659 497.79050446 522.91284561 C497.27643444 524.65146098 496.7635414 526.39042457 496.25148773 528.12963486 C495.42850022 530.92290908 494.60117934 533.71486816 493.77294922 536.5065918 C493.51689974 537.37840245 493.26085026 538.25021311 492.9970417 539.14844227 C491.17654036 545.26095964 491.17654036 545.26095964 490.0625 546.375 C488.67123548 546.47506314 487.27493301 546.50606 485.88007832 546.50922108 C484.97262121 546.51367892 484.06516411 546.51813676 483.13020831 546.52272969 C482.12167637 546.52254533 481.11314442 546.52236097 480.0740509 546.52217102 C479.01162271 546.52584771 477.94919451 546.5295244 476.85457152 546.5333125 C473.26477794 546.54439901 469.67501326 546.54820157 466.08520508 546.55200195 C463.52339586 546.55826288 460.96158756 546.56490934 458.39978027 546.57191467 C450.68931303 546.59118104 442.97885084 546.60174932 435.26836565 546.61064246 C431.63949293 546.61502232 428.01062167 546.62038999 424.38175011 546.62563133 C412.32140945 546.64264768 400.26106971 546.65714171 388.20071888 546.66438007 C385.06895255 546.66629005 381.93718622 546.66821037 378.80541992 546.67016602 C378.02700883 546.67064976 377.24859774 546.6711335 376.44659843 546.6716319 C363.83771011 546.6799316 351.22891667 546.70526565 338.62006978 546.73774669 C325.68136524 546.77080622 312.74270893 546.78882792 299.80396193 546.79202431 C292.5367318 546.79419068 285.26963996 546.80295746 278.00245094 546.82848549 C271.16610394 546.85244408 264.33000974 546.85602507 257.49362946 546.84572411 C254.9821636 546.84522707 252.47068575 546.85159656 249.95925713 546.86528015 C246.53449241 546.88289817 243.11063169 546.87594177 239.68586731 546.86274719 C238.1897998 546.87920106 238.1897998 546.87920106 236.66350871 546.89598733 C230.81159986 546.84143564 227.54918953 546.22099317 223.0625 542.375 C218.4823088 536.67664777 217.58837262 528.64722828 216.25 521.6875 C215.99412109 520.40536621 215.73824219 519.12323242 215.47460938 517.80224609 C213.45865057 507.66769308 211.56134819 497.50945225 209.66067505 487.35275269 C206.27847824 469.2828809 202.72434431 451.2467001 199.17169189 433.20973969 C198.68772357 430.75113574 198.20458551 428.29236997 197.72167969 425.83355713 C196.95384169 421.92460052 196.18391629 418.01606079 195.41233444 414.10784149 C195.1235223 412.64353726 194.83534979 411.17910672 194.54784012 409.7145462 C194.15046051 407.69132217 193.75060795 405.66860237 193.35009766 403.64599609 C193.12472321 402.50295013 192.89934875 401.35990417 192.66714478 400.18222046 C192.10287155 397.31380934 192.10287155 397.31380934 191.0625 394.375 C179.37372259 411.14161156 179.37372259 411.14161156 167.77807617 427.97265625 C167.38595947 428.545 166.99384277 429.11734375 166.58984375 429.70703125 C166.21868439 430.25573883 165.84752502 430.80444641 165.46511841 431.36978149 C164.48569247 432.76999341 163.46813929 434.14396181 162.42314148 435.49594116 C157.64359835 441.84301113 155.20607442 447.83716234 153.1171875 455.45703125 C152.78059113 456.62352707 152.44399475 457.79002289 152.09719849 458.99186707 C151.02610518 462.71891529 149.98117433 466.45269243 148.9375 470.1875 C148.26217623 472.55584098 147.58510171 474.92368347 146.90625 477.29101562 C145.65899246 481.64873822 144.41800469 486.00812434 143.18570328 490.37010002 C139.84189423 502.2021991 136.42394652 514.01283691 133.0078125 525.82421875 C132.71187069 526.84768717 132.41592888 527.87115559 132.11101913 528.9256382 C130.42902166 534.74233606 128.74616032 540.55878325 127.0625 546.375 C110.36396881 546.51527717 93.66562929 546.62102298 76.96665096 546.68587303 C69.21267415 546.71678697 61.45906382 546.75891956 53.70532227 546.82763672 C46.9456692 546.88751516 40.1862816 546.92616707 33.42637068 546.93953097 C29.84820756 546.94734077 26.27080374 546.96564171 22.69288445 547.00938034 C18.69457463 547.05785981 14.6975775 547.05893453 10.69897461 547.05615234 C8.9273571 547.08850983 8.9273571 547.08850983 7.11994934 547.121521 C0.80628534 547.07396602 -3.06606589 546.5704287 -7.65518856 542.05417824 C-11.49302152 537.02856169 -11.4751731 532.50028604 -10.9375 526.375 C-10.25530964 522.90484196 -9.25705499 519.57693212 -8.19140625 516.20703125 C-7.90463516 515.26059753 -7.61786407 514.31416382 -7.32240295 513.33905029 C-6.39411126 510.28455137 -5.4471322 507.23620327 -4.5 504.1875 C-3.85769482 502.08436582 -3.21691598 499.98076491 -2.57763672 497.87670898 C-1.30239564 493.68132342 -0.02178303 489.48763724 1.26220703 485.29492188 C3.73362587 477.19879887 6.09486922 469.07163808 8.4375 460.9375 C8.81553692 459.62927358 9.1937058 458.32108529 9.57202148 457.01293945 C10.40384598 454.13410164 11.23414104 451.25483646 12.0625 448.375 C9.50733574 451.53785189 7.08161282 454.73517558 4.76733398 458.0793457 C-7.74103369 476.07263894 -23.15441475 493.48226319 -40.9375 506.375 C-41.989375 507.15875 -43.04125 507.9425 -44.125 508.75 C-75.9045633 532.1793209 -112.95477519 545.77071821 -151.9375 551.375 C-152.97302002 551.54418945 -154.00854004 551.71337891 -155.07543945 551.88769531 C-166.92022199 553.63580792 -178.69050551 553.67969136 -190.6472168 553.63574219 C-194.12891929 553.62498789 -197.61010964 553.63571007 -201.09179688 553.6484375 C-211.90705161 553.65592833 -222.31773837 553.57830133 -232.9375 551.375 C-234.97477522 551.02451165 -237.01254988 550.67691565 -239.05078125 550.33203125 C-264.12178484 545.78441696 -289.197955 539.1359344 -311.9375 527.375 C-311.39322684 518.78121331 -308.94545486 510.8298054 -306.5 502.625 C-306.02538663 501.01772341 -305.55128332 499.41029613 -305.07763672 497.80273438 C-304.28709226 495.12099371 -303.49553562 492.43957305 -302.70092773 489.7590332 C-300.82331055 483.41647295 -298.97960876 477.06465723 -297.15602779 470.70638657 C-295.56892579 465.17270643 -293.9714856 459.64207779 -292.36754704 454.11325455 C-291.36486922 450.65522001 -290.36730914 447.19588216 -289.38137817 443.73303223 C-288.26304773 439.80667053 -287.12064552 435.88768528 -285.9765625 431.96875 C-285.64350601 430.78589417 -285.31044952 429.60303833 -284.96730042 428.38433838 C-282.9360566 421.50972745 -281.10404698 416.13403783 -274.90234375 412.02734375 C-264.79698163 408.67228316 -255.19592639 413.9846664 -246.1484375 418.08984375 C-239.2394782 421.21317783 -232.40697214 424.04054552 -225.125 426.1875 C-224.14031738 426.47947266 -224.14031738 426.47947266 -223.13574219 426.77734375 C-198.95758158 433.59282525 -172.6437501 432.69083683 -150.4375 420.44921875 C-136.38688106 412.30693021 -127.62079851 400.98599505 -122.9375 385.375 C-120.40089979 372.69199897 -124.28377193 360.81575552 -131.03125 350.02734375 C-138.54927395 338.97363875 -147.45795435 328.7779742 -156.9375 319.375 C-160.31203746 315.74547338 -163.62453771 312.06073617 -166.9375 308.375 C-167.51371094 307.73820312 -168.08992187 307.10140625 -168.68359375 306.4453125 C-192.38863609 279.84364404 -211.74948891 251.44960518 -219.9375 216.375 C-220.164375 215.46363281 -220.39125 214.55226563 -220.625 213.61328125 C-225.56079767 190.13396593 -221.12868678 164.60662048 -212.9375 142.375 C-212.69161133 141.70726562 -212.44572266 141.03953125 -212.19238281 140.3515625 C-205.69890535 123.07907539 -197.20507641 106.9949132 -185.9375 92.375 C-184.93783203 91.05822266 -184.93783203 91.05822266 -183.91796875 89.71484375 C-172.44485196 74.97036982 -158.9784469 60.49996073 -143.9375 49.375 C-142.35195313 48.19164062 -142.35195313 48.19164062 -140.734375 46.984375 C-132.45510252 40.89092467 -123.87780014 35.44309655 -114.9375 30.375 C-114.27911133 29.99988281 -113.62072266 29.62476563 -112.94238281 29.23828125 C-78.61559399 9.86851885 -39.3665712 -0.11053857 0 0 Z " fill="#FD7F00" transform="translate(311.9375,1446.625)"/>
<path d="M0 0 C27.85201063 -0.07023563 55.70400789 -0.1230593 83.5560894 -0.15543652 C96.48973434 -0.17087271 109.42332409 -0.19189987 122.35693359 -0.22631836 C133.63638572 -0.25632043 144.91579785 -0.27559858 156.19528878 -0.28226548 C162.16175613 -0.28615949 168.12810912 -0.29524262 174.09453964 -0.31719017 C179.72351852 -0.3377264 185.35233716 -0.34379954 190.98134995 -0.33932304 C193.03464634 -0.34014064 195.08794874 -0.34600324 197.14121246 -0.35761642 C212.64517759 -0.44091997 228.16198655 0.37247411 242.9375 5.5625 C243.66146973 5.81153076 244.38543945 6.06056152 245.13134766 6.31713867 C262.28118506 12.51452474 276.75437924 22.19147187 290.1875 34.375 C290.7532373 34.88724121 291.31897461 35.39948242 291.90185547 35.92724609 C294.39948355 38.25491495 295.90316008 39.70948025 297 43 C297.66 43 298.32 43 299 43 C300.62372139 44.96442664 302.1022466 46.9176792 303.5625 49 C304.2263269 49.94516479 304.2263269 49.94516479 304.90356445 50.90942383 C322.73343867 76.747012 329.32999312 103.93899668 331 135 C331.04141113 135.73283203 331.08282227 136.46566406 331.12548828 137.22070312 C334.2733345 201.44309326 303.42549482 281.60808811 265 332 C264.33742188 332.87398437 263.67484375 333.74796875 262.9921875 334.6484375 C257.70283593 341.43679559 251.92267527 347.76600955 246 354 C245.49307617 354.53560547 244.98615234 355.07121094 244.46386719 355.62304688 C209.58928589 392.21633805 160.62403441 413.48859388 110.11056519 415.12608337 C105.6938873 415.2201221 101.27674998 415.26856228 96.859375 415.31640625 C95.23984309 415.33702928 93.62031591 415.35802692 92.00079346 415.37937927 C87.77923463 415.43404867 83.5576318 415.48369628 79.33599854 415.53222656 C75.01172055 415.58284947 70.68750489 415.63832056 66.36328125 415.69335938 C57.90890718 415.80026444 49.45448027 415.90185377 41 416 C38.52048088 424.37628972 36.04147538 432.75273126 33.56300259 441.12933064 C32.41014069 445.02565704 31.25714732 448.9219444 30.10375977 452.81811523 C21.70145819 481.20196971 13.34633777 509.59964376 5 538 C-11.06392869 538.09349246 -27.12776896 538.16400313 -43.19190407 538.20724869 C-50.65097785 538.22786319 -58.10988246 538.25596227 -65.56884766 538.30175781 C-72.07102713 538.34165994 -78.57308408 538.36744091 -85.07538259 538.37635398 C-88.5175178 538.38156311 -91.95930249 538.39378255 -95.40132523 538.42292023 C-99.24629475 538.45520415 -103.09092314 538.45595723 -106.93603516 538.45410156 C-108.07395508 538.46848267 -109.211875 538.48286377 -110.38427734 538.49768066 C-116.56844553 538.46534468 -120.31320028 538.18260545 -125 534 C-126.49609375 532.140625 -126.49609375 532.140625 -127.4375 530.25 C-127.76621094 529.63640625 -128.09492187 529.0228125 -128.43359375 528.390625 C-130.03482721 521.6323155 -127.03618937 513.99387445 -125.15625 507.51953125 C-124.72869164 506.02240852 -124.72869164 506.02240852 -124.29249573 504.49504089 C-123.36795957 501.26568111 -122.43434688 498.03903363 -121.5 494.8125 C-120.85847513 492.58142835 -120.2171185 490.35030832 -119.57592773 488.11914062 C-115.85930312 475.22459893 -112.02485396 462.37721628 -107.98242188 449.58105469 C-105.36445204 441.27280708 -102.97427029 432.91774063 -100.66235352 424.51977539 C-98.38772825 416.29100319 -95.96765602 408.11024429 -93.5 399.9375 C-90.73653338 390.78061777 -87.98811936 381.62049927 -85.3125 372.4375 C-84.93931641 371.15830688 -84.93931641 371.15830688 -84.55859375 369.85327148 C-83.2552194 365.36914303 -81.96514959 360.88141126 -80.68920898 356.3894043 C-77.31378698 344.51395412 -73.8456375 332.66935346 -70.30639648 320.84173584 C-68.78329419 315.75085521 -67.26493524 310.65855937 -65.74609375 305.56640625 C-65.4359433 304.52685791 -65.12579285 303.48730957 -64.8062439 302.41625977 C-61.79979932 292.33612091 -58.80765611 282.25177797 -55.82498169 272.1645813 C-55.28668169 270.34438137 -54.74802241 268.52428765 -54.20895386 266.70431519 C-51.4476708 257.3806743 -48.72019663 248.04904251 -46.0625 238.6953125 C-42.52830941 226.26524554 -38.81347738 213.89001911 -35.10449219 201.51123047 C-34.21444321 198.53905053 -33.32595449 195.56640689 -32.4375 192.59375 C-32.18105713 191.73994751 -31.92461426 190.88614502 -31.66040039 190.00646973 C-29.77637784 183.7020163 -27.96286775 177.37868855 -26.16137695 171.05029297 C-23.42207951 161.43305144 -20.61014506 151.83874968 -17.76628685 142.2519722 C-16.38584983 137.59602997 -15.01088696 132.93846921 -13.63476562 128.28125 C-11.90147504 122.41686092 -10.16660693 116.55294909 -8.42700195 110.69042969 C-7.00236261 105.88883286 -5.58250134 101.08584583 -4.16579628 96.28190231 C-3.62972289 94.46737254 -3.09189686 92.65335956 -2.55223656 90.83989334 C-1.80136989 88.31596306 -1.05662365 85.79030068 -0.31323242 83.26416016 C-0.0924855 82.52750626 0.12826141 81.79085236 0.35569763 81.03187561 C3.45170303 70.44322391 4.49226836 60.28383896 0 50 C-1.8902241 46.79556945 -3.88911248 43.65357089 -6.03881836 40.61694336 C-9.3357671 35.63011483 -9.14692859 31.7908987 -8 26 C-6.78858202 21.43194654 -5.37936755 16.9374217 -3.9375 12.4375 C-3.56044922 11.23802734 -3.18339844 10.03855469 -2.79492188 8.80273438 C-1.87063497 5.86607597 -0.93884892 2.9320287 0 0 Z M128 118 C120.79137436 142.09276994 113.62573506 166.19676785 106.6105957 190.34664917 C102.64196874 204.00424845 98.63128958 217.64895941 94.58984375 231.28515625 C94.35462194 232.07904629 94.11940014 232.87293633 93.8770504 233.69088364 C91.51688001 241.65655248 89.15511238 249.62174041 86.7875948 257.58522892 C85.89837623 260.57766853 85.01081406 263.57059788 84.12358284 266.56362724 C83.71179349 267.95134217 83.29927488 269.33884097 82.88592339 270.72609138 C80.09026571 280.10948963 77.47618643 289.52769377 75 299 C114.0230896 299.96025881 114.0230896 299.96025881 147.5625 281.625 C152.4831783 276.90904652 156.47195471 271.8208517 160 266 C160.60972656 265.01 161.21945312 264.02 161.84765625 263 C181.6885685 229.55050976 204.2706904 178.76158814 197 139 C194.67018806 130.70004497 191.02261902 124.47093766 183.62402344 119.92626953 C178.20409272 117.27230997 172.99151038 117.49543253 167.0625 117.609375 C165.94182129 117.61503479 164.82114258 117.62069458 163.66650391 117.62652588 C160.11055583 117.64879708 156.55564011 117.69897823 153 117.75 C150.5794417 117.77007687 148.15886751 117.78832555 145.73828125 117.8046875 C139.82517257 117.84863153 133.91266007 117.91545126 128 118 Z " fill="#FD7F00" transform="translate(983,1455)"/>
<path d="M0 0 C2.31 0 4.62 0 7 0 C9.21484375 2.625 9.21484375 2.625 10.9375 6 C11.52402344 7.11375 12.11054687 8.2275 12.71484375 9.375 C13.13894531 10.24125 13.56304688 11.1075 14 12 C15.98 8.04 17.96 4.08 20 0 C22.64 0 25.28 0 28 0 C28 8.91 28 17.82 28 27 C25.69 27 23.38 27 21 27 C20.67 24.03 20.34 21.06 20 18 C19.01 19.98 18.02 21.96 17 24 C15.02 24 13.04 24 11 24 C9.68 21.69 8.36 19.38 7 17 C7 20.3 7 23.6 7 27 C4.69 27 2.38 27 0 27 C0 18.09 0 9.18 0 0 Z " fill="#EA7700" transform="translate(1315,1463)"/>
<path d="M0 0 C2.64 0 5.28 0 8 0 C9.98 3.96 11.96 7.92 14 12 C16.15016583 9.13311223 17.67007588 6.88949817 19.1875 3.75 C19.53167969 3.04359375 19.87585937 2.3371875 20.23046875 1.609375 C20.61138672 0.81273437 20.61138672 0.81273437 21 0 C23.31 0 25.62 0 28 0 C28 8.91 28 17.82 28 27 C26.02 27 24.04 27 22 27 C21.505 22.05 21.505 22.05 21 17 C19.68 19.31 18.36 21.62 17 24 C15.02 24 13.04 24 11 24 C10.01 22.02 9.02 20.04 8 18 C7.67 20.97 7.34 23.94 7 27 C4.69 27 2.38 27 0 27 C0 18.09 0 9.18 0 0 Z " fill="#E97600" transform="translate(1426,1463)"/>
<path d="M0 0 C2.71677989 2.5130214 3.29803569 3.67714239 3.5 7.3125 C0.5 9.3125 0.5 9.3125 -1.625 9.0625 C-3.5 8.3125 -3.5 8.3125 -4.5 6.3125 C-6.49954746 6.26995644 -8.50041636 6.27169217 -10.5 6.3125 C-11.77870382 7.36850378 -11.77870382 7.36850378 -11.6328125 9.78125 C-11.63023438 10.7815625 -11.62765625 11.781875 -11.625 12.8125 C-11.62757812 13.8128125 -11.63015625 14.813125 -11.6328125 15.84375 C-11.77870382 18.25649622 -11.77870382 18.25649622 -10.5 19.3125 C-7.54195427 19.64590471 -7.54195427 19.64590471 -4.5 19.3125 C-3.84 18.3225 -3.18 17.3325 -2.5 16.3125 C-0.52 16.6425 1.46 16.9725 3.5 17.3125 C3.25499132 20.90596057 2.863706 22.86666683 0.5625 25.6875 C-3.81114183 28.00820791 -7.64520987 27.98322758 -12.5 27.3125 C-16.18623011 25.69977433 -17.25355 24.682175 -19.5 21.3125 C-19.72216068 18.64080142 -19.82452645 16.10737129 -19.8125 13.4375 C-19.82861328 12.72980469 -19.84472656 12.02210937 -19.86132812 11.29296875 C-19.865526 6.78444868 -19.37579041 3.8309614 -16.5 0.3125 C-11.35250818 -3.15417817 -5.37228983 -2.59021117 0 0 Z " fill="#ED7800" transform="translate(1365.5,1463.6875)"/>
<path d="M0 0 C2.31 0 4.62 0 7 0 C6.44322254 8.38714887 4.7559147 16.43158618 2.9375 24.625 C2.65248001 25.92827294 2.36797132 27.23165781 2.08398438 28.53515625 C1.39432225 31.69123718 0.69955412 34.84609966 0 38 C-2.31 38 -4.62 38 -7 38 C-6.45076707 29.82811073 -5.1570069 21.95267909 -3.5 13.9375 C-3.27441406 12.81150391 -3.04882812 11.68550781 -2.81640625 10.52539062 C-1.1409337 2.2818674 -1.1409337 2.2818674 0 0 Z " fill="#E07200" transform="translate(1386,1458)"/>
<path d="M0 0 C7.26 0 14.52 0 22 0 C22 1.98 22 3.96 22 6 C19.69 6 17.38 6 15 6 C15 12.93 15 19.86 15 27 C12.69 27 10.38 27 8 27 C8 20.07 8 13.14 8 6 C5.36 6 2.72 6 0 6 C0 4.02 0 2.04 0 0 Z " fill="#F07A00" transform="translate(1402,1463)"/>
<path d="M0 0 C1.07310858 3.27185553 0.89263102 5.42947592 0.0625 8.75 C-0.22947266 9.94882813 -0.22947266 9.94882813 -0.52734375 11.171875 C-0.68332031 11.77515625 -0.83929687 12.3784375 -1 13 C-1.66 13 -2.32 13 -3 13 C-3.46192125 8.07284004 -1.8275283 4.49267375 0 0 Z " fill="#A75700" transform="translate(872,1915)"/>
</svg>
